<?xml version="1.0" encoding="utf-8"?>
<!-- Generator: Adobe Illustrator 21.1.0, SVG Export Plug-In . SVG Version: 6.00 Build 0)  -->
<svg version="1.1" id="Layer_1" xmlns="http://www.w3.org/2000/svg" xmlns:xlink="http://www.w3.org/1999/xlink" x="0px" y="0px"
	 viewBox="0 0 2292.4 2538.3" style="enable-background:new 0 0 2292.4 2538.3;" xml:space="preserve">
<style type="text/css">
	.st0{fill:#E2EDE8;}
	.st1{fill:#E7DBD3;}
	.st2{fill:#FFFFFF;}
	.st3{fill:#403D33;}
	.st4{fill:#726A56;}
	.st5{fill:#5E5746;}
	.st6{fill:#DD3114;}
	.st7{fill:#FF4217;}
	.st8{fill:#939B48;stroke:#808334;stroke-width:12.6931;stroke-miterlimit:10;}
	.st9{fill:#808334;}
	.st10{fill:none;stroke:#808334;stroke-width:12.6931;stroke-miterlimit:10;}
	.st11{fill:none;stroke:#FFFFFF;stroke-width:12.6931;stroke-linecap:round;stroke-linejoin:round;stroke-miterlimit:10;}
	.st12{fill:#FFAE5C;}
	.st13{fill:#C2D3CB;}
	.st14{fill:#D8AD79;}
	.st15{fill:#B78B5A;}
	.st16{fill:#9B7550;}
	.st17{fill:#A1AF4A;}
	.st18{fill:#929B42;}
</style>
<g>
	<g>
		<path class="st0" d="M1324.1,549.6c-0.4-0.1-0.8-0.1-1.2-0.2c0.7,0.2,1.4,0.4,2.1,0.7C1324.7,549.9,1324.4,549.7,1324.1,549.6z"/>
		<path class="st0" d="M2183.3,604.7c-0.1,0.6-0.2,1.1-0.3,1.7c0.5-0.6,1-1.2,1.6-1.8C2184.1,604.5,2183.7,604.6,2183.3,604.7z"/>
	</g>
</g>
<rect x="-30" y="-31" class="st1" width="2348" height="2600"/>
<g>
	<g>
		<path class="st0" d="M484.3,1946.6c19.2,1.6,38.4,3,57.6,4.6C522.7,1948.9,503.6,1947.5,484.3,1946.6z"/>
		<path class="st0" d="M858,2203c10.8-11.9,20.6-24.8,28.9-38.8c13.5-22.8,22.9-47.7,28.8-73.6c-17.5-3.8-33.8-11.6-48.1-22.8
			c-1.8,4.6-3.5,9.1-5.7,13.5c-4.3,8.6-9.6,16.7-15.6,24c-6.9,8.4-14.3,14.7-22.5,19.5c-1.9,8.7-4.4,17.3-7.6,25.7
			c12.5,19.5,22.8,40.4,30.8,62.3c1.4-0.9,2.7-1.7,4-2.7C853.3,2208,855.6,2205.7,858,2203z"/>
		<path class="st2" d="M180.7,1943.2c36.5-20.5,81.5-29,121.1-36.6c45.2-8.6,90.9-13.3,136.9-13.7c84-0.9,168.4,11.5,248.4,38.8
			c59.2,20.3,122.8,55.8,137.3,126.6c3.1,14.9,3.9,29.7,2.8,44.1c4.4-5.5,8.4-11.2,11.9-16.9c6-9.8,9.4-21,13.8-31.6
			c-2.1-2.3-4.3-4.8-6.3-7.3c-7.8-9.8-2.2-22.3,9.2-23.9c20.9-2.8,41.2,6.3,60.4,18c14.1,3.4,28.2,6.8,42.2,10.3
			c0.8,0.2,1.5,0.4,2.1,0.9h0.1c0.3,0.2,0.7,0.3,0.9,0.5c5.3,2.8,9,9,6.8,15.3c-1.9,5.2-3.8,10.3-5.7,15.4
			c-3.1,8.3-11.2,13.3-19.2,8.4c-0.6-0.3-1.2-0.7-1.8-1.1c-0.9,0.7-2.1,1.4-3.2,1.7c-7.1,31.1-19,60-36.4,86.5
			c-3.8,5.7-8.2,12.8-13.3,19.7c-0.2,0.9-0.3,1.6-0.8,2.3c-5.6,11.7-14.3,19.4-24.4,26.6c-3,2.1-6.2,4.4-9.6,6.5
			c17.2,58,6.4,101.4-7.9,161.4c-7.7,32.1-86.2,146.4-100.1,173.5c2.5-1.4,93.2-57.1,151-108.1s60.2-54.1,75.2-72.4
			c6.1-12.7,7.3-11.5,5.1-7.2c0.7-1,1.4-1.9,1.9-2.9c6.3-10.3,12.2-20.7,17.8-31.5c6.3-12.1,12-24.5,17.4-37c2.1-4.8,4-9.8,6.1-14.7
			c0.4-7.8,2-11.6,2.8-12.1c2.7-8,6.6-16.4,8.3-22.9c3.4-12.1,6.6-24.5,9.4-36.7c5.6-24.6,10-49.5,13.3-74.5
			c0.8-5.7,1.4-11.5,2.1-17.1c0-0.7,0.1-1.5,0.1-2.3c0.5-10.8,1.4-21.6,1.6-32.3c0.1-3.6,0.1-7.2,0.2-11
			c-23.8-24.7-47.6-49.1-71.2-73.8c-10.7-11.2-22-21.8-33.6-32.1c-4.6-4-9.2-8.1-13.9-12c-0.2-0.2-7.8-6.3-11.8-9.6
			c-1.9-1.5-3.6-2.8-4.4-3.4c-6.1-4.6-12.1-9-18.3-13.6c-9.7-7.2-19.6-14.3-29.4-21.4c-50.3-36.5-98.1-75.8-146.4-115
			c-1.5-1.2-2.9-2.2-4.4-3.4c-0.3-0.2-0.4-0.3-0.7-0.5c-6.1-4.5-11.9-9-18-13.5c-9.6-7-19.4-13.8-29.4-20.3
			c-19.6-12.8-42.9-21-62.3-33.9c-1.8-0.5-3.5-1.2-5.3-1.7c-6.7-2.1-13.3-3.9-20.2-5.5c-8.2-2-16.6-3.5-24.9-4.8
			c-17.8-0.7-35.3-1.1-53.1,0.1c-7.4,0.5-14.7,1.3-22,2.1c-2,0.3-3.9,0.5-5.9,0.9c-34.5,8.4-68.3,16.7-101.7,29.6
			c-9.5,3.6-18.9,7.6-28.2,11.6c-1.4,0.6-2.7,1.2-4.2,1.8c-15.2,9.8-33.1,16.5-48.8,25.3c-188.2,126.3-222.4,204.9-222.4,204.9
			c1.7-1.8,3.7-3.5,5.7-5.3C109.3,1971.3,146,1950.2,180.7,1943.2z"/>
		<path class="st3" d="M888.2,2201c0.3-0.9,0.6-1.6,0.8-2.3c5-7,9.5-13.9,13.3-19.7c17.4-26.5,29.3-55.3,36.4-86.5
			c1.2-0.3,2.2-1,3.2-1.7c0.6,0.3,1.2,0.7,1.8,1.1c8,4.9,16.1-0.1,19.2-8.4c2-5.1,3.8-10.3,5.7-15.4c2.3-6.4-1.5-12.6-6.8-15.3
			c-0.3-0.2-0.6-0.3-0.9-0.5h-0.1c-0.7-0.3-1.4-0.5-2.1-0.9c-14.1-3.5-28.1-7-42.2-10.3c-19.2-11.7-39.5-20.8-60.4-18
			c-11.4,1.6-17,14-9.2,23.9c2.1,2.6,4.2,5,6.3,7.3c-4.5,10.5-8,21.7-13.8,31.6c-3.5,5.7-7.5,11.4-11.9,16.9
			c-0.6,7.6-1.6,14.9-3.2,22.1c8.2-4.9,15.6-11.1,22.5-19.5c6-7.3,11.4-15.3,15.6-24c2.1-4.4,3.8-9,5.7-13.5
			c14.3,11.3,30.6,19,48.1,22.8c-6,26-15.3,50.9-28.8,73.6c-8.3,14-18.1,26.9-28.9,38.8c-2.4,2.7-4.7,4.9-6.8,7.2
			c-1.3,1-2.6,1.7-4,2.7c-7.3,4.4-15.3,8.2-20.6,14.7c-4.4,5.4-1.2,12.9,5.3,13.5c7.5,0.9,15.3-2.8,22.4-7c3.5-2.1,6.8-4.4,9.6-6.5
			C874,2220.4,882.6,2212.7,888.2,2201z"/>
		<path class="st4" d="M848.3,2415c17.3-67.1,23.3-123.2,6.1-181c-7.1,4.3-14.9,7.8-22.4,7c-6.5-0.7-9.6-8.1-5.3-13.5
			c5.3-6.5,13.3-10.3,20.6-14.7c-8.1-21.9-18.4-42.9-30.8-62.3c3.2-8.4,5.7-16.9,7.6-25.7c1.5-7.2,2.6-14.7,3.2-22.1
			c1.1-14.5,0.3-29.2-2.8-44.1c-14.6-70.8-77.9-106.4-137.3-126.6c-80.1-27.3-164.5-39.7-248.4-38.8c-45.8,0.4-91.6,5.1-136.9,13.7
			c-39.5,7.6-84.5,16.1-121.1,36.6c-34.7,6.9-71.4,28-96.6,49c-2.1,1.7-21.2,66.5-22.9,68.3c0,0-40.8,109.9-40.8,196.3
			c0,72.8,17.8,112.7,51.8,181.8c21.1,42.8,68,129.9,68,129.9h605.7C749.2,2564,830.9,2482.2,848.3,2415z M723.7,2459.1
			c-1.8,3.1-4.8,4.7-8,4.7c-2.5,0.9-5.4,0.5-7.5-0.6c-4.6-2.6-5-8.4-3.2-12.9c1-2.6,3.1-4.8,4.6-7.1c2.7-4,7.1-6,11.4-4
			c4.4,1.9,6.4,6.8,5.4,11.6C725.8,2453.6,725.2,2456.4,723.7,2459.1z M665.6,2418.7c-10.8-12.8-8.2-34.2,0.5-48.4
			c11.3-18.2,34.1-30.3,52.8-16.7c21.4,15.6,9.5,44.6-3.5,61.4C702.7,2431.4,677.7,2441.9,665.6,2418.7z M116.5,2200.7
			c-1.3-1-0.5-3.5,1.2-2.9c0.6,0.2,1.1,0.4,1.7,0.6c-8-8.2-14.6-17.2-18.9-27.2c-1-2.4,1.1-5.3,3.6-3.8
			c18.4,11.1,33.2,27.9,51.6,39.5c14.1,8.9,29.3,16,44.8,21.7c15.5,4.4,30.6,9.4,46.1,14c32,7.8,64.8,12.1,97.3,15.1
			c104,9.5,207.5,3.4,310.2-15.7c5.3-1,9.3,1.5,11.9,5.1c20-1,27.1,31.7,5.9,38.2C493.7,2339.5,269.8,2317.3,116.5,2200.7z
			 M166.7,2151.1c40.3,12.1,76.1,37.7,116.5,50.6c44.3,14.3,86.7,14,132.1,17.9c10,0.9,13.7,17.8,2.6,20
			c-45,8.4-96.9-2.2-140.1-16.3c-40.3-13.1-87.1-32.2-112.3-70.1C164.5,2152,165.7,2150.7,166.7,2151.1z M459,2230
			c1.1-1.4,2.1-2.7,3.7-3.6c1.4-0.9,3.1-1.4,4.6-1.8c3.2-1,6.9-1.1,10.2-0.9c6.2,0.4,10.8,5.1,11,11.8c0.3,6.6-5.3,11.5-11,11.8
			c-3.4,0.2-7,0-10.2-1c-1.5-0.4-3.2-1.1-4.6-1.9c-1.7-1-2.6-2.2-3.8-3.7C454.9,2238.6,454.8,2232.3,459,2230z M706,2231.6
			c1.2-0.7,2.3-1.6,3.5-2.2c5.4-3.4,11.9-1.6,15.5,3.4c0.9,0.3,1.9,0.9,2.7,1.5c7.5,5.3,9,15.4,5.4,23.7
			c-3.6,7.8-12.2,12.2-20.2,10.1c-4.6-1.3-8.6-3.9-11.4-8.1c-3.2-5.1-3.8-11.1-1.3-16.6c0.1-0.2,0.2-0.3,0.3-0.4
			C700.3,2238.4,702.3,2234,706,2231.6z M107.1,1997.6c0.3-0.3,0.9,0.3,0.6,0.6c-9.7,16.1-12.5,32.8-9.1,47.9
			c1.5-7.9,4.6-15.5,9.6-22.4c0.9-1.3,2-2.7,3-3.9c-2,0.1-3.4-1.6-2.9-3.4c1.7-2,3.6-3.9,5.6-6c0.7-0.6,1.1-1.4,1.4-2.1
			c9.9-9.8,22.2-17.8,35.3-24.5c1.2-1,2.5-1.6,3.8-1.9c21.3-10.3,44.4-17.8,64.1-24.4c40.6-13.6,82.4-22.2,124.6-28.1
			c76.6-10.5,155.3-10.5,231.9,0.3c63.2,8.9,130.4,28.4,177.4,77.1c0.9-3.3,4.9-4.7,7.1-1.2c4.5,7.3,7.9,16,10.1,25
			c8.1,26,6.7,50.3-1.7,71.8c-4.8,17.8-13.1,35.6-27,42c-0.3,0.1-0.5,0.2-0.8,0.3c-3.3,3.4-6.8,6.6-10.3,9.6
			c-8.1,6.8-16.9,12.8-26.4,18.1c-8.2,4.6-16.9,8.5-25.8,11.9c-68.2,25.3-145,30.1-216.5,26.6c-75.1-3.7-149.7-20.4-220-48.9
			c-4.3-1.7-9.6-3.9-16-6.6c-11.8-5.1-26.6-11.8-42-19.9c-6.8-3.5-13.7-7.4-20.7-11.6c-25.4-2.8-53.7-28.7-65-48.6
			C83.2,2050.5,80.9,2013.7,107.1,1997.6z"/>
		<path class="st5" d="M666.2,2247c-2.6-3.6-6.8-6-11.9-5.1c-102.7,19.1-206.3,25.2-310.2,15.7c-32.5-3-65.4-7.3-97.3-15.1
			c-15.5-4.7-30.6-9.7-46.1-14c-15.5-5.8-30.7-12.8-44.8-21.7c-18.3-11.6-33.1-28.4-51.6-39.5c-2.5-1.5-4.6,1.4-3.6,3.8
			c4.3,10,10.8,19,18.9,27.2c-0.6-0.2-1.1-0.4-1.7-0.6c-1.7-0.6-2.5,1.9-1.2,2.9c153.3,116.6,377.3,138.8,555.4,84.5
			C693.2,2278.7,686.1,2246,666.2,2247z"/>
		<path class="st5" d="M701.5,2259.8c2.7,4.1,6.8,6.8,11.4,8.1c7.9,2.2,16.6-2.2,20.2-10.1c3.8-8.3,2.1-18.5-5.4-23.7
			c-0.9-0.6-1.8-1.1-2.7-1.5c-3.6-4.9-10.1-6.6-15.5-3.4c-1.2,0.7-2.3,1.5-3.5,2.2c-3.8,2.4-5.8,6.8-5.5,11.3
			c-0.1,0.2-0.3,0.3-0.3,0.4C697.8,2248.8,698.4,2254.8,701.5,2259.8z"/>
		<path class="st5" d="M772.1,2078.1c-0.9,7.2-2.4,15.7-4.7,24.4c8.3-21.6,9.7-45.9,1.7-71.8
			C773.1,2046.2,773.9,2063.2,772.1,2078.1z"/>
		<path class="st5" d="M126.3,2084.9c3.2,2.1,6.6,3.9,10.1,5.4c14.5-19,41.3-29.9,61.3-39.7c25-12.2,51.1-22.5,77.5-30.5
			c55.1-16.5,112.9-23.4,170-20.5c58.6,2.9,117,15.4,171.6,38.9c40.7,17.5,87.6,41.3,119.7,76.5c5.6-11.3,12.5-22.2,15.5-34.9
			c6.1-25.2,3.5-45.9,0-71.2c-0.1-0.7,0-1.5,0.2-2.1c-47-48.7-114.2-68.3-177.4-77.1c-76.6-10.8-155.3-10.8-231.9-0.3
			c-42.2,5.8-83.9,14.5-124.6,28.1c-19.7,6.6-42.9,13.9-64.1,24.4c-1.3,0.3-2.6,1-3.8,1.9c-13.1,6.7-25.3,14.7-35.3,24.5
			c-0.3,0.7-0.7,1.5-1.4,2.1c-2.1,2-3.9,3.9-5.6,6c-0.5,1.8,0.9,3.6,2.9,3.4c-1,1.3-2.1,2.6-3,3.9c-5,6.9-8.2,14.6-9.6,22.4
			C101.9,2061.2,111.3,2074.7,126.3,2084.9z M541.9,1951.2c-19.2-1.6-38.4-3.1-57.6-4.6C503.6,1947.5,522.7,1948.9,541.9,1951.2z"/>
		<path class="st6" d="M560.4,2164.7c7.3-0.1,14.6-0.1,21.9-0.2c-7.5-0.5-15-1-22.6-1.4C560,2163.6,560.2,2164.1,560.4,2164.7z"/>
		<path class="st6" d="M642.3,2173.9c2.6-0.6,5.1-1.2,7.7-1.8c-2.9-0.4-5.8-0.9-8.6-1.2C641.7,2171.8,642.1,2173,642.3,2173.9z"/>
		<path class="st6" d="M661.6,2089.3c-37.5-29.6-83.6-49.1-126.9-58.9c-32.7-7.2-66.3-9.3-99.6-5.3c-5.3,0.6-10.8,1.4-16.5,2.2
			c9.8,1.4,19.3,4,27.3,8.9c3.4,2.1,2.6,7.8-1.1,8.8c-23.1,6.9-51.5-0.2-75.4-0.7c-11-0.3-22.3-0.6-33.6-0.9
			c-59.9,12.6-117.3,40.8-153.4,91.7c15.4,8.1,30.2,14.8,42,19.9c39.3-34.5,94.8-52,143.8-61.5c3.5-0.6,7-1.3,10.3-1.9
			c0.5-0.3,0.9-0.7,1.5-1.1c3.1-2.3,6.2-2.1,8.7-0.4c46.4-6.6,93.1-5.2,139.4,3c8.8,1.6,5.9,15.3-2.1,15.8
			c-47.6,3.3-91,19.7-129.8,47.4c19-2.6,38.1-4.6,57-6c2.3-1.5,4.7-2.8,7.1-4.1c4.4-6.6,14-5,17,2.2c0.1,0.1,0.1,0.3,0.1,0.3
			c73.2-4,146.2-0.5,219.4,12.4c5.7,1,7.3,6.4,5.9,11c9.4-5.3,18.4-11.4,26.4-18.1C713.2,2124.9,689.1,2104.3,661.6,2089.3z
			 M585.1,2117.4c-0.5,3.3-3.9,6.8-7,7.4c-12.2,2.4-29.9,8.8-41.9,3.4c-3.7-1.6-5.6-6.4-2.5-9.8c9.2-10,26.8-11.4,39.1-14
			c4.4-1,8.9,0.6,11.2,4.9C585.6,2112,585.5,2114.3,585.1,2117.4z"/>
		<path class="st7" d="M697.2,2161.4c-73.3-13-146.2-16.6-219.4-12.4c2.7,7.3-3.3,14.9-10.3,14.1c-3.4,1.2-6.8,2.4-10.2,3.3
			c-4.2,1.1-8.3,0.9-12.5,1.5c-3.2,0.4-7-3.9-3.7-6.7c3.3-2.8,6.2-6.2,9.6-8.7c0.9-0.7,2-1.3,2.9-1.9c-19,1.6-38,3.5-57,6
			c38.8-27.8,82.3-44,129.8-47.4c7.9-0.5,10.8-14.3,2.1-15.8c-46.3-8.2-93-9.7-139.4-3c5.8,3.6,8.5,14.5,0.9,18
			c-5.3,2.4-10.6,4.9-16,7.1c-5.4,2.2-10.8,3.1-16.4,4.5c-3,0.7-5.3-3.1-3.1-5.5c3.9-4.3,7.3-8.7,11.7-12.4c4.2-3.4,8.4-6.7,12.6-10
			c-3.5,0.5-7,1.2-10.3,1.9c-49,9.6-104.7,27-143.8,61.5c6.3,2.8,11.8,5,16,6.6c70.4,28.4,144.9,45.2,220,48.9
			c71.5,3.5,148.3-1.4,216.5-26.6c8.9-3.3,17.6-7.2,25.8-11.9C704.3,2167.8,702.8,2162.3,697.2,2161.4z M441.5,2108.5
			c3.8-7,11.4-8.7,16.8-13.8c5.2-4.8,13.1-3.7,16,3.4c2.8,7.2-2.1,14-9,14.7c-7.2,0.5-13.7,5.1-21.1,3.1
			C441.4,2114.9,440,2111.2,441.5,2108.5z M385.9,2153.7c-2.7,0.9-4.7-2.9-2.7-5c2.1-2.2,3.2-5.2,5.5-7.3c1.9-1.8,4.4-3.4,5.8-5.9
			c3.2-6,11.4-6,14.7,0c3.4,6.2-1,13.4-7.4,13.7c-2.4,0.1-5.1,1.9-7.3,2.8C391.6,2153.2,388.6,2153,385.9,2153.7z M536.7,2169.7
			c-5,1.8-9.9,3.1-14.7,5.7c-3.8,2.2-8.2-3.3-4.8-6.6c4.2-4,7.3-8.9,10.7-13.5c2.4-7.7,12.4-11.3,18-3.5
			C551.9,2159.8,544.9,2170.5,536.7,2169.7z M560.4,2164.7c-0.2-0.5-0.4-1.1-0.7-1.6c7.6,0.3,15,0.9,22.6,1.4
			C575,2164.6,567.7,2164.6,560.4,2164.7z M642.3,2173.9c-0.3-1.1-0.6-2.1-1-3.1c2.9,0.3,5.8,0.9,8.6,1.2
			C647.5,2172.8,644.9,2173.3,642.3,2173.9z"/>
		<path class="st7" d="M572.8,2104.4c-12.2,2.8-29.9,4-39.1,14c-3.2,3.4-1.3,8.2,2.5,9.8c12,5.4,29.7-1,41.9-3.4
			c3.1-0.6,6.5-4,7-7.4c0.4-3.2,0.5-5.3-1-8.2C581.7,2104.9,577.1,2103.4,572.8,2104.4z"/>
		<path class="st2" d="M354.6,2114.3c-2.2,2.4,0,6.3,3.1,5.5c5.6-1.4,10.9-2.2,16.4-4.5s10.7-4.7,16-7.1c7.8-3.6,5-14.4-0.9-18
			c-2.6-1.6-5.7-1.8-8.7,0.4c-0.5,0.3-0.9,0.7-1.5,1.1c-4.3,3.3-8.4,6.6-12.6,10C361.8,2105.5,358.3,2110,354.6,2114.3z"/>
		<path class="st2" d="M409,2135.6c-3.2-6-11.4-6-14.7,0c-1.3,2.3-3.9,4-5.8,5.9c-2.2,2.2-3.4,5.1-5.5,7.3c-2,2.1,0,6,2.7,5
			c2.8-1,5.8-0.6,8.5-1.6c2.2-0.9,4.9-2.7,7.3-2.8C408,2149,412.4,2141.8,409,2135.6z"/>
		<path class="st2" d="M444.3,2115.7c7.3,2.1,13.9-2.6,21.1-3.1c6.9-0.5,11.8-7.4,9-14.7c-2.8-7.1-10.8-8.3-16-3.4
			c-5.4,5-13,6.7-16.8,13.8C440,2111.2,441.4,2114.9,444.3,2115.7z"/>
		<path class="st2" d="M441,2161.2c-3.3,2.8,0.5,7.2,3.7,6.7c4.2-0.6,8.4-0.4,12.5-1.5c3.4-1,6.8-2.1,10.2-3.3
			c7.1,0.9,13.1-6.8,10.3-14.1c-0.1-0.1-0.1-0.3-0.1-0.3c-3-7.2-12.6-8.7-17-2.2c-2.4,1.4-4.8,2.8-7.1,4.1c-1,0.6-2,1.2-2.9,1.9
			C447.2,2154.9,444.3,2158.3,441,2161.2z"/>
		<path class="st2" d="M528.1,2155.3c-3.5,4.7-6.6,9.5-10.7,13.5c-3.4,3.4,0.9,8.8,4.8,6.6c4.8-2.7,9.7-3.9,14.7-5.7
			c8.1,1,15-9.9,9.2-17.9C540.5,2144,530.5,2147.7,528.1,2155.3z"/>
		<path class="st2" d="M715.4,2414.9c13-16.9,24.8-45.7,3.5-61.4c-18.6-13.6-41.5-1.5-52.8,16.7c-8.7,14.1-11.3,35.7-0.5,48.4
			C677.7,2441.9,702.7,2431.4,715.4,2414.9z"/>
		<path class="st2" d="M721.1,2439.1c-4.4-2-8.8,0-11.4,4c-1.5,2.2-3.6,4.5-4.6,7.1c-1.9,4.6-1.4,10.3,3.2,12.9
			c2.1,1.2,5,1.5,7.5,0.6c3.2-0.1,6.3-1.6,8-4.7c1.5-2.7,2.1-5.3,2.7-8.4C727.5,2445.9,725.4,2440.9,721.1,2439.1z"/>
		<path class="st2" d="M277.6,2223.2c43.2,14,95.1,24.7,140.1,16.3c11.2-2.1,7.5-19-2.6-20c-45.3-3.9-87.7-3.6-132.1-17.9
			c-40.3-13-76.2-38.4-116.5-50.6c-1-0.3-2.2,1-1.5,2.1C190.7,2190.9,237.4,2210.1,277.6,2223.2z"/>
		<path class="st2" d="M462.6,2244.7c1.4,0.9,3.1,1.5,4.6,1.9c3.2,1,6.8,1.1,10.2,1c5.8-0.3,11.3-5.2,11-11.8
			c-0.3-6.7-4.9-11.4-11-11.8c-3.3-0.3-7-0.1-10.2,0.9c-1.5,0.4-3.2,1-4.6,1.8c-1.6,1-2.6,2.2-3.7,3.6c-4.2,2.2-4.2,8.5-0.1,11
			C460.1,2242.3,461,2243.6,462.6,2244.7z"/>
		<path class="st3" d="M162,2123.8c6.8,4,13.7,7.9,20.7,11.6c36.1-50.9,93.5-79.1,153.4-91.7c11.2,0.2,22.5,0.5,33.6,0.9
			c24,0.5,52.4,7.7,75.4,0.7c3.7-1.1,4.5-6.7,1.1-8.8c-8.1-4.9-17.5-7.6-27.3-8.9c5.6-1,11.1-1.7,16.5-2.2c33.3-3.9,66.9-2,99.6,5.3
			c43.3,9.7,89.5,29.4,126.9,58.9c27.6,14.8,51.6,35.6,67.8,64.9c3.7-3.1,7.2-6.3,10.3-9.6c0.3-0.1,0.5-0.1,0.8-0.3
			c13.9-6.4,22.3-24.3,27-42c2.3-8.6,3.8-17.1,4.7-24.4c1.8-14.9,0.9-31.9-3-47.4c-2.3-9-5.6-17.7-10.1-25c-2.1-3.5-6.2-2.1-7.1,1.2
			c-0.2,0.6-0.3,1.3-0.2,2.1c3.5,25.2,6.1,45.9,0,71.2c-3,12.7-10,23.6-15.5,34.9c-32.1-35.2-79-58.9-119.7-76.5
			c-54.5-23.4-112.9-36-171.6-38.9c-57.1-2.8-114.9,4-170,20.5c-26.5,7.9-52.5,18.2-77.5,30.5c-20,9.8-46.8,20.5-61.3,39.7
			c-3.6-1.6-7-3.4-10.1-5.4c-14.9-10.3-24.5-23.8-27.8-38.8c-3.4-15.2-0.6-31.8,9.1-47.9c0.3-0.3-0.3-1-0.6-0.6
			c-26,16.3-23.9,53-10,77.6C108.4,2095.1,136.5,2121.2,162,2123.8z"/>
	</g>
</g>
<g>
	<path class="st8" d="M1874.8,2059.8c0,0-33.9-12.5-25.8-47.2c6.8-29.1,35.2-23.9,35.2-23.9s-21.9-53.6,35.6-70.4
		c21.1-6.3,41.8,10,41.8,10s15.4-29.9,35.2-23.9c21.6,6.6,24.3,27.1,27.9,24c21.4-17.4,68.8,8.5,57,58.6
		c-11.5,48.8-44.8,46.9-44.8,46.9l33.4,43.7l-52.3,50.5l-39.5-40.8c0,0-27.3,64.7-79.9,42.9
		C1845.6,2108.4,1867.7,2072.3,1874.8,2059.8z"/>
	<path class="st9" d="M1948.5,2027.1c0,0-20.9-31.3-53.3,0.9c-17.7,17.6,5.9,32.5,5.9,32.5s-11.8,20.2,5.8,36.2
		c32.3,29.4,77.8-15.9,74.1-47.6c-0.6-5.2,18.8,0.5,22.2-15.9c6.9-32.8-15.2-52.2-35.6-44.5
		C1963.1,1990.2,1936.4,2001.3,1948.5,2027.1z"/>
	<ellipse class="st9" cx="2037.8" cy="1989.9" rx="22.7" ry="22.7"/>
	<line class="st10" x1="1975.4" y1="2060.9" x2="2030" y2="2115"/>
	<line class="st10" x1="1998" y1="2041" x2="2050.5" y2="2093.9"/>
	<circle class="st9" cx="1941.6" cy="1990.5" r="9.2"/>
	<circle class="st9" cx="1994.4" cy="1949.1" r="9.2"/>
	<circle class="st9" cx="1901.3" cy="1993.5" r="11.7"/>
	<path class="st11" d="M1896.9,1956.7c1.1-13.4,39.8-29.8,48.1-4"/>
	
		<ellipse transform="matrix(0.9057 -0.424 0.424 0.9057 -683.95 985.1031)" class="st2" cx="1871.9" cy="2029.6" rx="10.1" ry="8.4"/>
	<path class="st2" d="M1965.6,1943.1c3.7-1.7,8.4,0.3,10.4,4.4c2,4.2,0.5,9-3.2,10.8s-8.4-0.3-10.4-4.4
		C1960.5,1949.7,1961.9,1944.8,1965.6,1943.1z"/>
</g>
<g>
	<path class="st2" d="M1608.3,1404.4c-19.1-20.8-42.9-37.4-70.4-44.8c-12.5-3.3-25.8-4.7-38.7-3.1c-12.5,1.5-24.3,5.5-36.3,9.2
		c-10.5,3.3-21.8,6.7-32.9,5.4c-12.1-1.4-21.4-9.4-32.1-14.5c-12.8-6.1-26.5-6.3-38.9,1c-11.7,7-20.2,18.8-26.5,30.7
		c-6.6,12.5-11.9,26.5-22.4,36.4c-9.5,8.9-22.3,9.2-34.5,9c-14-0.2-27.4-0.3-40.9,4.2c-13.4,4.4-25.6,10.9-36.4,20.2
		c-17.7,15.2-28.6,36.7-31.4,59.6c-31.2,39.2-21.4,97.5,8.1,134.9c19.1,24.2,44.4,42.2,71.3,57c25.5,14,53.9,23.9,76.8,42.1
		c11.5,9.1,20.1,19.9,26.8,32.9c7,13.5,12.9,27.5,23,39c17.8,20.2,45.1,21.7,69.7,15.8c12.3-3,24-7.7,35.6-12.7
		c15.3-6.6,30.5-13.8,44.6-22.7c24.2-15.3,45.8-36.3,56.5-63.4c4.9-12.2,7.7-25.1,7.3-38.2c-0.4-12.2-4.7-23.9-4.6-36
		c0-4.7,1.2-9.2,4.6-13c4-4.5,9.8-6.6,15.4-8.3c13.5-4.1,27.5-5.9,39.8-13.4c22.7-13.8,35.8-40.2,38.5-66.1c3-29.4-6.8-58-20-83.9
		C1646.2,1454.2,1629.1,1427.1,1608.3,1404.4z M1609.4,1613.2c-3.4-0.8-3.8-5.9-0.3-6.9c2-0.5,4.9-2.6,7.2-4
		c2.8-1.7,4.8-3.7,6.7-6.3c4.4-5.7,14.3,1.2,10.4,7.2c-2.7,4.1-6.3,7.5-10.8,9.5C1618,1614.9,1614.2,1614.3,1609.4,1613.2z
		 M1569.6,1520.3c2.6,40.9-15.9,79.4-38.2,112.5c-12.7,18.8-27.4,36.9-46.8,49.1c-17.8,11.2-38.5,16.2-59.3,17.7
		c-38.4,2.6-79.7-4.6-112.5-25.5c-16.3-10.4-30.5-24-40.7-40.5c-4.1-6.6-7.5-13.7-10.2-21c-11.4-23.4-13.6-52.2-0.8-75.4
		c15-27.4,46.7-42.4,77.1-43c28.4-0.6,55.5,9.7,79.7,23.9c3.5-29.1,14.2-59.8,38.2-77.7c21.2-15.8,51.5-19.3,72.4-1
		c5.8,5.1,10.5,11.2,14.1,17.9c1.3,1.3,2.5,2.7,3.7,4C1560.6,1477.8,1568.2,1498.5,1569.6,1520.3z M1446.2,1815.3
		c-4.2,0-8.6-0.1-12.8-1.1c-2-0.5-3.9-1.2-5.8-2c-2-0.8-3.5-2.2-5.4-3.2c-2.8-1.5-2.1-6.6,1.4-6.4s7.3-0.6,10.9-0.5
		c3.7,0.1,7.5,0.3,11.2,0.1c6.9-0.3,13.7-1.7,20.3-3.9c14.7-5.1,27.2-15.7,35.2-29.1c4.4-7.4,16.4-1.3,12,6.2
		c-9.5,16.3-24.4,28.9-42.2,35.4C1463.1,1813.7,1454.7,1815.2,1446.2,1815.3z M1531.6,1752.5c-6.3,4.3-12.5-5.7-6.3-9.9
		C1531.6,1738.3,1537.9,1748.2,1531.6,1752.5z M1379.5,1389.3c0-0.1-0.1-0.1-0.1-0.2c-1.9-2.9,0.2-6.3,3.3-6.9
		c1.8-0.7,3.9-0.3,5.7,0.2c1.8,0.6,3.9,1.1,5.5,2c3.2,1.8,4.4,5.5,2.8,8.9s-5.7,4.1-8.9,2.8c-1.6-0.6-3.1-1.8-4.5-2.8
		C1381.6,1392.3,1380.2,1391,1379.5,1389.3z M1173.7,1601.8c-0.8-3.6-1.1-7.2-0.6-10.9c0.2-1.6,0.7-3,1.3-4.5
		c0.7-1.6,1.9-2.6,2.7-3.9c1.8-2.9,6.9-2.4,6.9,1.5c0,2.3,1,5.1,1.2,7.5c0.3,2.2,0.6,4.3,1.2,6.4c1.2,4.5,3.6,7.9,6.7,11.4
		c5.9,6.4-2.4,16.1-9.2,10.2C1178.8,1615.1,1175.2,1608.3,1173.7,1601.8z"/>
	<path class="st2" d="M1351.9,1674.5c-0.1-0.1-0.3-0.3-0.4-0.4c-0.9-0.2-1.7-0.4-2.5-0.6C1349.9,1673.9,1350.9,1674.2,1351.9,1674.5
		z"/>
	<path class="st2" d="M1510.6,1633.4c-4.3,5.3-8.7,10.5-13,15.8C1502.2,1644.2,1506.5,1638.9,1510.6,1633.4z"/>
	<path class="st1" d="M1193.1,1609.3c-3.1-3.4-5.5-6.8-6.7-11.4c-0.6-2.1-0.9-4.2-1.2-6.4c-0.3-2.4-1.3-5.2-1.2-7.5
		c0-3.9-5.1-4.4-6.9-1.5c-0.8,1.4-2.1,2.4-2.7,3.9s-1,2.9-1.3,4.5c-0.5,3.7-0.2,7.3,0.6,10.9c1.5,6.5,5.1,13.3,10.2,17.7
		C1190.7,1625.3,1199,1615.7,1193.1,1609.3z"/>
	<path class="st1" d="M1513.2,1775.4c4.4-7.5-7.6-13.6-12-6.2c-8,13.4-20.5,24-35.2,29.1c-6.5,2.3-13.4,3.6-20.3,3.9
		c-3.7,0.2-7.5,0-11.2-0.1c-3.6-0.1-7.4,0.7-10.9,0.5s-4.2,4.9-1.4,6.4c1.9,1,3.4,2.4,5.4,3.2c1.9,0.8,3.8,1.5,5.8,2
		c4.1,1,8.5,1.1,12.8,1.1c8.4-0.1,16.9-1.6,24.8-4.5C1488.8,1804.3,1503.7,1791.7,1513.2,1775.4z"/>
	<path class="st1" d="M1525.3,1742.6c-6.2,4.3,0,14.2,6.3,9.9C1537.9,1748.2,1531.6,1738.3,1525.3,1742.6z"/>
	<path class="st1" d="M1633.5,1603.3c3.9-6-6-13-10.4-7.2c-2,2.6-4,4.5-6.7,6.3c-2.4,1.4-5.3,3.4-7.2,4c-3.5,1-3.1,6.1,0.3,6.9
		c4.8,1.1,8.6,1.7,13.3-0.4C1627.3,1610.8,1630.8,1607.4,1633.5,1603.3z"/>
	<path class="st1" d="M1387.8,1396.2c3.2,1.3,7.3,0.6,8.9-2.8s0.4-7.1-2.8-8.9c-1.6-0.9-3.7-1.4-5.5-2s-3.9-0.9-5.7-0.2
		c-3.1,0.5-5.2,4-3.3,6.9c0,0.1,0.1,0.1,0.1,0.2c0.7,1.7,2.1,3,3.8,4.1C1384.6,1394.4,1386.2,1395.6,1387.8,1396.2z"/>
	<path class="st1" d="M1542.6,1457.2c10.4,19.2,12.3,43.5,9.9,64.5c-7.1,63.1-54.3,110.1-97.9,151.8c-2.1,2-4.8,2.9-7.5,2.5
		c-17.7,2.8-36.2,3.1-54,2.6c-14-0.4-28-1.6-41.7-4.4c0.1,0.1,0.3,0.3,0.4,0.4c-1-0.3-2-0.6-3-1c-3.7-0.8-7.3-1.7-10.9-2.8
		c-29.2-8.6-57.6-25.6-73.1-52.7c-1-1.8-2-3.7-2.9-5.6c2.7,7.3,6.1,14.4,10.2,21c10.2,16.5,24.4,30.1,40.7,40.5
		c32.8,20.9,74.1,28.1,112.5,25.5c20.8-1.4,41.5-6.5,59.3-17.7c19.5-12.2,34.1-30.3,46.8-49.1c22.3-33.1,40.8-71.6,38.2-112.5
		c-1.4-21.7-9-42.5-23.2-59.1C1545.2,1459.8,1543.9,1458.5,1542.6,1457.2z M1497.6,1649.2c4.3-5.3,8.7-10.5,13-15.8
		C1506.5,1638.9,1502.2,1644.2,1497.6,1649.2z"/>
	<path class="st12" d="M1338,1670.8c3.6,1.1,7.3,2,10.9,2.8c0.8,0.2,1.7,0.4,2.5,0.6c13.7,2.8,27.8,4.1,41.7,4.4
		c17.9,0.5,36.3,0.2,54-2.6c2.6,0.4,5.4-0.5,7.5-2.5c43.6-41.7,90.8-88.7,97.9-151.8c2.3-21,0.4-45.3-9.9-64.5
		c-3.6-6.7-8.2-12.8-14.1-17.9c-20.9-18.3-51.2-14.8-72.4,1c-23.9,17.9-34.7,48.6-38.2,77.7c-24.2-14.3-51.4-24.5-79.7-23.9
		c-30.5,0.6-62.1,15.6-77.1,43c-12.8,23.3-10.6,52,0.8,75.4c0.9,1.9,1.9,3.8,2.9,5.6C1280.3,1645.3,1308.7,1662.2,1338,1670.8z
		 M1322.2,1531.1c4-0.6,7.6,3.5,7.7,7.2c0.2,4.4-3.2,7.1-7.2,7.7c-14,2.2-26.2,11.1-32.2,24c-2.7,5.9-3.9,12.5-3.8,19
		c0.1,3.4,0.5,6.7,1.3,10c0.8,3.2,2.4,6.3,3,9.6c0.5,2.5-0.1,5.1-2.4,6.5c-2,1.3-5.3,1.2-6.9-0.6c-5.9-6.5-7.9-17-8.2-25.6
		c-0.3-8.6,1.4-17.3,4.9-25.1C1286.3,1546.4,1303.5,1534.1,1322.2,1531.1z M1488.7,1459.4c9.5-1.9,19,0.9,26.4,7
		c6.5,5.4-2.4,15.1-8.8,9.7c-4.2-3.6-9.8-5.3-15.3-4.4c-3.3,0.5-6.2,2.1-8.9,3.9c-2.6,1.7-5.4,3.2-7.9,5c-1.6,1.2-4.4-0.2-4.3-2.2
		c0.4-5.1,1.6-8.9,5.6-12.4C1479.2,1462.7,1483.8,1460.4,1488.7,1459.4z M1362,1533c-6,4.1-12-5.4-6-9.5S1368,1528.9,1362,1533z"/>
	<path class="st2" d="M1273.6,1589c0.3,8.6,2.3,19,8.2,25.6c1.7,1.8,4.9,1.8,6.9,0.6c2.3-1.4,2.9-4,2.4-6.5c-0.7-3.3-2.2-6.3-3-9.6
		c-0.8-3.3-1.2-6.6-1.3-10c-0.2-6.5,1-13.1,3.8-19c6-12.9,18.2-21.8,32.2-24c4-0.6,7.3-3.4,7.2-7.7c-0.1-3.7-3.7-7.8-7.7-7.2
		c-18.7,2.9-35.9,15.3-43.6,32.7C1275,1571.7,1273.3,1580.4,1273.6,1589z"/>
	<path class="st2" d="M1356,1523.5c-6,4.1,0,13.6,6,9.5S1362,1519.4,1356,1523.5z"/>
	<path class="st2" d="M1469.9,1478.4c-0.2,2.1,2.7,3.4,4.3,2.2c2.5-1.8,5.3-3.3,7.9-5c2.7-1.8,5.6-3.4,8.9-3.9
		c5.5-0.9,11.1,0.9,15.3,4.4c6.4,5.5,15.2-4.3,8.8-9.7c-7.4-6.2-16.8-8.9-26.4-7c-4.9,1-9.5,3.2-13.2,6.5
		C1471.5,1469.5,1470.3,1473.2,1469.9,1478.4z"/>
</g>
<g>
	<path class="st13" d="M2079,19.5c0.3-4.3,0.5-8.6,0.9-12.9c-0.2,0.1-0.3,0.2-0.5,0.2C2079.2,11,2079.1,15.3,2079,19.5
		C2078.9,19.5,2078.9,19.5,2079,19.5z"/>
	<path class="st2" d="M1605.1,431.9c-38.2-7.1-76.4-14-114.7-21.2c-12.8-2.5-26.1-4.9-38.4-9.2c0.5,4.4,0.9,8.7,1.5,13.1
		c0.5,4.3,1.1,8.5,1.7,12.8c0.2,0.5,0.2,1.1,0.4,1.7c1.8,7.8,3.1,15.7,5,23.6c0.6,2.6,1.3,5.2,2,7.8c22.9,12.8,46,25.5,68.9,38.3
		c10.4,5.9,21.1,11.2,32,16.2c4.3,2,8.7,3.8,13,5.8c0.2,0.1,7.1,2.8,10.9,4.4c1.7,0.6,3.3,1.2,4.1,1.5c5.5,2,11.1,4.1,16.7,6.1
		c8.9,3.1,17.9,6.2,26.7,9.3c45.6,15.8,89.9,34.3,134.7,52.5c1.3,0.5,2.7,1.1,4,1.6c0.2,0.1,0.4,0.2,0.7,0.2
		c5.5,1.9,11,4.1,16.5,6.1c8.7,3.1,17.6,6,26.5,8.6c17.6,5.2,37.1,6.3,54.3,11.5c1.5,0.1,2.9,0.2,4.4,0.2c5.5,0.1,11,0.1,16.5-0.2
		c6.7-0.3,13.4-0.8,20.1-1.7c13.8-3.1,27.4-6.5,40.8-11c5.5-1.9,11-3.8,16.5-6.1c1.5-0.6,2.9-1.1,4.3-1.8
		c24.9-13.2,49.2-26.1,72.4-42.1c6.6-4.6,13-9.3,19.5-14.1c0.9-0.7,1.9-1.5,2.8-2.1c9.8-10.2,22.3-18.6,32.6-28.1
		c5.6-5.2,11.2-10.4,16.6-15.7c-14.6-1.1-28.9-2.7-42.2-3.7C1917.7,485.2,1760.9,460.4,1605.1,431.9z"/>
	<path class="st0" d="M1854.2,250.9c-0.3,0.1-0.6,0.2-0.9,0.2c0.6,0.2,1.2,0.4,1.8,0.5C1854.8,251.4,1854.5,251.1,1854.2,250.9z"/>
	<path class="st0" d="M1488.3,379.4c-0.3-0.1-0.6-0.1-0.9-0.2c0.5,0.2,1.1,0.3,1.6,0.5C1488.7,379.7,1488.5,379.5,1488.3,379.4z"/>
	<path class="st0" d="M2146.5,424.2c-0.1,0.5-0.2,0.8-0.2,1.3c0.4-0.5,0.8-0.9,1.2-1.4C2147.1,424,2146.8,424.1,2146.5,424.2z"/>
	<path class="st0" d="M2078.9,19.5L2078.9,19.5C2079,19.5,2079,19.5,2078.9,19.5L2078.9,19.5L2078.9,19.5z"/>
	<path class="st5" d="M1431.8,162.5c-9.3,30.7-19.2,61.4-22.3,93.3c-0.5,4.8-0.6,9.7-0.6,14.5c8.5-19.8,20.9-37.7,34.8-51
		c2.2-2.1,6.6,0,5.4,3.1c-6.7,18.3-17.2,34.9-25.3,52.5c1.5,1.2,2.4,3.3,1.1,5.6c-18,31.6,4.3,69.3,32.3,85.7
		c9.5,5.5,19.7,9.7,30.1,13c0.3,0.1,0.6,0.1,0.9,0.2c0.2,0.2,0.5,0.2,0.8,0.4c20.2,6.1,41.5,9.2,61.6,13
		c132.4,24.3,265.3,44.8,398.8,61.9c51.6,6.6,111.1,19.1,161.7,1c12.7-8,24.4-18,34.3-29.2c0.3-0.3,0.5-0.6,0.8-1
		c0.1-0.5,0.2-0.8,0.2-1.3c0.3,0,0.6-0.1,1-0.2c21.1-24.5,35-54.6,41.6-86.3c0.5-2.2,3.8-1.6,3.8,0.5c0.2,26.4-7.2,51.5-20.3,73.8
		c9.5-10.9,17.9-22.6,25.8-34.9c3.4-9.7,6.7-19.4,10-29c0.9-4.9,1.9-9.8,2.9-14.7c0.5-2.5,1.9-4.1,3.8-5c5.3-15.9,10.5-31.9,15.6-48
		l0.7-185.3c-11.3,27.1-25.7,53.3-38.4,79.6c-13.3,27.4-26.3,55.2-39.9,82.5c-11.1,22.1-24.2,44.1-45.4,58.2
		c-17.2,11.4-39,16.6-58.7,9.3c-13.1-4.9-24.4-15.1-29.4-28c-4.5,4.1-9.3,7.9-14.4,10.8c-27.7,16.5-62,15.8-93,6.3
		c-0.5,1.1-1.1,2.1-1.6,3.1c-11,20.1-24.8,40.5-41.8,55.8c-16.1,14.5-35.6,25.1-57.3,27.9c-9.4,1.3-22.6,1.6-33.3-1.9
		c-17.9,3.5-29.3-4.8-33.5-16.6c-0.5,0-1.1-0.1-1.7-0.3c-0.5-0.2-0.9-0.5-1.3-0.7c-1.9,0.2-4-0.6-4.5-2.6
		c-12.2-8.4-18.9-24.8-21.2-40.1c-3.7-12.3-4.8-25.5-3.4-35.9c0.4-2.7,0.9-5.4,1.6-8.3c-11.3,1.6-22.8,1.8-34,0.3
		c-10.2-1.4-21.9-4.4-33.5-9.2c-3.6-0.9-7.1-2-10.7-3.5c-9.9-3.9-19.3-10.6-26-19c-19.4-12.9-32.9-33.7-39.5-56
		c-5,1.7-10.8,1.5-17.5-1.1c-13.6-5.4-19.5-20.1-23.8-33c-6-18-9.6-36.9-11-55.9c-3-37.7,3.1-76.5,18.1-111.3
		c5.1-11.8,14.6-30.9,27.1-42.2c1.1-1.8,2.4-3.5,3.8-5.1l-69.3-0.2c-12.3,35.2-24.2,71.4-35.8,107.3
		C1451.7,98,1441.6,130.1,1431.8,162.5z M1973.9,365.2c1.9-0.1,3.8-0.1,5.7,0c11.5-7.8,28.9-9,41.8-7.1
		c18.3,2.7,33.9,15.2,43.5,30.4c3.8,5.9-2.5,11.3-7.9,10.1c-1,0.8-2.3,1.5-3.7,1.7c0.5,0.7,0.9,1.5,1.3,2.2c3.8,7-3.9,14.8-11,10.8
		c-12.5-7.1-21.6-17.4-35.6-22.5c-10.7-3.9-25.9-3-34.8-9.8c-1.5-1.1-2.3-3.1-1.5-4.8c-0.4-0.1-0.8-0.2-1.1-0.2
		C1963.3,375,1967.9,363.2,1973.9,365.2z M1916.1,332.6c1.3-0.7,2.7-1.2,4.1-1.7c0.5-0.2,1-0.4,1.5-0.5c0.8-0.3,1.1-0.3,0.2,0.1
		c2.8-1.1,5.5-1.6,8.3,0c1.8,1.1,3.2,2.9,3.8,4.9c1.4,5.1-2.6,10.6-8,10.4c-2.1-0.1-4.2,0.4-6.4,0.2c-3.3-0.4-5.8-2-6.9-5.2
		C1911.9,337.7,1913.5,334.1,1916.1,332.6z M1698.2,319.7c2.2,3.4,3.7,7.5,5.3,11.3c1.8,4,0.8,8.5-3.5,10.3
		c-4.4,1.8-8.2-0.7-9.8-4.7c-1.5-3.8-3.5-7.7-4.4-11.6C1684.2,317.3,1694,313.4,1698.2,319.7z M1537.1,287.5
		c-0.5-3.1,2.8-5.5,5.2-4.1c2.1-0.4,4.1,2.2,3.1,4.4c0,0.1-0.1,0.2-0.1,0.2c0.5,0.9,0.9,1.8,1.4,2.8c-0.2-1.9-0.2-3.9-0.1-5.8
		c0.4-4.5,5.7-7.3,9.1-3.8c7.4,7.3,10,18,13.6,27.5c3.4,8.8,8.2,18.1,9.8,27.5c0.9,1.5,1,3,0.5,4.4v0.1c0.3,6.4-5.9,8.3-10.6,6.2
		c-28-2.5-49.2-34.3-31.8-58.6C1537.2,288.1,1537.1,287.8,1537.1,287.5z"/>
	<path class="st5" d="M2134.6-2.9c-0.2,7.8-0.5,15.9-0.9,24.1c22.3-17.5,54.4-22.4,67.8,9.7c1.1,2.8,2.1,5.7,2.9,8.6
		c5.4-1.6,11.5-1.1,18.2,2.8c3.9,2.3,7,5.1,9.3,8.2l0.2-89.4l-76.2-0.3c-7.1,1.5-14.3,2.5-21.5,2.5
		C2134.7-25.2,2134.7-14,2134.6-2.9z"/>
	<path class="st5" d="M1705.9,264.1c-1.1,0.5-2.1,0.8-3.3,1.3c-1.1,0.4-2.1,0.8-3.1,1.1c2.8-0.8,5.6-1.5,8.4-2.4
		C1707.1,264.2,1706.5,264.1,1705.9,264.1z"/>
	<path class="st5" d="M1543.9,316.7c1.1,3.2,2.8,6.2,4.9,8.8C1547.1,322.5,1545.6,319.6,1543.9,316.7z"/>
	<path class="st5" d="M1579.6-28c0.1,0.2,0.1,0.2,0.2,0.4c0.1-0.2,0.2-0.4,0.2-0.5C1579.8-28.2,1579.7-28.1,1579.6-28z"/>
	<path class="st3" d="M1577.1,344.1c-0.8,1.8-2.5,3.1-5,3.1c-1,0-2.1-0.1-3.1-0.2c4.7,2,10.9,0.2,10.6-6.2v-0.1
		C1579.2,342,1578.3,343.2,1577.1,344.1z"/>
	<path class="st3" d="M1578.1,335c0.5,0.5,0.8,0.8,1.1,1.4c-1.6-9.4-6.4-18.7-9.8-27.5c-3.7-9.4-6.3-20.2-13.6-27.5
		c-3.5-3.4-8.7-0.7-9.1,3.8c-0.2,2-0.2,3.9,0.1,5.8c3.4,6.8,6.5,13.7,10.6,20.3C1563.2,320.3,1570.1,327.5,1578.1,335z"/>
	<path class="st3" d="M2049,399.6c-24.9-13.1-49.5-18.7-76.9-23.2c-0.8,1.7-0.1,3.7,1.5,4.8c8.9,6.7,24.1,5.9,34.8,9.8
		c13.9,5.1,23,15.5,35.6,22.5c7.1,3.9,14.6-3.8,11-10.8c-0.4-0.8-0.8-1.5-1.3-2.2C2052,400.7,2050.5,400.4,2049,399.6z"/>
	<path class="st3" d="M1738.8,272.8c-6.1,1.8-12.2,3.8-18.4,5.8c-23.8,7.7-49.2,13-73.6,6.8c11.6,4.8,23.3,7.8,33.5,9.2
		c11.3,1.5,22.8,1.2,34-0.3c-0.7,2.8-1.3,5.7-1.6,8.3c-1.5,10.3-0.3,23.5,3.4,35.9c-0.7-4.6-1-9-0.8-13.3
		C1715.6,304.9,1724.2,286.5,1738.8,272.8z"/>
	<path class="st3" d="M2222.3,42.4c-6.7-3.9-12.8-4.4-18.2-2.8c4.4,17.1,2.5,35.4,0.2,52.7c-3.1,23.5-9,46.6-17,68.9
		c-16.5,45.4-42.5,87.4-76,122.3c-13.2,13.7-29.5,31.8-50.2,32c-14,0.2-29-8.9-28.4-24.1c0.1-1.2,0.4-2.1,1-2.9
		c-0.7-1.8-1.3-3.8-1.8-5.6c19.5-23.5,31.9-55.6,36.8-84.1c0.8-5.1,1.5-10.2,1.9-15.1c0.2-2.1-3.1-3.1-4.1-1.1
		c-11.7,24.4-18,51-32.8,74.2c-4.4,6.9-9.4,12.8-14.6,18.1c-3.9,3.6-8,7.1-12.5,10.2c-13.3,9.6-29.5,16.3-46.1,19
		c-2.5,1.6-5.1,1.8-7.4,1c-4.6,0.5-9.2,0.5-13.7,0.3c-10.3,0.8-19.5-1.5-27.9-5.7c-0.2-0.1-0.3-0.2-0.5-0.2
		c-1.1,0.3-2.2,0.3-3.5-0.2c-14.3-4.8-25.9-15.6-39.5-22.1c-3-1.5-6-2.7-9-3.9c-0.5-0.6-1-1.2-1.5-1.8c-14-15.9-37.9-27.5-59-21.4
		c-0.5,0.2-0.7,0.5-0.8,0.8c-0.3,0.8-0.1,1.8,0.8,1.9c19.8,3.4,38.2,7.7,50.4,25.3c4.8,6.8,8.1,14.7,9.9,22.8
		c1.3,5.8,0.7,11.8,1.1,17.6c-0.7,5.4-1,10.8-1.7,16.2c-6.3,12.2-16.7,23-26.1,31.7c-14.5,13.4-33.4,27.8-53.1,32
		c-0.3,0.1-0.6,0.1-0.9,0.2c10.6,3.6,23.9,3.1,33.3,1.9c21.7-2.9,41.2-13.4,57.3-27.9c17.1-15.4,30.9-35.7,41.8-55.8
		c0.5-1,1.1-2.1,1.6-3.1c31.2,9.5,65.4,10.2,93-6.3c5-3,9.8-6.7,14.4-10.8c4.9,12.9,16.2,23.1,29.4,28c19.8,7.4,41.6,2.2,58.7-9.3
		c21.2-14.1,34.3-35.9,45.4-58.2c13.6-27.3,26.7-55,39.9-82.5c12.7-26.4,27.1-52.7,38.4-79.6l0.2-44.4
		C2229.3,47.6,2226.2,44.8,2222.3,42.4z"/>
	<path class="st3" d="M1614.8-28.4c-7,11.3-9.7,25.4-13.5,37.6c-5.4,17.6-12.3,33.8-11.7,52.4c0,0.8,1.1,1.1,1.5,0.4
		c7.5-15.6,9.4-32.4,14.6-48.5c1.5-4.4,3.2-8.9,5.2-13.3c2.3-5.5,4.8-11.1,6.8-16.7c0.4-1.1,0.8-2.4,1.1-3.5
		c0.1,0.2,0.2,0.4,0.2,0.5c1.8-5.4,3.8-10.6,5.9-15.9c0.8-2,1.6-4.2,2.5-5.7l-25.4-0.1C1607.1-38.8,1611.4-33.8,1614.8-28.4z"/>
	<path class="st3" d="M1570.5-41.3h-3.3c-1.4,1.5-2.6,3.3-3.8,5.1C1565.7-38.1,1568-39.7,1570.5-41.3z"/>
	<path class="st3" d="M1690.3,336.6c1.6,4,5.4,6.5,9.8,4.7c4.3-1.8,5.3-6.4,3.5-10.3c-1.7-3.8-3.1-7.9-5.3-11.3
		c-4.2-6.4-14.1-2.5-12.3,5.1C1686.8,328.9,1688.8,332.8,1690.3,336.6z"/>
	<path class="st3" d="M1919.7,345.9c2.1,0.2,4.2-0.2,6.4-0.2c5.4,0.2,9.3-5.4,8-10.4c-0.5-2-2-3.8-3.8-4.9c-2.8-1.6-5.5-1.1-8.3,0
		c1-0.5,0.7-0.4-0.2-0.1c-0.5,0.2-1,0.3-1.5,0.5c-1.4,0.5-2.8,1-4.1,1.7c-2.7,1.5-4.2,5.1-3.3,8
		C1913.8,343.9,1916.4,345.5,1919.7,345.9z"/>
	<path class="st3" d="M2211.4,333.4c-0.9,4.9-1.8,9.8-2.9,14.7c-3.3,9.7-6.7,19.5-10,29c-8,12.2-16.3,24-25.8,34.9
		c13.1-22.3,20.4-47.4,20.3-73.8c0-2.1-3.4-2.7-3.8-0.5c-6.6,31.7-20.5,61.8-41.6,86.3c-0.4,0.5-0.8,0.9-1.2,1.4
		c-0.3,0.3-0.5,0.6-0.8,1c-10.1,11.3-21.6,21.2-34.3,29.2c-50.7,18-110.1,5.5-161.7-1c-133.4-17.1-266.5-37.6-398.8-61.9
		c-20.2-3.7-41.5-6.8-61.6-13c-0.5-0.2-1.1-0.3-1.6-0.5c-10.5-3.3-20.7-7.4-30.1-13c-28.1-16.4-50.2-54.1-32.3-85.7
		c1.3-2.3,0.5-4.4-1.1-5.6c8-17.6,18.5-34.2,25.3-52.5c1.1-3.1-3.2-5.3-5.4-3.1c-13.9,13.3-26.3,31.3-34.8,51
		c-15,34.8-17.9,75,4.9,105.2c10,13.2,23.5,20.9,38.3,26.1c12.3,4.3,25.6,6.7,38.4,9.2c38.2,7.1,76.4,14.2,114.7,21.2
		c155.8,28.6,312.5,53.4,470.7,64.3c13.3,0.9,27.6,2.6,42.2,3.7c16,1.1,32.2,1.5,47.5-0.9c1.8,0.2,3.6-0.2,5.3-0.9
		c6.9-1.4,13.6-3.3,19.9-6.1c10.5-4.6,19.8-12,26.1-21c2.1-0.8,3.8-2.5,4.7-5.4c0.8-2.8,1.6-5.7,2.4-8.7c0.4-1.1,0.7-2.4,1-3.5
		c1.7-6.2,3.4-12.4,5.1-18.6l0.6-154.1c-5.1,16-10.3,32-15.6,48C2213.3,329.4,2211.8,331,2211.4,333.4z"/>
	<path class="st14" d="M1936.3-34.1c0.3-1.1,0.6-2.3,0.8-3.4c-1.1,1.8-2.2,3.7-3.4,5.5c0.2,0.1,0.2,0.2,0.4,0.3
		C1934.8-32.5,1935.6-33.4,1936.3-34.1z"/>
	<path class="st14" d="M1619-19.4c0,0.1,0.1,0.2,0.1,0.2c-0.5,0.9-1,1.8-1.5,2.8c-2,5.6-4.4,11.2-6.8,16.7c-2,6-3.8,12-5.4,17.2
		c-6.8,22-11.3,44.5-14.1,67.3c-0.2,1.9-0.4,3.8-0.6,5.7c-4.1,17-6.7,34.6-7.7,52c-0.9,14.6-1.8,38.2,5.5,54.6
		c-0.4,0.6-0.9,1.2-1.5,1.6c0.2,0.8,0.5,1.5,0.7,2.2c9,27.4,30.7,53.2,61.1,55.3c29.7,2.1,58.7-15.2,87.8-26.2
		c-12.3-3.4-25.4-4.8-39.1-5.1c-0.5,0-0.8-0.3-1-0.7c-4,1.3-8,2.6-12.2,3.8c-2.6,0.8-4-2.9-1.8-4.3c23.2-14.4,55.4-18.6,82.2-17.9
		c20.7,0.5,40.5,4.4,59.3,11.8c13.9,2.3,27.3,4.2,42,1.8c6.1-1.1,12.2-2.5,18.1-4.4c14.6-20.5,27.6-41.7,38.6-64.2
		c-14.7-11.8-22.4-32.6-11.7-49.4c-0.9-2.1,0.1-4.6,2.1-5.8c1-2.1,3.1-4,5.7-4.3c9.9-1.2,18.2,2,24.8,7.6
		c5.4-16.3,10-32.9,13.7-49.6c-0.4-0.5-0.8-1.1-1-1.5c-1.4-2.5-1.1-5.8,1-7.9c0.7-0.7,1.5-1.1,2.2-1.5c3.9-19.2,7-38.5,9.1-57.9
		c0.8-6.8,1.5-13.3,2-20.2l-12.4-0.1c0.8,11.5-3.1,25.3-8.5,33.4c-8.4,12.7-25.8,23.8-41.8,22.8c-2,1-4.1,1.9-6.2,2.8
		c-3.1,1.3-5.3-0.8-5.8-3.4c-0.8-0.5-1.5-1.1-2.1-1.8c-2-1.2-3.3-3.6-2.5-6.1c0.4-1.1,0.8-2,1.1-3.1c-4.4-15.8-0.6-31.8,8.3-44.8
		l-55.5-0.2c-0.1,0-0.2,0.7-0.3,1.1c-11.2,50.3-21.5,99.1-26.4,150.5c-0.3,3.8-2.6,6.2-5.4,7.3c-0.1,0.1-0.1,0.1-0.2,0.2
		c-9.3,7.3-20.3,8.2-30.2,0.6c-11.1-8.5-11.9-22.9-11-35.8c2.3-34,9.4-68,19.6-100.4c2.5-8,5.4-16.2,8.4-23.9h-5.4
		c-3.4,12.3-9.3,23.4-16.8,32c-3,3.5-6.9,3.4-9.9,1.5c0.1,3.1,0.3,6.1,1.4,8.2c5.2,10.7-13.9,10.4-10.3,1.2
		c1.8-4.8,0.5-11.6,0.4-16.7c0-1.3,0-2.6,0-3.8c-2.6-1.3-4.5-3.8-4.1-6.6c-3.6-5.1-6.4-10.7-8.5-16.1l-119.1-0.3
		c-0.8,1.5-1.6,3.8-2.5,5.7C1622.8-30.1,1620.9-24.9,1619-19.4z M1863.6,78.1c-8.4,0-8.4-15.5,0.1-15.5
		C1874.4,62.7,1874.4,78.2,1863.6,78.1z M1874,154.9c-1.9,2.6-3.8,5.1-5.9,7.7c-2.4,2.9-7.2,2.7-10,0.6c-3-2.3-3.8-6.4-1.9-9.7
		c0.9-1.6,1.7-3.3,2.7-4.9c0.5-0.8,1.1-1.5,1.6-2.3c0.5-0.7,1-1.3,1.5-1.9c1.5-1.2,1.8-1.5,1.1-0.8c1.9-1.7,4.4-2.3,6.7-1.3
		c1.8,0.8,3.5,2.7,3.8,4.8C1875.2,149.3,1875.7,152.6,1874,154.9z M1621.1,180.4c-17.2-10-16.8-31.7-16.6-49.3
		c0.3-18.4-0.4-54.4,16-66.5c0.6-0.5,1.8-0.2,2.1,0.5c5.9,13.9-1.5,32.3-2.6,47.1c-1.1,14.3-5.7,45.5,8.8,54.6
		C1637.5,172.3,1629.7,185.4,1621.1,180.4z M1649.7,195.9c-3.4,2-7.2,0.6-9.4-2.5c-1.6-2.3-2.5-4.9-1.8-7.7c0.5-2,2.1-3.4,4.1-4
		c1.5-0.7,3.2-0.9,5.1-0.7c3.2,0.5,5.5,3.7,5.9,6.7C1654,191,1652.6,194.3,1649.7,195.9z M1712.2,132.6c-2,4.1-6.4,4.7-10,3.2
		c-0.5,0.1-1,0.2-1.5,0.2c-1.2,0.1-2.5-0.1-3.6-0.6c-1.3-0.5-2.5-1.2-3.6-2.2c-14.3-9.5-27.9-23.7-32.6-40.3
		c-0.6-2.2,0.5-4.4,2.1-5.7c0.4-3.8,4-7.7,7.8-7.3c1.7,0.2,3.4,0.5,5,0.9c0.5-1.1,1.5-2,2.9-2.5c11.7-4.5,25.1,5.4,31.2,14.9
		C1718,104.9,1718.4,120,1712.2,132.6z M1757.9,79.1c-2.5,3.1-7.2,3.1-10.2,0.8c-4.2-2.4-6.5-7-9.2-11c-3.1-4.4-6.4-8.9-7.4-14.3
		c-0.6-3.1,1.3-6,3.9-6.8c0.5-0.8,1.2-1.3,2.1-1.5c2.7-0.4,5.2-0.2,7.4,0.6c0.6-7.5,12.4-9.4,15.5-1.1c2.8,7.7,5.5,15.3,7.9,23.1
		C1770.1,76.3,1763.5,80.4,1757.9,79.1z M1773.9,148.3c1.3,1.3,2.1,3.3,2.1,5.1c0,2-0.8,3.7-2.1,5.1c-1.8,2.1-4.5,2.3-7.1,1.8
		c-0.9-0.2-1.8-0.6-2.7-1c-4.5-2-4.4-10,0.1-12c0.8-0.4,1.8-0.8,2.7-1C1769.4,146,1771.9,146.4,1773.9,148.3z M1691.7-15.5
		c0.3-1.8,1.2-3.4,2.7-4.4c2.8-2.1,7-2,9.5,0.5c1.8,1.8,3.3,3.9,4.9,6c1.3,1.7,2.1,3.2,2.2,5.3c0.1,2-0.9,3.9-2.2,5.3
		c-2.9,3.1-7.7,2.6-10.7-0.1c-1.7-1.5-3.3-2.8-5-4.3C1690.8-9.3,1690.6-12.8,1691.7-15.5z M1656.3,17c4.3,0,7.5,3.5,7.7,7.7
		c0.2,4.1-3.7,7.7-7.7,7.7c-4.3,0-7.5-3.5-7.7-7.7C1648.4,20.5,1652.3,17,1656.3,17z"/>
	<path class="st14" d="M2057.7,299c24.4,2.5,55-40.2,66.6-55.7c19.7-26.4,35.6-55.6,47.3-86.5c11.6-30.6,20.2-64.1,21.9-96.9
		c0.4-8.6-0.2-18.1-3.3-26c-0.8,0.2-1.8,0.2-2.7-0.1c-15-4.1-28.9,8.2-39.9,24.4c-0.3,2.5-0.6,5.1-1,7.6c3.2-1.5,7.5-0.2,8.7,3.9
		l0.2,0.6c0.4,0.8,0.6,1.7,0.8,2.7c0.2,1.6,0.4,3.3,0.5,4.9c0.4,4.2-3.8,7.4-7.6,7.6c-2.1,0.1-4.1-0.9-5.7-2.5
		c-5.8,29-15.2,57.5-25,84.1c-15.5,41.6-35.6,81.2-60,118.3c-6,0.6-12.6,0-15.3-2.5c-0.2-0.2-0.4-0.2-0.5,0
		c-0.2,0.2-0.3,0.3-0.5,0.5c0-0.2,0.1-0.3,0.1-0.6c0.1-1.1-1.8-1.1-1.8,0c0,0.7,0.1,0.9,0.5,1.5c0.1,0.1,0.2,0.1,0.2,0.1
		c-0.2,0.2-0.4,0.4-0.5,0.5c-0.6,0.6-0.9,1.5-0.9,2.4c0,0.2,0,0.5,0.1,0.7C2042.8,298.9,2050,300.9,2057.7,299z M2120.9,204.8
		c7.6-14.7,14.2-29.8,20.2-45.2c4.4-11.4,7.3-22.1,15-31.7c0.4-0.5,1.1-0.2,1.3,0.3c5.7,27.1-12.6,60-24.5,83.7
		C2128.9,219.9,2116.9,212.8,2120.9,204.8z M2115.1,224.4c4,0,7,3.3,7.2,7.2s-3.4,7.2-7.2,7.2c-4,0-7-3.3-7.2-7.2
		C2107.7,227.7,2111.3,224.4,2115.1,224.4z"/>
	<path class="st15" d="M2033.8,288.6c1.4-1.8,3.8-2.3,5.9-1.4c-0.1-0.9,0.3-1.8,0.9-2.4c0.2-0.2,0.4-0.4,0.5-0.5
		c-0.1,0-0.2,0-0.2-0.1c-0.5-0.5-0.5-0.8-0.5-1.5c-0.1-1.1,1.8-1.1,1.8,0c0,0.3-0.1,0.5-0.1,0.6c0.2-0.2,0.3-0.3,0.5-0.5
		s0.4-0.2,0.5,0c2.7,2.5,9.4,3.1,15.3,2.5c24.4-37.1,44.6-76.6,60-118.3c9.8-26.5,19.2-55.1,25-84.1c-1.3-1.4-2.1-3.2-2-5.1
		c0.2-1.6,0.3-3.3,0.5-4.9c0.2-1,0.4-1.8,0.8-2.5c0.1-0.2,0.2-0.5,0.2-0.8c0.6-1.9,1.8-3.2,3.4-3.9c0.4-2.5,0.7-5.1,1-7.6
		c11.1-16.2,24.9-28.6,39.9-24.4c1,0.2,1.8,0.2,2.7,0.1c-3.6-9.2-10.6-16.2-23.1-16.8c-19.2-0.9-32.6,15.8-47.1,25.7
		c-1.8,1.2-3.8-0.8-3.2-2.7c-10,11.3-18.2,25.1-24.1,36.9c-2.1,16.7-4.8,33.4-8,50c-3.7,19.2-8,39-13.9,58.2
		c3.5-4.4,6.9-9.3,9.9-14.6c13.6-24.5,18.4-53.1,28.7-79c1.4-3.4,6.3-2.1,5.6,1.5c-5.8,30.2-17.6,57.6-32.9,84.4
		c-3.8,6.7-8.2,14.1-13.2,21.1c-4.8,28.5-17.2,60.5-36.8,84.1C2032.5,284.8,2033.2,286.8,2033.8,288.6z"/>
	<path class="st15" d="M1536.2,5.9c-15,34.8-21,73.6-18.1,111.3c1.5,18.9,5.1,37.8,11,55.9c4.3,12.9,10.3,27.6,23.8,33
		c6.7,2.6,12.5,2.8,17.5,1.1c6.7,22.3,20.1,43.1,39.5,56c-5.4-6.9-8.9-15.2-9.1-24.3c-0.1-1.6,2.3-2.2,3-0.8
		c21.2,40.7,58,38.7,95.4,28.7c1.1-0.4,2.1-0.8,3.1-1.1s2.1-0.8,3.3-1.3c0.6,0,1.3,0,1.9,0.1c21.2-6.3,42.2-14.3,60.2-17.8
		c26.8-5.1,54.9-3.8,81.2,3.5c1.3,0.4,2.7,0.8,4.1,1.1c0.3-0.1,0.6-0.1,0.9-0.2c-20.5-15.6-43.8-26.1-69.7-31.7
		c-17-3.7-33.3-4.5-50.6-3.4c-13.4,0.9-25.1,4.5-37.2,8.4c0.2,0.4,0.5,0.7,1,0.7c13.6,0.2,26.8,1.6,39.1,5.1
		c-29.1,11.1-58,28.3-87.8,26.2c-30.4-2.2-52.2-27.9-61.1-55.3c-0.2-0.8-0.5-1.5-0.7-2.2c-2.2,1.6-5.4,1.8-6.7-1.4
		c-1.7-4-3.1-8.1-4.2-12.4c-11.3-14.4-19.6-31.1-25.8-48.3c-5.4-15.3-14-38.9-7.7-54.8c0.6-1.5,2.8-2.1,3.7-0.5
		c7.7,13.5,7.3,32.3,12.5,47.4c2,5.8,4.4,11.3,7,16.7c-7-30.3-5.6-64.6-1.9-94.6c2.1-17.2,5.1-34.6,9.1-51.5
		c1.8-8,3.5-18.2,6.7-27.1c-0.1-0.2-0.1-0.2-0.2-0.4c0.1-0.1,0.2,0,0.3-0.1c1.8-5.1,4.3-10,7.6-13.1l-17-0.1c-2.5,1.5-4.8,3-7.1,5.1
		C1550.8-25,1541.4-6,1536.2,5.9z"/>
	<path class="st15" d="M1772.3,83.9c-0.8,12.8,0,27.2,11,35.8c9.8,7.5,20.8,6.5,30.2-0.7c0.1-0.1,0.1-0.1,0.2-0.2
		c-5.1,2-11.7-0.5-11.3-7.4c3.1-50.5,12.4-104.4,31.5-151.4c0.1-0.1,0.1-0.2,0.2-0.2l-33.7-0.2c-3,7.7-5.8,15.9-8.4,23.9
		C1781.7,15.8,1774.6,49.9,1772.3,83.9z"/>
	<path class="st16" d="M2012.3,159.5c-13,43.8-27.5,90.9-58.5,125.6c-22.1,2.8-44.8-3.8-63.4-23.7c-1.3-1.4-2.8-2.1-4.4-2.4
		c-2.8-2.8-5.5-5.6-8.4-8.3c-10.4-9.7-22-17.6-34.6-24.3c-6.3-3.3-12.6-6.2-19.1-8.7c-18.9-7.4-38.6-11.2-59.3-11.8
		c-26.8-0.7-59,3.5-82.2,17.9c-2.2,1.4-0.8,5.1,1.8,4.3c4.1-1.3,8.2-2.6,12.2-3.8c12.1-3.8,23.8-7.4,37.2-8.4
		c17.2-1.2,33.6-0.3,50.6,3.4c26.1,5.6,49.3,16,69.7,31.7c0.3,0.2,0.6,0.5,0.9,0.7c-0.6-0.2-1.2-0.4-1.8-0.5
		c-1.4-0.4-2.8-0.8-4.1-1.1c-26.4-7.4-54.3-8.7-81.2-3.5c-18,3.4-39,11.5-60.2,17.8c-2.8,0.8-5.6,1.6-8.4,2.4
		c-37.4,10-74.3,12-95.4-28.7c-0.8-1.5-3.1-0.8-3,0.8c0.2,9.2,3.7,17.4,9.1,24.3c6.7,8.5,16.1,15.1,26,19c3.5,1.4,7.1,2.5,10.7,3.5
		c24.4,6.1,49.7,0.8,73.6-6.8c6.2-2,12.3-3.9,18.4-5.8c2.1-2.1,4.4-4,6.9-5.8c16-11.8,34.2-16.8,52-16.1c0.2-0.4,0.5-0.8,0.8-0.8
		c21.2-6.1,45,5.4,59,21.4c0.5,0.6,1,1.2,1.5,1.8c3.1,1.2,6.1,2.5,9,3.9c13.6,6.6,25.2,17.3,39.5,22.1c1.2,0.4,2.5,0.4,3.5,0.2
		c0.2,0.1,0.3,0.2,0.5,0.2c8.4,4.2,17.7,6.5,27.9,5.7c4.5,0.2,9.1,0.1,13.7-0.3c2.4,0.8,5,0.7,7.4-1c16.6-2.8,32.7-9.4,46.1-19
		c4.4-3.2,8.5-6.6,12.5-10.2c5.3-5.4,10.3-11.3,14.6-18.1c14.8-23.1,20.9-49.7,32.8-74.2c0.9-1.9,4.3-1,4.1,1.1
		c-0.4,4.8-1,9.9-1.9,15.1c5-7.1,9.4-14.5,13.2-21.1c15.3-26.8,27.1-54.3,32.9-84.4c0.7-3.7-4.2-5-5.6-1.5
		c-10.3,25.8-15.2,54.4-28.7,79c-2.9,5.4-6.4,10.2-9.9,14.6c5.9-19.3,10.1-39.1,13.9-58.2c3.2-16.6,5.8-33.3,8-50
		c4.8-37,7.2-74.1,7.9-111.4c-0.2-1.7-0.2-3.3-0.3-4.8l-55.9-0.2c-0.5,16.1-1.5,32.8-2.9,49.2
		C2036.6,60.5,2026.8,110.6,2012.3,159.5z M2079.8,6.6c-0.3,4.3-0.5,8.6-0.9,12.9c0,0,0,0,0,0.1c0,0,0,0-0.1,0l0,0
		c0.2-4.2,0.3-8.4,0.5-12.7C2079.5,6.7,2079.7,6.7,2079.8,6.6z"/>
	<path class="st16" d="M1776.5-23.7c-0.1,5.1-5.4,6.7-8.8,5c0,0,0,0.1-0.1,0.1c0.2,1.5,0.3,3.1,0.5,4.6c0.2,2,0.2,4.5,0.2,7.1
		c3,1.8,6.9,2.1,9.9-1.5c7.4-8.7,13.3-19.8,16.8-32l-13.2-0.1c-1.4,4.6-3.1,9.4-5.1,13.5C1776.6-25.9,1776.6-24.8,1776.5-23.7z"/>
	<path class="st16" d="M1908.3,16.5c16,1,33.5-10.1,41.8-22.8c5.3-8.1,9.4-22,8.5-33.5h-9.7C1945.6-16,1930.3,5.3,1908.3,16.5z"/>
	<path class="st16" d="M1768,69.3c-2.4-7.8-5.1-15.5-7.9-23.1c-3.1-8.3-14.9-6.4-15.5,1.1c10.4,3.4,15.7,17.3,14.9,27.7
		c-0.2,1.8-0.7,3.2-1.5,4.3C1763.5,80.4,1770.1,76.3,1768,69.3z"/>
	<path class="st16" d="M1693.6,133.1c1,1,2.2,1.8,3.6,2.2c-0.2-0.1-0.5-0.2-0.7-0.4C1695.5,134.3,1694.6,133.7,1693.6,133.1z"/>
	<path class="st16" d="M1679,78.2c-1.4,0.5-2.4,1.5-2.9,2.5c21.8,5.4,36.3,26.9,31.7,49.7c-0.6,3.3-3.8,5.3-6.9,5.5
		c0.5,0,1-0.1,1.5-0.2c3.6,1.4,8,0.8,10-3.2c6.2-12.6,5.8-27.7-2-39.5C1704,83.6,1690.8,73.7,1679,78.2z"/>
	<path class="st16" d="M1961.1,52.9c1.8,1.1,3.8,1.8,5.7,2.4c4.1,1,9.7,1.1,13.3-1.3c2.8-1.9,4.4-5.1,3.4-8.4
		c-0.6-2.1-2.4-4.1-4.5-5c-0.4,2.9-2.5,5.3-5.5,6.4c-1.7,0.6-3.4,1.3-5.1,1.8c-1.2,0.3-1.9,0.5-3.2,0.4c-0.8-0.1-1.3-0.1-2.2,0.1
		c-2.1,0.4-4.3-0.3-5.4-2.2c-1.1-1.8-0.8-4.4,0.8-5.8c1-0.8,1.8-1.9,2.6-2.8c-0.3,0.1-0.7,0.2-1,0.2c-0.8,0.3-1.5,0.8-2.2,1.5
		c-2.1,2.1-2.4,5.4-1,7.9c0.2,0.5,0.6,1,1,1.5C1958.4,50.6,1959.7,51.9,1961.1,52.9z"/>
	<path class="st16" d="M1944.9,113.2c7.7,10.1,11.6,22.2,11.6,34.9c0,2.1-0.8,3.6-1.8,4.7c0.2,3.5-1.8,7.1-6.5,7.2
		c-1.7,0-3.4-0.1-5.1-0.3c4.6,2.5,11.6,1.5,14.2-4.8c7.1-17.4,1.5-43.1-13.3-55.9c-6.5-5.6-14.9-8.8-24.8-7.6
		c-2.6,0.3-4.8,2.1-5.7,4.3c0.7-0.4,1.5-0.7,2.3-0.8C1926.9,93.8,1938.5,104.8,1944.9,113.2z"/>
	<path class="st16" d="M1802.4,111.3c-0.4,7,6.3,9.4,11.3,7.4c2.8-1.1,5.1-3.6,5.4-7.4c4.8-51.5,15.2-100.1,26.4-150.5
		c0.1-0.5,0.2-1.1,0.3-1.1l-11.7-0.1c-0.1,0-0.1,0.1-0.2,0.2C1814.8,6.9,1805.5,60.9,1802.4,111.3z"/>
	<path class="st16" d="M2119.9,42.8c14.5-9.7,28-26.5,47.1-25.7c12.6,0.6,19.6,7.6,23.1,16.8c3.1,7.9,3.7,17.4,3.3,26
		c-1.7,32.8-10.3,66.3-21.9,96.9c-11.7,30.8-27.6,60-47.3,86.5c-11.6,15.4-42.2,58.3-66.6,55.7c-7.7,2-14.9-0.2-17.8-11.1
		c-0.1-0.2-0.1-0.5-0.1-0.7c-2.1-0.9-4.6-0.4-5.9,1.4c-0.5,0.8-0.9,1.7-1,2.9c-0.7,15.3,14.3,24.4,28.4,24.1
		c20.7-0.3,37-18.4,50.2-32c33.5-34.9,59.6-76.9,76-122.3c8.1-22.4,13.9-45.3,17-68.9c2.3-17.3,4.3-35.6-0.2-52.7
		c-0.8-2.9-1.7-5.7-2.9-8.6c-13.3-32.2-45.4-27.2-67.8-9.7c-6.7,5.3-12.6,11.6-16.7,18.5c-0.1,0.2-0.2,0.3-0.2,0.4
		C2116,41.9,2118.2,44,2119.9,42.8z"/>
	<path class="st16" d="M2155.7-39l-42.1-0.2c6.8,1.5,13.7,2.8,20.6,2.8C2141.4-36.4,2148.6-37.5,2155.7-39z"/>
	<path class="st16" d="M1579.8-27.7c-3.1,9-4.8,19.1-6.7,27.1c-4.1,16.9-7.1,34.3-9.1,51.5c-3.5,30-5.1,64.2,1.9,94.6
		c-2.6-5.4-4.9-11-7-16.7c-5.1-14.9-4.7-33.8-12.5-47.4c-0.9-1.6-3.1-1.1-3.7,0.5c-6.4,16,2.3,39.4,7.7,54.8
		c6.1,17.2,14.3,34,25.8,48.3c1.1,4.3,2.6,8.4,4.2,12.4c1.3,3.1,4.5,2.9,6.7,1.4c0.6-0.5,1.1-1,1.5-1.6c-7.4-16.3-6.4-40-5.5-54.6
		c1.1-17.5,3.7-35,7.7-52c0.2-1.9,0.4-3.8,0.6-5.7c2.7-22.8,7.3-45.4,14.1-67.3c1.6-5.3,3.4-11.3,5.4-17.2c-1.9,4.5-3.7,9-5.2,13.3
		c-5.4,16.2-7.3,33.1-14.6,48.5c-0.4,0.8-1.5,0.3-1.5-0.4c-0.6-18.6,6.4-35,11.7-52.4c3.8-12.3,6.6-26.4,13.5-37.6
		c-3.4-5.4-7.6-10.4-12.7-12.8l-14.5-0.1c-3.3,3.1-5.7,8.1-7.6,13.1C1579.9-27.9,1579.8-27.8,1579.8-27.7z"/>
	<path class="st16" d="M1619-19.4c-0.1-0.2-0.2-0.4-0.2-0.5c-0.4,1.1-0.8,2.4-1.1,3.5c0.5-0.9,0.9-1.8,1.5-2.8
		C1619.1-19.3,1619.1-19.3,1619-19.4z"/>
	<path class="st16" d="M1693.3-7.2c1.7,1.5,3.3,2.8,5,4.3c3,2.6,7.7,3.1,10.7,0.1c1.3-1.5,2.3-3.3,2.2-5.3c-0.1-2.1-0.9-3.7-2.2-5.3
		c-1.6-2.1-3.1-4.1-4.9-6c-2.5-2.6-6.7-2.7-9.5-0.5c-1.5,1.1-2.4,2.8-2.7,4.4C1690.6-12.8,1690.8-9.3,1693.3-7.2z"/>
	<path class="st16" d="M1869.8,142.1c-2.4-1-4.8-0.4-6.7,1.3c0.7-0.7,0.3-0.5-1.1,0.8c-0.5,0.6-1,1.3-1.5,1.9
		c-0.6,0.8-1.1,1.5-1.6,2.3c-0.9,1.6-1.8,3.3-2.7,4.9c-1.8,3.3-1.1,7.4,1.9,9.7c2.8,2.1,7.5,2.3,10-0.6c2.1-2.5,4-5.1,5.9-7.7
		c1.8-2.3,1.2-5.6-0.4-8C1873.4,144.8,1871.7,142.9,1869.8,142.1z"/>
	<path class="st16" d="M2156.7,78.1c-0.2-1.6-0.3-3.3-0.5-4.9c-0.2-1.1-0.4-1.9-0.8-2.7l-0.2-0.6c-1.2-4.1-5.5-5.4-8.7-3.9
		c-1.5,0.7-2.8,2-3.4,3.9c-0.1,0.2-0.2,0.5-0.2,0.8c-0.4,0.8-0.6,1.6-0.8,2.5c-0.2,1.6-0.4,3.3-0.5,4.9c-0.2,1.8,0.7,3.7,2,5.1
		c1.5,1.6,3.6,2.6,5.7,2.5C2152.9,85.5,2157,82.4,2156.7,78.1z"/>
	<path class="st7" d="M1792.6,293.6c12.1-6.7,30.4-11.3,45.4-9.5c-21.8-17.8-51.7-23.2-78.3-6.9c-16.9,10.3-28.4,28.1-29.4,48.1
		c-0.6,13,3.2,22.2,8.3,31.5C1745.9,330.3,1771.1,305.5,1792.6,293.6z M1771.5,284.1c0.2,0,0.4,0,0.5,0c3-0.2,5.3,2.6,5.4,5.4
		c0.2,2.8-2.6,5.6-5.4,5.4c-0.2,0-0.4,0-0.5,0c-3-0.2-5.2-2.3-5.4-5.4C1766,286.5,1768.7,284.2,1771.5,284.1z M1757.5,307.5
		c-1.9,1.1-3.5,2.7-4.7,4.6c-1.6,2.7-2.5,5.1-5.3,6.9c-2.3,1.5-5.1,0.3-6.5-1.7c-5.3-7.5,3.8-17.7,9.5-21.9c3.1-2.3,7.9-0.5,9.6,2.5
		C1761.9,301.2,1760.7,305.6,1757.5,307.5z"/>
	<path class="st17" d="M1759.5-17.9c0,1.2,0,2.5,0,3.8c0.1,5.1,1.5,12-0.4,16.7c-3.4,9.1,15.6,9.4,10.3-1.3
		c-1.1-2.1-1.3-5.2-1.4-8.3c-0.1-2.5,0-5.1-0.2-7.1c-0.2-1.6-0.2-3.1-0.5-4.6c0,0,0-0.1,0.1-0.1c-1.4-0.7-2.5-1.8-2.8-3.5
		c-2.1-1.9-3.3-5.1-1.7-8.4c0.7-1.5,1.4-2.8,2.1-4.1c0.1-1.9,0.2-4.1,0.2-5.7l-18.5-0.1c2.1,5.4,5,11,8.5,16.1
		C1755.1-21.6,1757-19.2,1759.5-17.9z"/>
	<path class="st18" d="M1763.2-30.8c-1.6,3.4-0.5,6.5,1.7,8.4c0.3,1.7,1.4,2.8,2.8,3.5c3.4,1.7,8.7,0.1,8.8-5c0-1.1,0.1-2.1,0.1-3.3
		c1.9-4.1,3.7-8.9,5.1-13.5l-16.2-0.1c-0.1,1.5-0.1,3.8-0.2,5.7C1764.6-33.4,1763.9-32.1,1763.2-30.8z"/>
	<path class="st18" d="M1892.9,4.8c-0.4,1.1-0.8,2.1-1.1,3.1c-0.8,2.5,0.5,4.8,2.5,6.1c-1.5-2-2.1-4.5-0.2-7.2
		c10.7-15.3,20.7-31.3,30.8-46.6l-23.6-0.1C1892.3-27,1888.5-11,1892.9,4.8z"/>
	<path class="st18" d="M1948,160c4.6,0,6.7-3.7,6.5-7.2c1.1-1.1,1.8-2.7,1.8-4.7c0-12.7-3.9-24.7-11.6-34.9
		c-6.3-8.3-17.9-19.5-29.3-18.3c-0.8,0.1-1.6,0.4-2.3,0.8c-2,1.2-3,3.6-2.1,5.8c-10.7,16.7-3.1,37.6,11.7,49.4
		c5.8,4.6,12.7,7.9,20.1,8.9C1944.6,159.8,1946.3,160,1948,160z M1936.5,132c-3,1.9-6.8,0.5-8.6-2.2c-2.5-3.8-4.8-7.4-6.4-11.6
		c-0.8-2.2,0.5-5.1,2.5-6.2c2.1-1.2,4.8-0.8,6.7,0.8c3.3,3.1,5.6,6.9,8,10.6C1940.7,126.4,1939.2,130.3,1936.5,132z"/>
	<path class="st17" d="M1894.2,13.9c0.5,0.7,1.3,1.4,2.1,1.8c0.5,2.6,2.7,4.6,5.8,3.4c2.1-0.8,4.1-1.7,6.2-2.7
		c22.1-11.1,37.3-32.5,40.5-56.3l-24-0.1c-10.2,15.3-20.2,31.4-30.9,46.7C1892.2,9.4,1892.6,11.9,1894.2,13.9z M1937.1-37.6
		c-0.2,1.1-0.5,2.3-0.8,3.4c-0.8,0.8-1.5,1.6-2.2,2.4c-0.1-0.2-0.2-0.2-0.4-0.3C1934.8-33.9,1936-35.7,1937.1-37.6z"/>
	<path class="st17" d="M1930.7,112.9c-1.8-1.7-4.5-2.1-6.7-0.8c-2,1.1-3.4,3.9-2.5,6.2c1.6,4.3,4,7.8,6.4,11.6
		c1.8,2.8,5.7,4.1,8.6,2.2c2.7-1.8,4.2-5.7,2.2-8.6C1936.4,119.8,1934,115.9,1930.7,112.9z"/>
	<path class="st17" d="M1569.1,347.1c1,0.1,2,0.2,3.1,0.2c2.5,0,4.1-1.3,5-3.1c1.2-0.8,2.1-2.1,2.5-3.4c0.5-1.4,0.4-3-0.5-4.4
		c-0.3-0.5-0.6-0.9-1.1-1.4c-8-7.4-14.9-14.6-20.8-23.9c-4.1-6.4-7.2-13.4-10.6-20.3c-0.5-0.9-0.9-1.8-1.4-2.8
		c0-0.1,0.1-0.2,0.1-0.2c1-2.3-1-4.8-3.1-4.4c-2.3-1.4-5.6,1.1-5.2,4.1c0.1,0.3,0.2,0.6,0.2,0.9
		C1519.9,312.6,1541.1,344.4,1569.1,347.1z M1548.7,325.5c-2.1-2.6-3.8-5.6-4.9-8.8C1545.6,319.6,1547.1,322.5,1548.7,325.5z"/>
	<path class="st18" d="M1970.9,376.2c0.4,0.1,0.8,0.2,1.1,0.2c27.4,4.4,52,10.1,76.9,23.2c1.5,0.8,3.1,1,4.4,0.8
		c1.4-0.2,2.6-0.8,3.7-1.7c5.4,1.1,11.5-4.1,7.9-10.1c-9.6-15.3-25.2-27.7-43.5-30.4c-12.9-1.9-30.3-0.8-41.8,7.1
		c-1.9-0.1-3.8-0.1-5.7,0C1967.9,363.2,1963.3,375,1970.9,376.2z"/>
	<path class="st18" d="M1744.6,47.2c-2.2-0.8-4.8-1-7.4-0.6c-0.9,0.2-1.7,0.7-2.1,1.5c-2.6,0.8-4.5,3.8-3.9,6.8
		c1,5.4,4.4,9.8,7.4,14.3c2.8,4.1,5,8.7,9.2,11c3,2.1,7.7,2.1,10.2-0.8c0.8-1.1,1.4-2.5,1.5-4.3C1760.3,64.4,1755,50.6,1744.6,47.2z
		"/>
	<path class="st17" d="M1707.7,130.4c4.6-22.8-9.9-44.1-31.7-49.7c-1.6-0.4-3.3-0.7-5-0.9c-3.8-0.5-7.5,3.4-7.8,7.3
		c-1.7,1.4-2.8,3.5-2.1,5.7c4.7,16.6,18.3,30.8,32.6,40.3c1,0.6,1.9,1.2,2.9,1.8c0.2,0.2,0.5,0.2,0.7,0.4c1.1,0.5,2.4,0.7,3.6,0.6
		C1703.9,135.7,1707.1,133.7,1707.7,130.4z"/>
	<path class="st17" d="M1958.3,41.1c-1.6,1.4-1.8,4.1-0.8,5.8c1.1,1.9,3.3,2.6,5.4,2.2c1-0.2,1.4-0.2,2.2-0.1c1.3,0.1,2-0.1,3.2-0.4
		c1.8-0.5,3.4-1.1,5.1-1.8c3-1.1,5.1-3.5,5.5-6.4c0.2-1.2,0-2.5-0.5-3.9c-1.7-4-6.9-6.2-10.8-3.7c-1.8,1.1-3.5,2.4-5.2,3.7
		c-0.6,0.5-1.1,1-1.6,1.5C1960.1,39.1,1959.3,40.1,1958.3,41.1z"/>
	<path class="st6" d="M1832.2,366.5c9.4-8.7,19.8-19.5,26.1-31.7c0.7-5.4,1-10.8,1.7-16.2c-0.4-5.8,0.2-11.8-1.1-17.6
		c-1.8-8.1-5.2-16-9.9-22.8c-12.1-17.6-30.6-21.9-50.4-25.3c-1-0.2-1.2-1.1-0.8-1.9c-17.9-0.7-36,4.3-52,16.1
		c-2.5,1.8-4.8,3.8-6.9,5.8c-14.6,13.6-23.2,32.1-23.7,52.3c-0.1,4.1,0.2,8.7,0.8,13.3c2.3,15.3,9,31.6,21.2,40.1
		c0.5,2,2.6,2.9,4.5,2.6c0.5,0.2,0.8,0.5,1.3,0.7c0.6,0.2,1.1,0.3,1.7,0.3c4.2,11.7,15.6,20.2,33.5,16.6c0.3-0.1,0.6-0.1,0.9-0.2
		C1798.8,394.3,1817.8,380,1832.2,366.5z M1738.6,356.8c-5.1-9.3-8.9-18.6-8.3-31.5c0.9-20,12.6-37.6,29.4-48.1
		c26.5-16.3,56.5-10.9,78.3,6.9c-15-1.8-33.3,2.8-45.4,9.5C1771.1,305.5,1745.9,330.3,1738.6,356.8z M1762.8,377.4
		c-1.5-0.2-3.1-0.5-4.6-0.8c-3.3-0.8-5.1-3.9-5.4-7.1c-0.9-13.4,5.2-33.3,18.5-39.2c1.4-1.7,2.8-3.4,4.5-5.1
		c13.4-13.4,38.9-31.8,59.2-26.5c35.9,9.4-13.1,55-25.7,64.3c-9,6.7-19.4,13.6-30.1,16.9C1773.2,381.7,1766.3,381.3,1762.8,377.4z"
		/>
	<path class="st6" d="M1794.4,340.2c9.2,0,9.3-13.6,0.1-13.6C1786.8,326.6,1786.8,340.2,1794.4,340.2z"/>
	<path class="st6" d="M1811.2,348.2c8.4,0,8.5-13,0.1-13C1803.6,335.1,1803.6,348.2,1811.2,348.2z"/>
	<path class="st6" d="M1824.3,325c9.2,0,9.3-12.5,0.1-12.5C1816.7,312.4,1816.7,324.9,1824.3,325z"/>
	<path class="st3" d="M2092.5,77.1c6.1-11.8,14.3-25.6,24.1-36.9c0.1-0.2,0.1-0.3,0.2-0.4c4.1-6.8,10-13.3,16.7-18.5
		c0.5-8.2,0.8-16.3,0.9-24.1c0.3-11.1,0.2-22.3-0.3-33.7c-6.9,0-13.8-1.1-20.6-2.6l-13.6-0.1c0.1,1.5,0.2,3.1,0.3,4.8
		C2099.7,2.9,2097.3,40.1,2092.5,77.1z"/>
	<path class="st3" d="M1863.6,78.1c10.7,0.1,10.8-15.4,0.1-15.5C1855.2,62.6,1855.2,78.1,1863.6,78.1z"/>
	<path class="st3" d="M1656.2,32.3c4,0,7.9-3.5,7.7-7.7c-0.2-4.1-3.4-7.7-7.7-7.7c-4,0-7.9,3.5-7.7,7.7
		C1648.7,28.8,1651.9,32.3,1656.2,32.3z"/>
	<path class="st3" d="M1766.8,146.4c-0.9,0.2-1.8,0.6-2.7,1c-4.5,2-4.6,10-0.1,12c0.8,0.4,1.8,0.8,2.7,1c2.5,0.4,5.2,0.2,7.1-1.8
		c1.3-1.5,2.1-3.1,2.1-5.1c0-1.8-0.8-3.8-2.1-5.1C1771.9,146.4,1769.4,146,1766.8,146.4z"/>
	<path class="st7" d="M1809.5,362.9c12.6-9.3,61.5-55,25.7-64.3c-20.3-5.3-45.9,13.1-59.2,26.5c-1.6,1.6-3.1,3.3-4.5,5.1
		c-13.4,5.8-19.5,25.8-18.5,39.2c0.2,3.2,2.1,6.3,5.4,7.1c1.5,0.4,3.1,0.6,4.6,0.8c3.6,3.9,10.5,4.4,16.6,2.5
		C1790.1,376.5,1800.5,369.5,1809.5,362.9z M1824.4,312.5c9.2,0,9.1,12.5-0.1,12.5C1816.7,324.9,1816.7,312.4,1824.4,312.5z
		 M1811.3,335.2c8.4,0,8.4,13-0.1,13C1803.6,348.2,1803.6,335.1,1811.3,335.2z M1794.4,326.6c9.2,0,9.1,13.6-0.1,13.6
		C1786.8,340.2,1786.8,326.6,1794.4,326.6z"/>
	<path class="st15" d="M1959.9,38.4c0.3-0.2,0.6-0.2,1-0.2c0.5-0.5,1-1.1,1.6-1.5c1.7-1.3,3.4-2.5,5.2-3.7c3.8-2.5,9.1-0.3,10.8,3.7
		c0.5,1.3,0.7,2.7,0.5,3.9c2.1,0.8,4,2.8,4.5,5c0.9,3.4-0.7,6.5-3.4,8.4c-3.6,2.5-9.2,2.4-13.3,1.3c-2-0.5-4-1.3-5.7-2.4
		c-1.5-0.9-2.8-2.3-3.6-3.5c-3.8,16.8-8.4,33.3-13.7,49.6c14.8,12.8,20.3,38.6,13.3,55.9c-2.5,6.3-9.6,7.3-14.2,4.8
		c-7.4-1-14.3-4.3-20.1-8.9c-11,22.5-24.1,43.7-38.6,64.2c-5.9,2-12,3.4-18.1,4.4c-14.7,2.5-28.1,0.6-42-1.8
		c6.4,2.5,12.8,5.4,19.1,8.7c12.6,6.7,24.1,14.6,34.6,24.3c2.8,2.6,5.6,5.4,8.4,8.3c1.5,0.2,3.1,1,4.4,2.4
		c18.6,19.9,41.3,26.5,63.4,23.7c31-34.7,45.4-81.7,58.5-125.6c14.4-48.8,24.3-98.9,28.9-149.8c1.5-16.4,2.5-33.1,2.9-49.2
		l-73.3-0.2c-0.5,6.9-1.2,13.5-2,20.2C1966.9,0,1963.9,19.2,1959.9,38.4z"/>
	<path class="st2" d="M1750.4,295.4c-5.7,4.2-14.7,14.3-9.5,21.9c1.5,2.1,4.2,3.2,6.5,1.7c2.8-1.8,3.7-4.2,5.3-6.9
		c1.1-1.9,2.7-3.4,4.7-4.6c3.2-2,4.4-6.3,2.5-9.6C1758.3,295,1753.5,293.1,1750.4,295.4z"/>
	<path class="st2" d="M1771.5,294.8c0.2,0,0.4,0,0.5,0c2.8,0.2,5.5-2.6,5.4-5.4c-0.2-2.8-2.4-5.6-5.4-5.4c-0.2,0-0.4,0-0.5,0
		c-2.8,0.2-5.5,2.3-5.4,5.4S1768.5,294.6,1771.5,294.8z"/>
	<path class="st2" d="M1629,167c-14.6-9.1-9.9-40.3-8.8-54.6c1.1-14.8,8.6-33.2,2.6-47.1c-0.3-0.8-1.5-1-2.1-0.5
		c-16.5,12.1-15.7,48.1-16,66.5c-0.3,17.6-0.7,39.3,16.6,49.3C1629.7,185.4,1637.5,172.3,1629,167z"/>
	<path class="st2" d="M1647.7,181.2c-1.8-0.3-3.6,0-5.1,0.7c-1.9,0.5-3.4,2-4.1,4c-0.8,2.8,0.2,5.4,1.8,7.7c2.1,3.1,6,4.4,9.4,2.5
		c2.9-1.7,4.3-4.9,3.8-8.1C1653.2,184.8,1650.8,181.6,1647.7,181.2z"/>
	<path class="st2" d="M2132.9,211.9c12-23.5,30.2-56.6,24.5-83.7c-0.1-0.5-0.9-0.8-1.3-0.3c-7.7,9.6-10.6,20.3-15,31.7
		c-6,15.5-12.6,30.5-20.2,45.2C2116.9,212.8,2128.9,219.9,2132.9,211.9z"/>
	<path class="st2" d="M2115.1,238.7c3.8,0,7.4-3.3,7.2-7.2s-3.1-7.2-7.2-7.2c-3.8,0-7.4,3.3-7.2,7.2
		C2108,235.4,2111,238.7,2115.1,238.7z"/>
</g>
</svg>
