<?xml version="1.0" encoding="utf-8"?>
<!-- Generator: Adobe Illustrator 21.1.0, SVG Export Plug-In . SVG Version: 6.00 Build 0)  -->
<svg version="1.1" id="Layer_1" xmlns="http://www.w3.org/2000/svg" xmlns:xlink="http://www.w3.org/1999/xlink" x="0px" y="0px"
	 viewBox="0 0 8192 3309.2" style="enable-background:new 0 0 8192 3309.2;" xml:space="preserve">
<style type="text/css">
	.st0{fill:#E7DBD3;}
	.st1{fill:#C2D3CB;}
	.st2{fill:#E2EDE8;}
	.st3{fill:#939B48;stroke:#808334;stroke-width:14.427;stroke-miterlimit:10;}
	.st4{fill:#808334;}
	.st5{fill:none;stroke:#808334;stroke-width:14.427;stroke-miterlimit:10;}
	.st6{fill:none;stroke:#FFFFFF;stroke-width:14.427;stroke-linecap:round;stroke-linejoin:round;stroke-miterlimit:10;}
	.st7{fill:#FFFFFF;}
	.st8{fill:#FFAE5C;}
	.st9{fill:#A1AF4A;}
	.st10{fill:#929B42;}
	.st11{fill:#FF4217;}
	.st12{fill:#DD3114;}
	.st13{fill:#FAFFFD;}
	.st14{fill:#726A56;}
	.st15{fill:#5E5746;}
	.st16{fill:#403D33;}
	.st17{fill:#D8AD79;}
	.st18{fill:#B78B5A;}
	.st19{fill:#9B7550;}
</style>
<rect x="-102" y="-67.4" class="st0" width="8397.4" height="3448.1"/>
<g>
	<g>
		<path class="st1" d="M7605.2-237.2c0.5-5.8,0.9-11.7,1.3-17.5c-0.3,0.1-0.5,0.2-0.8,0.2C7605.6-248.8,7605.3-243,7605.2-237.2
			C7605.1-237.2,7605.1-237.2,7605.2-237.2z"/>
		<path class="st2" d="M6681.9,254.4c-0.5-0.1-0.9-0.1-1.4-0.2c0.9,0.2,1.7,0.4,2.6,0.7C6682.6,254.7,6682.3,254.5,6681.9,254.4z"/>
		<path class="st2" d="M7713.5,311.7c-0.1,0.6-0.3,1.1-0.4,1.8c0.6-0.6,1.2-1.2,1.9-1.9C7714.5,311.5,7714,311.6,7713.5,311.7z"/>
		<path class="st2" d="M7605.1-237.2L7605.1-237.2C7605.2-237.2,7605.2-237.2,7605.1-237.2L7605.1-237.2L7605.1-237.2z"/>
	</g>
</g>
<g>
	<path class="st3" d="M5866.3,2341.3c0,0-39.5-9.3-31.7-48.1c6.5-32.6,39.5-30.6,39.5-30.6s-27.4-55.6,38.1-81.3
		c24.1-9.5,48.6,5.7,48.6,5.7s16.4-34.6,39.5-30.6c25.2,4.4,29,26.3,33.1,22.5c24.1-21.8,79.7,0.5,68.2,56.4
		c-11.2,54.6-49.6,56.9-49.6,56.9l40.3,43.3l-58.2,61.8l-47.2-39.4c0,0-28.7,73.9-90.3,57.2
		C5834.9,2398.1,5858.6,2355.9,5866.3,2341.3z"/>
	<path class="st4" d="M5949.8,2296.2c0,0-25.3-31.3-61.4,7.9c-19.7,21.4,8.1,34.6,8.1,34.6s-12.8,23.5,8.1,38.6
		c38.4,27.9,88.9-27.4,83.4-61.4c-0.9-5.7,21.6-1.9,24.9-20.2c6.5-36.7-19.7-55-42.9-43.9C5965.1,2254,5934.8,2269.6,5949.8,2296.2z
		"/>
	
		<ellipse transform="matrix(0.871 -0.4913 0.4913 0.871 -322.0882 3262.4241)" class="st4" cx="6051.1" cy="2244.5" rx="26.7" ry="24.3"/>
	<line class="st5" x1="5982.2" y1="2329.6" x2="6047.3" y2="2381.5"/>
	<line class="st5" x1="6007.4" y1="2304.9" x2="6070" y2="2355.9"/>
	
		<ellipse transform="matrix(0.871 -0.4913 0.4913 0.871 -342.6134 3209.6682)" class="st4" cx="5940.4" cy="2257.2" rx="10.9" ry="10"/>
	
		<ellipse transform="matrix(0.871 -0.4913 0.4913 0.871 -309.455 3232.0461)" class="st4" cx="5999.5" cy="2205.3" rx="10.9" ry="10"/>
	
		<ellipse transform="matrix(0.871 -0.4913 0.4913 0.871 -352.8436 3188.0999)" class="st4" cx="5894.2" cy="2265.9" rx="13.9" ry="12.5"/>
	<path class="st6" d="M5887.6,2226.1c0.7-14.8,44.6-37.5,55.3-10.5"/>
	
		<ellipse transform="matrix(0.871 -0.4913 0.4913 0.871 -378.117 3177.6602)" class="st7" cx="5861.7" cy="2308.8" rx="11.9" ry="8.9"/>
	<ellipse class="st7" cx="5970.4" cy="2210.2" rx="8.9" ry="8.9"/>
</g>
<g>
	<path class="st3" d="M1555.8,2498c0,0,3.2-40.5,42.7-38.7c33.2,1.4,36.3,34.4,36.3,34.4s50.8-35.6,86.2,25.2
		c13.1,22.4,1.8,48.9,1.8,48.9s36.7,10.9,36.3,34.4c-0.5,25.6-21.6,32.7-17.2,36.1c25.2,20.5,11.7,78.8-45.3,76
		c-55.7-2.7-63.8-40.3-63.8-40.3l-36.6,46.4l-70-48.1l31.7-52.7c0,0-77.4-17.1-70.3-80.5C1494.9,2475.6,1540.2,2492.6,1555.8,2498z"
		/>
	<path class="st4" d="M1613.1,2573.6c0,0,27.1-29.8-17.2-59.5c-24.2-16.2-33,13.3-33,13.3s-25.2-9.1-36.9,13.9
		c-21.7,42.2,40.6,83.7,73.4,73.1c5.5-1.8,5.2,21.1,23.8,21.5c37.3,0.8,51.3-27.9,36.8-49.1
		C1657.1,2582.3,1637.1,2554.7,1613.1,2573.6z"/>
	
		<ellipse transform="matrix(0.7858 -0.6185 0.6185 0.7858 -1288.9218 1609.9509)" class="st4" cx="1679.8" cy="2665.7" rx="24.3" ry="26.7"/>
	<line class="st5" x1="1585" y1="2610.7" x2="1543.7" y2="2683"/>
	<line class="st5" x1="1613.3" y1="2631.8" x2="1572.4" y2="2701.5"/>
	
		<ellipse transform="matrix(0.7858 -0.6185 0.6185 0.7858 -1228.7712 1568.6683)" class="st4" cx="1650.2" cy="2558.3" rx="10" ry="10.9"/>
	
		<ellipse transform="matrix(0.7858 -0.6185 0.6185 0.7858 -1247.0896 1616.7902)" class="st4" cx="1710.6" cy="2608.8" rx="10" ry="10.9"/>
	
		<ellipse transform="matrix(0.7858 -0.6185 0.6185 0.7858 -1204.6979 1549.5372)" class="st4" cx="1634.7" cy="2513.9" rx="12.5" ry="13.9"/>
	<path class="st6" d="M1672.9,2501.4c14.7-1.6,43.9,38.4,18.8,53"/>
	
		<ellipse transform="matrix(0.7858 -0.6185 0.6185 0.7858 -1199.0315 1514.7285)" class="st7" cx="1587.2" cy="2488.4" rx="8.9" ry="11.9"/>
	<ellipse class="st7" cx="1701.2" cy="2580.8" rx="8.9" ry="8.9"/>
</g>
<g>
	<path class="st7" d="M1944.2,1109.5c-22.3-13.4-47.7-22-74.1-21.3c-12,0.4-24.2,2.6-35.2,7.4c-10.7,4.6-20.1,11.2-29.8,17.5
		c-8.5,5.6-17.6,11.6-27.8,13.4c-11.2,1.9-21.4-2.7-32.1-4.4c-12.8-2-25.2,1.3-34.1,11c-8.4,9.2-13,21.9-15.6,34.1
		c-2.6,12.8-3.5,26.6-10.2,38.1c-6.1,10.4-17.3,13.9-28.1,17c-12.4,3.5-24.3,6.8-35.1,14.3c-10.7,7.4-19.7,16.3-27.1,27.4
		c-11.7,18-15.7,40-12.3,60.9c-17.5,42.8,6.4,91.9,42.1,117.3c23.3,16.6,50.3,25.8,78,32c26.2,5.7,53.8,7,78.8,17.3
		c12.5,5.1,22.9,12.4,32.2,22.3c9.7,10.2,18.5,21.1,30.5,28.6c21,13.3,45.6,7.5,65.8-4c10.1-5.9,19.2-13.1,28.2-20.4
		c11.7-9.9,23.5-20.1,33.4-31.7c17.6-19.8,31.1-44,33.6-70.8c1.1-12.1,0.3-24.2-3.4-35.7c-3.6-10.7-10.3-19.8-13.3-30.6
		c-1.2-4.2-1.3-8.4,0.6-12.6c2.5-5,7-8.5,11.4-11.5c10.9-7.2,22.9-12.4,31.8-22.2c16.6-18.1,21.3-44.9,16.9-68.5
		c-4.9-26.8-21.1-49.7-39.4-69.1C1990.5,1143.8,1968.4,1124.1,1944.2,1109.5z M1999.3,1294c-3.2,0.2-4.8-4.2-2.1-6.1
		c1.6-0.9,3.6-3.6,5.4-5.5c2.1-2.3,3.3-4.5,4.3-7.3c2.5-6.1,13-2.7,11.1,3.7c-1.3,4.3-3.6,8.2-7.1,11.2
		C2007.3,1293.3,2003.9,1293.7,1999.3,1294z M1939.9,1222.2c13,35.5,6.6,74.5-4.6,109.5c-6.3,20-14.7,39.8-28.7,55.7
		c-12.8,14.5-29.8,24.4-48,31.1c-33.3,12.3-71.7,16.7-106.2,6.6c-17.1-5-33.3-13.2-46.5-25.3c-5.4-4.8-10.2-10.2-14.5-15.9
		c-16.1-17.7-25.7-42.6-20.3-66.5c6.3-28.2,30.3-49.6,57.1-58.1c25.1-7.8,51.8-5.8,76.7,0.3c-4.4-26.7-3-56.6,13.6-78.8
		c14.7-19.6,40.5-30.4,63.8-19.7c6.6,3.1,12.3,7.2,17.1,12.1c1.3,0.7,2.9,1.7,4.4,2.7C1920.9,1186.9,1933,1203.3,1939.9,1222.2z
		 M1907.3,1515.4c-3.6,1.1-7.6,2.1-11.5,2.3c-1.9,0.1-3.7,0-5.7-0.2c-1.9-0.2-3.8-1-5.7-1.3c-2.9-0.7-3.6-5.3-0.4-6
		c3.3-0.7,6.4-2.3,9.6-3.3c3.3-0.9,6.7-1.7,9.9-2.8c6.1-2.1,11.7-5.1,17-8.7c11.7-8.4,20-21.1,23.7-35c2-7.7,14.1-5.3,12.3,2.4
		c-4.2,16.9-14.1,31.9-28.2,42.3C1921.8,1509.6,1914.8,1513.2,1907.3,1515.4z M1966.5,1437.7c-4.4,5.5-12.6-1.7-8.1-7.1
		C1962.7,1425,1970.9,1432.2,1966.5,1437.7z M1737.5,1155.5C1737.5,1155.4,1737.4,1155.5,1737.5,1155.5c-2.6-2.2-1.7-5.6,0.9-7.1
		c1.4-1.1,3.3-1.3,5-1.4c1.7,0,3.7,0,5.4,0.3c3.2,0.8,5.3,3.7,4.8,7.2c-0.5,3.4-3.9,5.1-7.2,4.8c-1.5,0-3.2-0.8-4.6-1.4
		C1740.2,1157.6,1738.6,1156.7,1737.5,1155.5z M1610.4,1397c-1.6-3-2.8-6.1-3.3-9.6c-0.3-1.4-0.2-2.9-0.1-4.2c0.2-1.6,1-2.9,1.4-4.1
		c0.8-3.1,5.5-4,6.6-0.4c0.6,2,2.2,4.3,3,6.3c0.8,1.8,1.6,3.7,2.7,5.3c2.2,3.6,5.3,6,8.9,8.3c6.9,4.1,2,15-5.4,11.4
		C1618.6,1407.6,1613.6,1402.5,1610.4,1397z"/>
	<path class="st7" d="M1787.2,1415.2c-0.1-0.1-0.3-0.2-0.6-0.3c-0.9,0.2-1.7,0-2.4,0.2C1785.3,1415.2,1786.2,1415.3,1787.2,1415.2z"
		/>
	<path class="st7" d="M1917,1337.6c-2.4,5.8-5,11.6-7.3,17.4C1912.4,1349.3,1915,1343.5,1917,1337.6z"/>
	<path class="st0" d="M1629.7,1398.8c-3.6-2.2-6.6-4.6-8.9-8.3c-1-1.8-1.9-3.4-2.7-5.3c-0.9-2.1-2.4-4.3-3-6.3
		c-1-3.4-5.7-2.6-6.6,0.4c-0.3,1.5-1.3,2.7-1.4,4.1s-0.1,2.9,0.1,4.2c0.5,3.4,1.8,6.5,3.3,9.6c3.1,5.5,8,10.4,13.6,13
		C1631.7,1413.5,1636.5,1402.9,1629.7,1398.8z"/>
	<path class="st0" d="M1956.2,1462.7c2-7.7-10.3-10.2-12.3-2.4c-3.5,13.8-12,26.5-23.7,35c-5.3,3.7-10.9,6.7-17,8.7
		c-3.3,1.1-6.6,1.9-9.9,2.8c-3.2,0.9-6.4,2.5-9.6,3.3c-3.2,0.9-2.4,5.3,0.4,6c2,0.4,3.6,1.3,5.7,1.3c1.9,0.2,3.7,0.4,5.7,0.2
		c3.9-0.2,7.7-1.2,11.5-2.3c7.4-2.3,14.6-5.8,20.7-10.3C1942,1494.6,1952.1,1479.6,1956.2,1462.7z"/>
	<path class="st0" d="M1958.3,1430.5c-4.4,5.5,3.7,12.5,8.1,7.1C1970.9,1432.2,1962.7,1425,1958.3,1430.5z"/>
	<path class="st0" d="M2018.1,1279.1c1.8-6.3-8.7-9.9-11.1-3.7c-1,2.9-2.5,5-4.3,7.3c-1.8,1.9-3.8,4.3-5.4,5.5
		c-3,1.8-1.1,6.1,2.1,6.1c4.5-0.3,8-0.7,11.6-3.9C2014.5,1287.4,2016.7,1283.4,2018.1,1279.1z"/>
	<path class="st0" d="M1746.6,1159.6c3,0.3,6.6-1.5,7.2-4.8s-1.4-6.3-4.8-7.2c-1.6-0.5-3.7-0.3-5.4-0.3s-3.6,0.1-5,1.4
		c-2.6,1.2-3.5,5-1.1,7c0,0.1,0.1,0.1,0.1,0.1c1.1,1.4,2.7,2.1,4.4,2.7C1743.4,1158.7,1745.1,1159.4,1746.6,1159.6z"/>
	<path class="st0" d="M1899.7,1173.3c14.2,14.2,22.2,35.4,25.5,54.6c10.1,57.8-19.5,111.5-47.3,159.9c-1.4,2.3-3.5,3.9-5.9,4.2
		c-14.9,7.1-31.3,12.1-47.3,16.4c-12.5,3.2-25.2,5.9-38.1,6.9c0.1,0.1,0.3,0.2,0.6,0.3c-0.9,0-1.9,0.1-2.9-0.1
		c-3.5,0.3-7,0.3-10.5,0.3c-28,0-57.6-7.6-78.4-27.8c-1.3-1.3-2.7-2.8-4.1-4.2c4.3,5.8,9,11.2,14.5,15.9
		c13.3,12,29.4,20.2,46.5,25.3c34.5,10.1,73,5.7,106.2-6.6c18-6.7,35.1-16.7,48-31.1c14.1-15.9,22.3-35.7,28.7-55.7
		c11.1-35.1,17.5-74,4.6-109.5c-6.9-18.8-19.1-35.3-35.9-46.3C1902.6,1174.9,1901.1,1174.1,1899.7,1173.3z M1909.6,1355
		c2.4-5.8,5-11.6,7.3-17.4C1915,1343.5,1912.4,1349.3,1909.6,1355z"/>
	<path class="st8" d="M1774,1415.4c3.5,0,7-0.2,10.5-0.3c0.7-0.1,1.7,0,2.4-0.2c12.9-1,25.6-3.6,38.1-6.9
		c15.9-4.2,32.2-9.3,47.3-16.4c2.5-0.3,4.7-1.9,5.9-4.2c27.7-48.3,57.3-102.2,47.2-160c-3.5-19.2-11.3-40.3-25.5-54.6
		c-4.9-5-10.5-9.1-17.1-12.1c-23.3-10.8-49.3,0.2-63.8,19.7c-16.4,22-18,52.2-13.6,78.8c-25.3-6.4-51.8-8.3-76.7-0.3
		c-27,8.4-51,29.8-57.1,58.1c-5.1,24,4.1,48.9,20.3,66.5c1.4,1.5,2.7,2.8,4.1,4.2C1716.3,1407.9,1745.7,1415.6,1774,1415.4z
		 M1723.6,1295.9c3.5-1.5,7.7,1.2,8.7,4.4c1.2,3.9-0.9,7-4.4,8.7c-11.8,5.5-20.3,16.7-22.3,29.5c-0.8,5.9-0.1,12.1,1.6,17.7
		c1,2.9,2.2,5.8,3.6,8.6c1.5,2.5,3.8,4.9,5.2,7.7c1.1,2.1,1.3,4.6-0.4,6.5c-1.4,1.6-4.4,2.4-6.3,1.4c-6.9-4.4-11.4-13-13.8-20.5
		c-2.5-7.5-3.2-15.8-2.3-23.5C1695.9,1318.8,1707.8,1303.5,1723.6,1295.9z M1852.4,1189.1c7.9-4.2,17-4,25.1-0.7
		c7.3,3.1,1.8,14-5.4,10.9c-4.6-2.1-10.1-2.1-14.6,0c-2.7,1.3-5,3.5-6.9,5.7c-1.9,2.3-4.1,4.1-5.6,6.6c-1.1,1.4-3.9,1.1-4.4-0.8
		c-0.9-4.7-0.9-8.3,1.7-12.3C1844.9,1194.6,1848.4,1191.3,1852.4,1189.1z M1759.4,1287.2c-4.2,5.2-12.1-1.7-7.8-6.9
		C1755.9,1275.1,1763.6,1282.1,1759.4,1287.2z"/>
	<path class="st7" d="M1695.6,1359.9c2.5,7.5,6.9,16.2,13.8,20.5c1.8,1.2,4.7,0.3,6.3-1.4c1.6-1.9,1.5-4.4,0.4-6.5
		c-1.4-2.7-3.5-5-5.2-7.7c-1.7-2.6-2.8-5.6-3.6-8.6c-1.8-5.9-2.5-11.8-1.6-17.7c2-12.9,10.4-24.1,22.3-29.5c3.5-1.5,5.6-4.9,4.4-8.7
		c-1.1-3.3-5.3-6-8.7-4.4c-15.8,7.5-27.8,22.8-30.1,40.3C1692.4,1344.2,1693.3,1352.3,1695.6,1359.9z"/>
	<path class="st7" d="M1751.6,1280.6c-4.2,5.2,3.6,12.2,7.8,6.9C1763.6,1282.1,1755.9,1275.1,1751.6,1280.6z"/>
	<path class="st7" d="M1840.8,1211.1c0.5,1.9,3.2,2.3,4.4,0.8c1.8-2.2,3.8-4.2,5.6-6.6c1.9-2.3,4-4.4,6.9-5.7c4.6-2.3,10.2-2,14.6,0
		c7.1,3.2,12.3-7.8,5.4-10.9c-8.2-3.6-17.3-3.5-25.1,0.7c-4,2.1-7.6,5.2-10,9.3C1839.8,1202.6,1839.7,1206.2,1840.8,1211.1z"/>
</g>
<g>
	<path class="st7" d="M4932.9,2544.8c21.3-22.4,48-40.2,78.7-48.2c14-3.5,28.8-5.1,43.2-3.4c14,1.6,27.1,5.9,40.5,9.9
		c11.7,3.5,24.4,7.2,36.8,5.8c13.5-1.5,23.9-10.1,35.8-15.5c14.3-6.4,29.7-6.8,43.3,1.1c13,7.5,22.5,20.2,29.7,33.1
		c7.2,13.5,13.1,28.5,24.9,39.2c10.5,9.6,24.9,9.9,38.5,9.6c15.5-0.2,30.6-0.4,45.7,4.5c14.9,4.7,28.5,11.7,40.7,21.7
		c19.7,16.4,32,39.5,35,64.1c34.8,42.3,23.9,105-9,145.2c-21.3,26.1-49.6,45.5-79.6,61.4c-28.4,15-60.3,25.6-85.8,45.3
		c-12.9,9.7-22.4,21.4-29.8,35.5c-7.8,14.5-14.4,29.7-25.6,41.9c-19.8,21.7-50.3,23.4-77.7,17c-13.6-3.3-26.8-8.3-39.8-13.8
		c-17.2-7.1-34-14.8-49.8-24.5c-27.1-16.4-51.2-39-63.1-68.2c-5.5-13.1-8.7-27-8.2-41.2c0.4-13.1,5.3-25.6,5.2-38.8
		c0-5.1-1.3-9.9-5.2-13.9c-4.5-4.8-11-7.1-17.2-9c-15-4.4-30.7-6.3-44.3-14.4c-25.4-14.8-39.9-43.2-43.1-71.2
		c-3.4-31.6,7.6-62.5,22.2-90.3C4890.6,2598.3,4909.7,2569.1,4932.9,2544.8z M4931.7,2769.4c3.8-0.9,4.2-6.3,0.4-7.5
		c-2.3-0.5-5.5-2.9-8.1-4.4c-3-1.9-5.4-3.9-7.5-6.8c-4.9-6.2-15.9,1.3-11.6,7.8c2.9,4.4,7.1,8,12.1,10.2
		C4922.2,2771.3,4926.3,2770.7,4931.7,2769.4z M4976.1,2669.5c-2.9,44,17.8,85.5,42.7,121.1c14.3,20.2,30.6,39.8,52.3,52.9
		c19.8,12.1,43.1,17.4,66.3,19c42.8,2.9,88.9-4.9,125.6-27.4c18.2-11.2,34-25.8,45.5-43.6c4.5-7.1,8.3-14.7,11.4-22.6
		c12.6-25.1,15.3-56.2,0.9-81.1c-16.7-29.5-52.2-45.7-86-46.3c-31.7-0.6-62,10.5-88.9,25.6c-3.9-31.4-15.8-64.4-42.7-83.6
		c-23.7-17-57.5-20.7-80.8-1.1c-6.4,5.5-11.7,12.1-15.8,19.3c-1.3,1.3-2.9,2.9-4,4.4C4986.1,2623.8,4977.8,2646.1,4976.1,2669.5z
		 M5113.9,2987.1c4.7,0,9.6-0.1,14.3-1.3c2.3-0.5,4.3-1.3,6.4-2.2c2.3-0.9,3.9-2.3,6.1-3.4c3-1.6,2.4-7.1-1.6-6.9
		c-3.9,0.2-8.2-0.6-12.2-0.5s-8.3,0.4-12.5,0.1c-7.8-0.4-15.4-1.9-22.6-4.2c-16.4-5.5-30.4-16.9-39.3-31.4c-4.9-8-18.3-1.3-13.4,6.7
		c10.5,17.6,27.3,31.1,47.1,38.1C5095.1,2985.4,5104.4,2987.1,5113.9,2987.1z M5018.7,2919.4c7.1,4.6,14-6.2,7.1-10.6
		C5018.7,2904.2,5011.6,2914.8,5018.7,2919.4z M5188.3,2528.5c0-0.1,0.1-0.1,0.1-0.2c2.2-3-0.2-6.8-3.7-7.5c-2-0.8-4.3-0.4-6.3,0.2
		c-2,0.6-4.3,1.3-6.2,2.2c-3.5,1.9-4.9,5.9-3,9.6s6.3,4.4,9.9,2.9c1.9-0.6,3.5-1.9,5.1-2.9C5186,2531.7,5187.5,2530.2,5188.3,2528.5
		z M5418.1,2757.2c0.9-3.8,1.3-7.8,0.6-11.7c-0.2-1.8-0.8-3.3-1.3-4.8c-0.8-1.8-2.2-2.9-2.9-4.2c-2-3-7.8-2.6-7.8,1.6
		c0,2.4-1.1,5.5-1.3,8c-0.4,2.3-0.6,4.6-1.3,6.9c-1.3,4.8-3.9,8.6-7.5,12.2c-6.6,6.9,2.8,17.3,10.2,11
		C5412.4,2771.6,5416.5,2764.3,5418.1,2757.2z"/>
	<path class="st7" d="M5219.1,2835.5c0.1-0.1,0.4-0.4,0.4-0.4c1-0.2,2-0.4,2.9-0.6C5221.4,2834.7,5220.3,2835.2,5219.1,2835.5z"/>
	<path class="st7" d="M5042,2791.3c4.8,5.7,9.6,11.3,14.5,17C5051.5,2802.8,5046.5,2797.1,5042,2791.3z"/>
	<path class="st0" d="M5396.4,2765.4c3.5-3.7,6.2-7.3,7.5-12.2c0.6-2.3,1-4.5,1.3-6.9c0.4-2.6,1.3-5.6,1.3-8c0-4.2,5.7-4.7,7.8-1.6
		c0.9,1.5,2.4,2.6,2.9,4.2c0.5,1.5,1.1,3,1.3,4.8c0.5,3.9,0.2,7.9-0.6,11.7c-1.8,7.1-5.7,14.3-11.4,19
		C5399.1,2782.6,5389.9,2772.2,5396.4,2765.4z"/>
	<path class="st0" d="M5039,2944.1c-4.9-8,8.5-14.7,13.4-6.7c8.9,14.4,22.9,25.8,39.3,31.4c7.2,2.4,14.9,3.8,22.6,4.2
		c4,0.2,8.3,0,12.5-0.1c3.9-0.1,8.3,0.8,12.2,0.5c3.9-0.2,4.7,5.3,1.6,6.9c-2.2,1.1-3.8,2.6-6.1,3.4c-2.2,0.9-4.2,1.6-6.4,2.2
		c-4.5,1.1-9.5,1.3-14.3,1.3c-9.5-0.1-18.9-1.8-27.7-4.8C5066.4,2975.2,5049.7,2961.7,5039,2944.1z"/>
	<path class="st0" d="M5025.5,2908.9c6.9,4.6,0,15.3-7.1,10.6C5011.6,2914.8,5018.7,2904.2,5025.5,2908.9z"/>
	<path class="st0" d="M4904.8,2758.8c-4.3-6.4,6.7-13.9,11.6-7.8c2.3,2.9,4.5,4.8,7.5,6.8c2.8,1.5,5.9,3.7,8.1,4.4
		c3.9,1.1,3.5,6.4-0.4,7.5c-5.4,1.3-9.6,1.9-14.8-0.4C4911.7,2766.9,4907.9,2763.3,4904.8,2758.8z"/>
	<path class="st0" d="M5179.1,2535.9c-3.5,1.3-8.2,0.6-9.9-2.9c-1.9-3.7-0.4-7.6,3-9.6c1.9-1,4-1.5,6.2-2.2c2-0.6,4.3-1,6.3-0.2
		c3.5,0.5,5.8,4.4,3.7,7.5c0,0.1-0.1,0.1-0.1,0.2c-0.8,1.9-2.4,3.3-4.2,4.4C5182.6,2534,5180.8,2535.3,5179.1,2535.9z"/>
	<path class="st0" d="M5006.2,2601.6c-11.6,20.6-13.6,46.9-11.1,69.5c7.9,67.9,60.6,118.5,109.4,163.4c2.4,2.2,5.4,3,8.3,2.8
		c19.7,2.9,40.4,3.4,60.4,2.9c15.5-0.4,31.3-1.8,46.6-4.7c-0.1,0.1-0.4,0.4-0.4,0.4c1.1-0.4,2.3-0.6,3.4-1.1c4-0.9,8.2-1.9,12.2-2.9
		c32.6-9.2,64.3-27.5,81.7-56.7c1.1-1.9,2.3-3.9,3.2-6.1c-2.9,7.9-6.7,15.5-11.4,22.6c-11.4,17.8-27.3,32.3-45.5,43.6
		c-36.6,22.5-82.7,30.3-125.6,27.4c-23.2-1.5-46.3-7.1-66.3-19c-21.7-13.1-38-32.6-52.3-52.9c-24.9-35.6-45.6-77-42.7-121.1
		c1.6-23.4,10-45.7,25.9-63.5C5003.4,2604.4,5004.9,2603.1,5006.2,2601.6z M5056.5,2808.3c-4.8-5.7-9.6-11.3-14.5-17
		C5046.5,2797.1,5051.5,2802.8,5056.5,2808.3z"/>
	<path class="st8" d="M5234.5,2831.5c-3.9,1.3-8.2,2.2-12.2,2.9c-0.9,0.2-2,0.4-2.9,0.6c-15.3,2.9-30.9,4.4-46.6,4.7
		c-20.1,0.5-40.5,0.2-60.4-2.9c-2.9,0.4-6.1-0.5-8.3-2.8c-48.6-44.9-101.3-95.5-109.4-163.4c-2.5-22.6-0.4-48.7,11.1-69.5
		c3.9-7.2,9.1-13.8,15.8-19.3c23.4-19.7,57.2-15.9,80.8,1.1c26.7,19.3,38.8,52.4,42.7,83.6c27.1-15.4,57.5-26.4,88.9-25.6
		c34,0.6,69.3,16.8,86,46.3c14.3,25.1,11.9,56-0.9,81.1c-1,2.1-2.2,4-3.2,6.1C5299,2804,5267.4,2822.2,5234.5,2831.5z
		 M5252.3,2681.1c-4.5-0.6-8.5,3.8-8.7,7.8c-0.2,4.7,3.5,7.6,8.1,8.3c15.5,2.3,29.3,12,36,25.8c2.9,6.3,4.3,13.5,4.2,20.5
		c-0.1,3.7-0.5,7.2-1.3,10.7c-0.9,3.4-2.8,6.8-3.4,10.3c-0.5,2.8,0.1,5.5,2.8,7.1c2.3,1.3,5.9,1.3,7.8-0.6
		c6.6-7.1,8.9-18.3,9.1-27.5c0.4-9.2-1.6-18.7-5.5-27C5292.4,2697.6,5273.2,2684.4,5252.3,2681.1z M5066.5,2603.9
		c-10.5-2.1-21.2,1-29.5,7.5c-7.2,5.8,2.8,16.3,9.9,10.5c4.7-3.8,11-5.7,17.2-4.7c3.7,0.5,6.9,2.3,9.9,4.2s6.1,3.4,8.9,5.4
		c1.9,1.3,4.9-0.2,4.8-2.3c-0.4-5.5-1.9-9.6-6.3-13.3C5077,2607.4,5071.8,2605,5066.5,2603.9z M5207.9,2683.2
		c6.7,4.4,13.4-5.8,6.7-10.2C5207.7,2668.5,5201.2,2678.8,5207.9,2683.2z"/>
	<path class="st7" d="M5306.6,2743.4c-0.4,9.2-2.5,20.5-9.1,27.5c-1.9,1.9-5.5,1.9-7.8,0.6c-2.5-1.5-3.2-4.4-2.8-7.1
		c0.8-3.5,2.4-6.8,3.4-10.3s1.3-7.1,1.3-10.7c0.2-7.1-1.1-14.1-4.2-20.5c-6.7-13.8-20.3-23.5-36-25.8c-4.5-0.6-8.2-3.7-8.1-8.3
		c0.1-3.9,4-8.5,8.7-7.8c20.8,3,40,16.4,48.6,35.2C5304.9,2724.9,5306.9,2734.2,5306.6,2743.4z"/>
	<path class="st7" d="M5214.7,2673c6.7,4.4,0,14.7-6.7,10.2C5201.2,2678.8,5207.9,2668.5,5214.7,2673z"/>
	<path class="st7" d="M5087.4,2624.5c0.2,2.3-2.9,3.7-4.8,2.3c-2.9-1.9-5.9-3.5-8.9-5.4c-2.9-1.9-6.3-3.7-9.9-4.2
		c-6.2-1-12.4,1-17.2,4.7c-7.1,5.9-17-4.6-9.9-10.5c8.3-6.7,18.8-9.6,29.5-7.5c5.5,1.1,10.5,3.4,14.8,7.1
		C5085.7,2614.8,5086.9,2618.8,5087.4,2624.5z"/>
</g>
<g>
	<g>
		<path class="st9" d="M7159.8,2601.5c-9-10.6-22.4-13.8-35.2-8.7c-9.2,3.6-15.5,10.3-21.2,17.6c-0.3-5.4-1.8-10.8-5.1-16.6
			c-6.2-10.4-16.4-14.8-26.3-14.4c0.8-21.2-8.9-42.8-31.5-45.4c-2.5-1.2-5.4-0.9-7.6,0.4c3.1,5.6,5.3,11.9,6.3,17.9
			c2.4,13.5,0,26.8-6,38.6c8.4,0.1,16.8,2.8,23.7,7.1c12.7,8.3,18.2,21.8,19.9,36.2c18.1-7.2,40.1-7.7,56.1,3.5
			c7.9,5.4,12.4,12.3,14.6,20.2C7165.3,2643.8,7177.3,2622.2,7159.8,2601.5"/>
		<path class="st9" d="M7045.7,2614.4c3.4,3.4,6.3,7.2,8.5,11.3C7052.6,2621,7049.5,2617.1,7045.7,2614.4z"/>
		<path class="st9" d="M7137.4,2716.3c6,2,12.3,2.7,18.4,0.6c8.9-3.2,15.9-11.9,15.3-21.6c-0.6-10.6-10.7-17.8-20.9-16.9
			c-0.4,0-0.7,0.1-1.2,0.2c-0.6,5.9-1.9,11.9-3.7,17.6C7143.3,2703,7140.5,2709.8,7137.4,2716.3z"/>
		<path class="st9" d="M6967.5,2529.4c0.2-0.5,0.4-1,0.6-1.4c2.1-4.9,1.2-10.7-3.8-13.7c-4.4-2.5-11.2-1.1-13.7,3.8
			c-1,2.3-2.2,4.5-3.3,6.8c-0.4,0.5-0.6,0.9-0.9,1.5c-3.1,7.2-9.1,15.8-7.4,23.8c1.4-1.1,2.7-2,4.1-3.1
			C6951,2541.1,6959.2,2535.1,6967.5,2529.4z"/>
		<path class="st10" d="M6771.6,2870l16.4,19.2c15.4-9.9,31.3-18.9,47.7-27c24.7-12.2,50.5-21.7,76.9-29.2c13.1-1.8,26.4-4.4,39-6.1
			c21.4-3,42.8-5.7,64.1-9c37.8-5.9,75.6-15.2,106.7-38.5c7.6-5.6,0-18.5-7.7-12.8c-22.6,17.1-48.8,26.2-75.9,32.4
			c7.8-3.3,15.5-7.1,22.9-11.6c3.3-2,7-4.3,10.9-7c13.2-5.4,26.5-16.4,34-22.9c4.5-4,8.8-8.3,12.7-13c6.3-4.3,11.1-11.3,13.4-19.2
			c1.7-2.9,3.2-5.8,4.7-8.8c3.1-6.6,5.9-13.2,8.1-20.3c1.7-5.7,3.1-11.8,3.7-17.6c0.6-7,0.4-14.2-1.5-20.5
			c-2.3-7.7-6.8-14.7-14.6-20.2c-16.1-11.1-38-10.7-56.1-3.5c-1.7-14.4-7.2-27.9-19.9-36.2c-6.8-4.5-15.3-7.1-23.7-7.1
			c6.1-11.7,8.4-25.1,6-38.6c-1.1-6-3.2-12.2-6.3-17.9c-5.3-9.7-13.1-18-23.4-21.2c-3-2.2-7-3.1-10.5-1.5
			c-10.7,4.6-21.2,11-31.3,17.9c-8.3,5.7-16.6,11.7-24.3,17.6c-1.4,1.1-2.7,2-4.1,3.1c-15.3,11.8-29.6,24.4-41.7,39.3
			c-6.1,7.5-11.8,15.5-16.4,24c1.6-10.3,4.3-20.5,8.4-30.8c4.6-11.8,10.8-23,18-33.5c7.1-10.5,16.7-19.6,22.4-31
			c0.8-1.5-0.6-3.6-2.4-3.1c-20.3,7.4-34.4,30.1-44,48.4c-11.4,22-18,46.5-20,71.3c-0.8,9.3-0.6,18.8,0.3,28.1c-2.1,14-3,28-4.3,42
			c-4,43.2-16.8,83.7-41.6,119.7 M6825.4,2834c30.4-29.3,50.4-63.7,64.7-103.2c12.8-35.4,22.6-72.2,40.3-105.5
			c15.9-29.8,36.7-51,67.1-65.9c1.4-0.7,2.6,1.2,1.3,2.1c-30.5,20-51.7,56.2-66,89c-15.6,36.2-24.9,74.8-40.7,110.8 M6862.2,2835.4
			c43.1-40.6,80.7-88.9,126.1-127c2.3-2,6.5,0.6,4.5,3.6c-32.4,50.4-83.1,88.8-130,124.6C6862.4,2836.8,6861.7,2835.9,6862.2,2835.4
			z M7050.3,2688.7c-2.3-3.9-0.8-8.9,2.9-11.3c6.3-4,13.1-9.2,20.9-9.4c4.2-0.2,6.2,4.3,4.6,7.7c-3.2,7.1-11,11.4-17.1,15.7
			C7057.9,2694.1,7052.5,2692.2,7050.3,2688.7z M7056.7,2765.5c-10.4,6-21.1,11.1-32.2,15.4c-22.2,8.5-47,15.6-70.6,10.6
			c-2.1-0.5-1.9-3.3-0.1-4c21.7-8.4,45-11.8,66.7-20.6c12.1-4.9,23.8-11,34.9-17.9c7.9-4.9,14.3-10.6,23.5-11.9
			c3.7-0.6,5.2,4,4.1,6.7C7078.6,2753.9,7066,2760,7056.7,2765.5z M7036.1,2644.4c-2.4,4.6-8.6,5.5-12.6,2.6
			c-4.3-3.2-4.3-8.9-1-12.8c4-4.5,8.1-10.2,14.5-11.1c1.9-0.3,4,1.5,4.4,3.3C7043.1,2632.6,7038.7,2639.3,7036.1,2644.4z
			 M7054.3,2625.6c-2.4-4.1-5.2-7.9-8.5-11.3C7049.5,2617.1,7052.6,2621,7054.3,2625.6z M6895.3,2654.3c-3.8,0.3-6.7-2.6-7.9-5.8
			c-1-2.5-0.4-6.2-0.1-8.9c0.4-2.6,1.1-5,3.1-6.8c1.7-1.6,4.9-2.5,6.9-1c2.6,1.9,3.9,4.2,4.8,7.2c0.8,2.9,1.6,6.3,0.7,9.2
			C6902,2651.8,6898.9,2654.1,6895.3,2654.3z"/>
		<path class="st9" d="M6892.1,2761.5c16-36,25.2-74.7,40.7-110.8c14.2-32.8,35.3-69.1,66-89c1.3-0.8,0.2-2.7-1.3-2.1
			c-30.4,14.8-51.2,36-67.1,65.9c-17.9,33.5-27.8,70-40.3,105.5c-14.2,39.5-34.2,73.8-64.7,103.2"/>
		<path class="st9" d="M7037,2623.2c-6.3,0.8-10.5,6.6-14.5,11.1c-3.3,3.9-3.2,9.5,1,12.8c3.9,2.9,10.1,2,12.6-2.6
			c2.7-5.2,7-11.8,5.5-18C7041.1,2624.7,7038.9,2622.9,7037,2623.2z"/>
		<path class="st9" d="M7074,2668c-7.8,0.3-14.4,5.5-20.9,9.4c-3.8,2.3-5.1,7.4-2.9,11.3c2.1,3.5,7.7,5.4,11.3,2.8
			c6.1-4.3,14-8.6,17.1-15.7C7080.2,2672.3,7078.3,2667.9,7074,2668z"/>
		<path class="st9" d="M6902.2,2639.1c-0.8-3.1-2.1-5.4-4.8-7.2c-2.1-1.5-5.3-0.6-6.9,1c-1.9,1.9-2.7,4.3-3.1,6.8
			c-0.3,2.7-1,6.3,0.1,8.9c1.4,3.2,4.2,6.1,7.9,5.8c3.6-0.2,6.7-2.5,7.7-6C6903.8,2645.5,6903,2641.9,6902.2,2639.1z"/>
		<path class="st9" d="M6988.3,2708.3c-45.5,38.1-83.1,86.3-126.1,127c-0.6,0.5,0.3,1.5,0.8,1c46.9-35.8,97.6-74.2,130-124.6
			C6994.8,2708.9,6990.7,2706.4,6988.3,2708.3z"/>
		<path class="st9" d="M7078.8,2736.9c-9.3,1.3-15.7,7.2-23.5,11.9c-11.1,6.8-22.8,12.9-34.9,17.9c-21.7,8.9-45,12.3-66.7,20.6
			c-1.8,0.6-2,3.5,0.1,4c23.7,5,48.5-2.1,70.6-10.6c11.2-4.3,21.9-9.3,32.2-15.4c9.3-5.5,21.8-11.5,26.2-21.7
			C7084,2741,7082.7,2736.5,7078.8,2736.9z"/>
	</g>
	<g>
		<path class="st11" d="M6811.4,2822.3c2.9,3,0.7,8.5-3.8,7.6c-14.5-3.1-24.1-14.3-37.7-5.4c-3.1,2.1-13.9,5.7-16.6,8.3
			c1.6,1.4,8.9,10.9,10.1,12.6c2.1,2.8,4.1,5.8,6,8.7c2.8,4.2,1.2,10-3.2,12.1c-5,2.5-9.4-0.2-11.8-4.7c-1.5-3-3.6-6.5-5-10.1
			c-0.9,1.2-5.5-6.4-7.1-6.1c-19.2,3.5-38.5,31.6-37.2,44.8l0.8,21.9c1.8-6.4,0.7,15.5,11.7,37c8,15.6,26.7,26.3,26.7,26.2
			c-3.1-18.5,12.7-15.7,12.9-14.8c36,7,44.5-22.9,48.8-24.8c48-22.2,36.5-53.9,37.3-57.6c5.5-22.2-5.7-26.6-15.4-36.6
			c-0.8-0.9-0.8-2.3-1.5-3.5c-2.2-4.7-5.6-8.8-9.6-12"/>
		<path class="st12" d="M6811.4,2822.3c-15.5-15.9-48.4-8.1-63.8,2.2c-9.7,6.6-21.8,10.4-37.4,35.3c-7.2,11.7-8.1,32.1-7.9,36.5
			c1.9,27.7,32.8,53.8,32.9,53.7c-9.2-16.1-25-37.9-23.8-52.5c1.5-17.9,4.2-18.6,4.8-17.6c2.2,3.5,12.9,11.9,16.5,14
			c9.4,5.2,15.5-4.5,2.5-14.3c-10.6-7.9-8.1-14.1-10-15.5c6.7-14.5,15.8-15.9,16.8-17.1c1.4,3.6,10.9,11.9,12.5,14.9
			c2.2,4.5,6.8,7.2,11.8,4.7c4.3-2.3,6.1-8,3.2-12.1c-1.9-3-3.9-6-6-8.7c-1.3-1.7-4.9-6.9-6.6-8.2c2.7-2.8,7.1-5.7,10.7-7.2
			c19.9-8.1,25.3-3.3,39.8-0.2C6812.2,2830.9,6814.3,2825.3,6811.4,2822.3"/>
		<path class="st12" d="M6817.1,2903.7c-3.2-1.5-6.6-2.4-10-3.9c-4.5-1.9-10.4,4-6.5,8.1c2.7,2.9,4.9,6.1,7.7,8.9
			c2.8,2.7,5.6,5.4,8.5,7.9c1.9,1.7,4.2,2.1,6.5,2.1c3-0.3,5.9-1.9,7.4-4.5c3.1-5.1,0.8-10.7-4.2-13.4c-0.1,0-0.2-0.2-0.3-0.1
			C6823.4,2906.8,6820.3,2905.1,6817.1,2903.7z"/>
	</g>
</g>
<g>
	<g>
		<g>
			<g>
				<path class="st2" d="M3103.1,2342.6c29.4,2.2,58.9,4.3,88.4,6.4C3162.1,2346,3132.6,2343.9,3103.1,2342.6z"/>
				<path class="st13" d="M3676.7,2710.4c16.6-17.1,39.3-38.2,52.1-58.2c20.7-32.6,49.6-69.6,58.6-106.9
					c-26.9-5.4-59.9-18.2-90.5-27.7c-2.8,6.4-28.8,42.2-38.2,52.6c-10.4,12-22,21-34.4,28c-2.9,12.5-6.8,24.9-11.7,36.9
					c19.2,28,35,57.9,47.3,89.5c2.1-1.1,4.2-2.4,6.1-3.8C3669.5,2717.7,3673.1,2714.4,3676.7,2710.4z"/>
				<path class="st7" d="M2637,2337.9c56.1-29.4,125.2-41.6,185.8-52.5c69.3-12.4,139.5-19.1,210-19.8
					c128.9-1.1,258.4,16.4,381.4,55.7c90.9,29.1,188.4,80.1,210.7,181.6c4.7,21.3,6,42.6,4.3,63.4c3.1,10.4,21.3-15.2,26.6-23.4
					c3.2-6.8,16.6-19.8,19.9-32c1.7-5.8-15.3-5.3-13.5-11.1c2.4-7.1,3.8-19.4,6.4-24.8c3.6-6.8,17.4-11.1,22.1-11.8
					c0,0,45.7-2.4,74.9,14.5c21.6,4.9,83.4,29.9,79.9,38.8c-2.9,7.4-5.7,14.8-8.8,22.1c-13.2,31.5-32.6,16.6-34.3,17.1
					c15.9,1.4-31.9,81.9-58.5,119.9c-19.4,35.4-68.6,76-73.9,79c26.5,83.1,9.7,145.4-12,231.4c-11.8,46.2-132.3,363.6-153.6,402.6
					c3.8-1.9,86.7,7.8,86.7,7.8c124.8-55.4,237.6-394.3,260.5-420.5c9.2-18.1,11.1-16.4,7.8-10.4c1-1.4,21.6-34,30.1-49.3
					c9.7-17.3,18.5-35.1,26.7-53.1c3.1-7,23.5-62.1,26.3-71.4c5.2-17.4,10-35.1,14.5-52.6c8.6-35.2,15.3-70.9,20.5-106.8
					c1.1-8.2,3.2-26.7,3.2-28c0.8-15.5,2.1-30.9,2.4-46.4c0.1-5.2,0.1-10.4,0.3-15.7c-36.5-35.4-73-70.6-109.2-105.8
					c-16.4-16-33.7-31.3-51.5-46.1c-7.1-5.8-14.2-11.7-21.3-17.3c-0.3-0.3-43.6-31.5-52.9-38.2c-15-10.3-30.1-20.5-45.1-30.6
					c-77.1-52.4-150.5-108.8-224.7-164.9c-2.2-1.7-4.5-3.2-6.7-5c-0.3-0.3-0.7-0.6-1-0.8c-9.2-6.4-18.4-13.1-27.6-19.4
					c-14.8-10-29.7-19.9-45.1-29.2c-30.1-18.4-65.9-30.1-95.7-48.6c-2.8-0.8-5.3-1.7-8.1-2.4c-10.2-3.1-20.5-5.7-30.9-7.9
					c-12.7-2.9-25.3-5-38.3-7c-27.3-1-54.3-1.7-81.5,0.1c-11.3,0.8-22.6,1.8-33.7,3.1c-3.1,0.3-6,0.8-9.1,1.1
					c-52.9,12.1-104.9,24-156.1,42.3c-14.5,5.2-29,10.9-43.3,16.6c-2.1,1-4.2,1.7-6.4,2.6c-23.3,14.1-50.8,23.5-74.9,36.2
					c-288.8,181.6-338.2,325-338.2,325c2.6-2.6,17.8-26.2,20.9-28.7C2542.7,2387.9,2583.7,2347.9,2637,2337.9z"/>
				<path class="st14" d="M3695,3079.9c26.6-96.4,2.5-242-23.9-325c-15.2-41.4-25.6-83-58.2-119.9c4.9-12,8.8-24.2,11.7-36.9
					c2.4-10.4,4-21.2,4.9-31.9c1.7-20.7,0.3-42.1-4.3-63.4c-22.4-101.6-119.8-152.5-210.7-181.6c-123-39.3-252.5-56.8-381.4-55.7
					c-70.5,0.7-140.6,7.2-210,19.8c-60.6,10.9-119.3,21.3-176,41.6s-120.6,57.1-143.6,90.5c-23,33.4-46.9,86.1-49.6,88.7
					c0,0-12.1,168.3-62.5,281.6c-108.1,242.3,183.8,601.8,183.8,601.8h929.7C3509.5,3382.9,3653.8,3238.4,3695,3079.9z
					 M3470.5,3077.7c-2.8,4.5-7.2,6.8-12.3,6.8c-3.8,1.1-8.2,0.8-11.4-1c-7.1-3.8-7.8-12.1-4.9-18.5c1.7-3.8,4.7-7,7.1-10.2
					c4.2-5.8,10.9-8.6,17.5-5.7c6.7,2.8,9.7,9.7,8.2,16.7C3473.7,3069.9,3472.9,3073.9,3470.5,3077.7z M3381.3,3019.8
					c-16.6-18.2-12.7-49.2,0.8-69.5c17.3-26,52.4-43.6,81-23.9c32.9,22.4,14.5,63.9-5.3,88C3438.4,3038.2,3399.9,3053,3381.3,3019.8
					z M2538.4,2707.2c-1.9-1.4-0.8-5,1.8-4.2c1,0.3,1.7,0.7,2.6,1c-12.3-11.8-22.4-24.8-29-39.1c-1.7-3.5,1.7-7.5,5.4-5.4
					c28.3,15.9,51,40.1,79.1,56.5c21.6,12.8,61.5,36.9,85.5,45.3c23.8,6.3,44.6,14.9,68.5,21.4c49.2,11.1,137.7,36.9,187.7,41.1
					c159.6,13.5,266-30.1,423.7-57.5c8.1-1.4,14.3,2.1,18.2,7.2c30.6-1.3,41.6,45.5,9.1,54.7
					C3117.5,2906.3,2773.7,2874.5,2538.4,2707.2z M2615.6,2636c61.8,17.4,117,53.9,178.8,72.7c68,20.5,133,20.1,202.7,25.6
					c15.3,1.1,21,25.5,3.9,28.7c-69.1,12.1-148.7-3.2-215.1-23.3c-61.8-18.8-133.5-46.2-172.5-100.5
					C2612.2,2637.3,2614,2635.5,2615.6,2636z M3064.2,2749.2c1.7-1.9,3.1-3.8,5.7-5.2c2.1-1.1,4.7-1.9,7.1-2.6
					c5-1.3,10.4-1.7,15.7-1.1c9.5,0.7,16.6,7.2,17,17c0.3,9.5-8.1,16.4-17,17c-5.2,0.3-10.7,0-15.7-1.3c-2.4-0.7-5-1.7-7.1-2.8
					c-2.6-1.4-4-3.2-5.7-5.3C3057.9,2761.5,3057.8,2752.4,3064.2,2749.2z M3443.4,2751.4c1.8-1,3.5-2.2,5.3-3.2
					c8.2-4.9,18.2-2.2,23.8,4.9c1.4,0.6,2.9,1.1,4.2,2.1c11.4,7.5,13.9,22.1,8.2,34.1c-5.4,11.1-18.8,17.5-30.9,14.5
					c-7.1-1.8-13.2-5.7-17.4-11.6c-5-7.2-5.7-15.9-1.9-23.8c0.1-0.3,0.3-0.3,0.6-0.7C3434.6,2761.2,3437.8,2754.9,3443.4,2751.4z
					 M2523.9,2415.7c0.6-0.3,1.3,0.3,1,1c-15,23.1-19.2,46.9-14.1,68.6c2.2-11.3,7.1-22.3,14.8-32.2c1.4-1.8,3.1-3.8,4.6-5.7
					c-3.1,0.1-5.2-2.4-4.5-5c2.6-2.9,5.4-5.7,8.6-8.5c1-1,1.7-1.9,2.1-3.1c15.2-14.1,34.1-25.5,54.2-35.1c1.8-1.4,3.8-2.2,5.8-2.8
					c32.6-14.9,68.2-25.3,98.4-35c62.4-19.5,126.4-32,191.3-40.2c117.7-15.2,238.2-15.2,355.9,0.3c97.1,12.8,200.1,40.8,272.4,110.7
					c1.3-4.7,7.4-6.8,10.9-1.7c7,10.4,12,22.8,15.5,35.9c12.4,37.2,10.2,72-2.6,103c-7.2,25.3-20.1,51.1-41.5,60.3
					c-0.3,0.1-0.8,0.3-1.1,0.3c-5,4.9-10.4,9.3-15.9,13.8c-12.4,9.7-26,18.4-40.5,26c-12.7,6.4-26,12.3-39.5,17.1
					c-104.7,36.2-222.7,43.2-332.2,38.2c-115.3-5.3-229.8-29.4-337.7-70.2c-6.4-2.4-14.9-5.7-24.6-9.5c-18.1-7.2-40.9-17-64.6-28.5
					c-10.4-5-21.2-10.7-31.6-16.6c-39.1-3.9-82.4-41.2-99.7-69.8C2487.3,2491.9,2484,2439,2523.9,2415.7z"/>
				<path class="st15" d="M3382.2,2773.6c-3.9-5.2-10.3-8.6-18.2-7.2c-157.6,27.4-274,53.5-433.6,40
					c-49.8-4.3-105.4-14.3-154.4-25.3c-23.9-6.7-84.7-27.4-108.5-33.7c-23.9-8.4-71.3-39.5-93-52.4c-28-16.7-79.8-68-78.1-64.6
					c-33.4-15-8.6,35.6,23.4,62.5c32,26.9,43,37.6,45,39.1c235.3,167.2,553.1,174.3,826.6,96.4
					C3423.7,2819.1,3412.9,2772.3,3382.2,2773.6z"/>
				<path class="st15" d="M3436.5,2792c4.2,6,10.4,9.7,17.4,11.6c12.1,3.1,25.3-3.2,30.9-14.5c5.7-11.8,3.2-26.6-8.2-34.1
					c-1.3-1-2.8-1.7-4.2-2.1c-5.4-7.1-15.5-9.5-23.8-4.9c-1.8,1-3.5,2.1-5.3,3.2c-5.7,3.5-8.9,9.7-8.4,16.2
					c-0.1,0.3-0.3,0.3-0.6,0.7C3430.8,2776.2,3431.7,2784.7,3436.5,2792z"/>
				<path class="st15" d="M3544.9,2531.3c-1.3,10.3-3.8,22.6-7.1,35c12.8-30.9,15-65.9,2.6-103
					C3546.5,2485.6,3547.7,2510,3544.9,2531.3z"/>
				<path class="st15" d="M2553.6,2541.2c4.9,3.1,10,5.7,15.5,7.8c22.3-27.4,63.5-42.9,94.1-56.8c38.4-17.5,78.4-32.3,119.1-43.7
					c84.5-23.5,173.4-33.4,260.9-29.4c90,4.2,179.6,22.1,263.3,55.7c62.5,25.2,134.4,59.2,183.7,109.7c8.5-16.2,19.2-32,23.9-50.1
					c9.2-36.2,5.3-65.9,0-102.1c-0.1-1,0-2.1,0.3-3.1c-72-69.9-175.4-97.9-272.4-110.7c-117.7-15.5-238.2-15.5-355.9-0.3
					c-64.7,8.4-128.8,20.7-191.3,40.2c-30.2,9.5-65.9,19.9-98.4,35c-1.9,0.6-3.9,1.3-5.8,2.8c-20.1,9.7-38.8,21.2-54.2,35.1
					c-0.3,1-1,2.1-2.1,3.1c-3.1,2.9-6,5.7-8.6,8.5c-0.8,2.6,1.4,5.2,4.5,5c-1.7,1.8-3.1,3.8-4.6,5.7c-7.8,9.9-12.5,20.9-14.8,32.2
					C2516,2506.9,2530.6,2526.4,2553.6,2541.2z"/>
				<path class="st12" d="M3219.9,2655.5c11.1-0.1,22.4-0.1,33.6-0.3c-11.4-0.8-23.1-1.4-34.7-1.9
					C3219.2,2653.8,3219.6,2654.7,3219.9,2655.5z"/>
				<path class="st12" d="M3345.8,2668.7c3.9-1,7.8-1.7,11.8-2.6c-4.5-0.7-8.9-1.1-13.2-1.7
					C3344.8,2665.7,3345.2,2667.3,3345.8,2668.7z"/>
				<path class="st12" d="M3375.3,2547.5c-57.5-42.3-128.2-70.6-194.8-84.5c-50.3-10.4-101.8-13.2-153-7.8c-8.1,1-16.7,1.9-25.3,3.2
					c15.2,1.9,29.5,5.7,42.1,12.8c5.2,3.1,4,11.1-1.7,12.7c-35.4,9.9-79-0.3-115.9-1c-17-0.3-34.1-1-51.5-1.1
					c-92,18-180,58.5-235.5,131.4c23.5,11.6,46.4,21.3,64.6,28.5c60.3-49.4,145.7-74.6,220.8-88.1c5.3-1,10.7-1.8,15.9-2.8
					c0.8-0.6,1.4-1,2.2-1.7c4.7-3.3,9.5-3.1,13.4-0.7c71.3-9.5,143-7.4,213.9,4.3c13.5,2.2,9.1,22-3.1,22.7
					c-73,4.7-139.8,28.1-199.4,68c29.2-3.8,58.5-6.4,87.6-8.6c3.5-2.1,7.1-4,10.9-6c6.7-9.3,21.4-7.1,26,3.1
					c0.1,0.1,0.1,0.3,0.1,0.6c112.2-5.8,224.3-0.8,336.8,18c8.8,1.4,11.1,9.2,9.1,15.9c14.5-7.5,28.1-16.3,40.5-26
					C3454.4,2598.4,3417.6,2568.8,3375.3,2547.5z M3257.6,2587.7c-0.8,4.7-6,9.7-10.7,10.7c-18.8,3.5-45.8,12.7-64.5,5
					c-5.7-2.4-8.6-9.2-3.8-14.1c14.2-14.3,41.2-16.3,59.9-20.2c6.7-1.4,13.8,1,17.3,7.1C3258.5,2579.9,3258.3,2583.1,3257.6,2587.7z
					"/>
				<path class="st11" d="M3429.7,2650.8c-112.4-18.5-224.5-23.9-336.8-18c4.2,10.4-5,21.3-15.9,20.3c-5.2,1.7-10.4,3.5-15.7,4.7
					c-6.4,1.7-12.8,1.1-19.2,2.1c-4.9,0.7-10.7-5.7-5.7-9.7c5-4,9.5-8.9,14.9-12.5c1.4-1,3.1-1.8,4.5-2.8c-29.2,2.2-58.3,5-87.6,8.6
					c59.6-39.7,126.3-63.2,199.4-68c12.1-0.8,16.7-20.5,3.1-22.7c-71-11.8-142.7-13.8-213.9-4.3c8.9,5.2,13.2,20.7,1.3,25.9
					c-8.1,3.5-16.3,7.1-24.6,10.2c-8.2,3.1-16.6,4.5-25.2,6.4c-4.6,1-8.1-4.5-4.7-7.9c6-6.1,11.1-12.5,18-18
					c6.4-5,12.9-9.7,19.4-14.3c-5.3,0.8-10.7,1.7-15.9,2.8c-75.3,13.8-160.5,38.7-220.8,88.1c9.7,3.9,18.1,7.1,24.6,9.5
					c107.9,40.8,222.4,64.7,337.7,70.2c109.9,5,227.7-1.9,332.2-38.2c13.8-4.7,27-10.4,39.5-17.1
					C3440.9,2659.8,3438.5,2652.2,3429.7,2650.8z M3037.3,2574.9c5.8-10,17.5-12.5,25.9-19.9c7.9-7,20.2-5.3,24.5,4.9
					c4.3,10.3-3.2,20.2-13.9,21c-11,0.8-21,7.2-32.3,4.5C3037.2,2584.1,3035.1,2578.8,3037.3,2574.9z M2952,2639.8
					c-4.2,1.1-7.1-4.2-4.2-7.1c3.1-3.2,5-7.4,8.4-10.4c2.9-2.6,6.8-4.9,8.9-8.4c5-8.5,17.5-8.5,22.6,0c5.2,8.9-1.7,19.2-11.3,19.8
					c-3.8,0.1-7.8,2.8-11.1,3.9C2960.7,2639.1,2956.3,2638.7,2952,2639.8z M3183.7,2662.6c-7.5,2.6-15.2,4.5-22.6,8.2
					c-5.8,3.1-12.5-4.7-7.2-9.5c6.4-5.8,11.1-12.8,16.4-19.4c3.8-11,19.1-16.2,27.6-5C3206.8,2648.4,3195.9,2663.9,3183.7,2662.6z
					 M3219.9,2655.5c-0.3-0.8-0.7-1.7-1-2.2c11.7,0.6,23.1,1.1,34.7,1.9C3242.3,2655.4,3231,2655.4,3219.9,2655.5z M3345.8,2668.7
					c-0.3-1.7-1-3.1-1.7-4.5c4.5,0.6,8.9,1.1,13.2,1.7C3353.4,2667.1,3349.5,2667.8,3345.8,2668.7z"/>
				<path class="st11" d="M3239,2569c-18.8,3.9-45.8,5.7-59.9,20.2c-4.9,5-1.9,11.8,3.8,14.1c18.5,7.8,45.7-1.4,64.5-5
					c4.7-1,9.9-5.8,10.7-10.7c0.7-4.6,0.8-7.8-1.7-11.8C3252.6,2569.7,3245.5,2567.6,3239,2569z"/>
				<path class="st7" d="M2903.9,2583.2c-3.3,3.5,0,9.1,4.7,7.9c8.6-1.9,16.8-3.2,25.2-6.4s16.4-6.7,24.6-10.2
					c11.8-5.2,7.8-20.6-1.3-25.9c-3.9-2.4-8.8-2.6-13.4,0.7c-0.8,0.6-1.4,1-2.2,1.7c-6.4,4.7-13.1,9.3-19.4,14.3
					C2915.1,2570.7,2909.6,2577.1,2903.9,2583.2z"/>
				<path class="st7" d="M2987.6,2613.9c-5-8.5-17.5-8.5-22.6,0c-1.9,3.3-6,5.7-8.9,8.4c-3.3,3.1-5.2,7.2-8.4,10.4
					c-3.1,3.1,0,8.5,4.2,7.1c4.3-1.3,8.9-1,13.2-2.4c3.3-1.1,7.4-3.8,11.1-3.9C2985.9,2633.1,2992.8,2622.6,2987.6,2613.9z"/>
				<path class="st7" d="M3041.6,2585.2c11.1,3.1,21.3-3.8,32.3-4.5c10.4-0.8,18.1-10.7,13.9-21c-4.3-10.2-16.6-11.8-24.5-4.9
					c-8.2,7.1-19.9,9.7-25.9,19.9C3035.1,2578.8,3037.2,2584.1,3041.6,2585.2z"/>
				<path class="st7" d="M3036.5,2650.4c-5,4,0.8,10.3,5.7,9.7c6.4-1,12.9-0.7,19.2-2.1c5.2-1.3,10.4-3.1,15.7-4.7
					c10.9,1.1,20.1-9.7,15.9-20.3c-0.1-0.1-0.1-0.3-0.1-0.6c-4.6-10.3-19.4-12.5-26-3.1c-3.8,1.9-7.2,3.9-10.9,6
					c-1.7,1-3.1,1.7-4.5,2.8C3046.1,2641.4,3041.6,2646.3,3036.5,2650.4z"/>
				<path class="st7" d="M3170.3,2642c-5.3,6.7-10,13.5-16.4,19.4c-5.2,4.9,1.4,12.7,7.2,9.5c7.2-3.8,15-5.7,22.6-8.2
					c12.4,1.3,23.1-14.2,14.2-25.6C3189.4,2625.8,3173.9,2631.1,3170.3,2642z"/>
				<path class="st7" d="M3457.9,3014.5c19.9-24.2,38.2-65.6,5.3-88c-28.5-19.5-63.8-2.1-81,23.9c-13.4,20.3-17.3,51.2-0.8,69.5
					C3399.9,3053,3438.4,3038.2,3457.9,3014.5z"/>
				<path class="st7" d="M3466.5,3049c-6.8-2.9-13.5,0-17.5,5.7c-2.4,3.2-5.4,6.4-7.1,10.2c-2.9,6.4-2.1,14.9,4.9,18.5
					c3.2,1.7,7.8,2.1,11.4,1c5-0.1,9.7-2.4,12.3-6.8c2.4-3.8,3.2-7.8,4.2-12C3476.4,3058.9,3473.2,3051.8,3466.5,3049z"/>
				<path class="st7" d="M2785.9,2739.3c66.4,20.1,146.1,35.5,215.1,23.3c17.3-3.1,11.4-27.4-3.9-28.7
					c-69.6-5.7-134.5-5.2-202.7-25.6c-61.8-18.5-117.1-55.1-178.8-72.7c-1.7-0.3-3.3,1.4-2.2,3.1
					C2652.2,2693.1,2724.2,2720.7,2785.9,2739.3z"/>
				<path class="st7" d="M3069.8,2770.2c2.1,1.1,4.7,2.1,7.1,2.8c5,1.3,10.4,1.7,15.7,1.3c8.9-0.6,17.3-7.4,17-17
					c-0.3-9.7-7.4-16.3-17-17c-5-0.3-10.7-0.1-15.7,1.1c-2.4,0.7-5,1.4-7.1,2.6c-2.4,1.4-4,3.1-5.7,5.2c-6.4,3.2-6.4,12.3-0.1,15.7
					C3065.9,2766.9,3067.4,2768.7,3069.8,2770.2z"/>
				<path class="st16" d="M2608.3,2596.9c10.4,5.8,21.2,11.3,31.6,16.6c55.4-73,143.6-113.6,235.5-131.4c17.3,0.3,34.4,0.8,51.5,1.1
					c36.8,0.8,80.5,11,115.9,1c5.7-1.7,7-9.7,1.7-12.7c-12.4-7.1-26.9-10.9-42.1-12.8c8.6-1.3,17.1-2.4,25.3-3.2
					c51.1-5.7,102.8-2.9,153,7.8c66.6,13.9,137.3,42.2,194.8,84.5c42.3,21.3,79.1,51.1,104,93c5.7-4.5,11-9.1,15.9-13.8
					c0.3-0.1,0.8-0.1,1.1-0.3c21.3-9.2,34.1-34.8,41.5-60.3c3.5-12.4,5.8-24.6,7.1-35c2.8-21.3,1.4-45.7-4.6-68
					c-3.5-12.9-8.6-25.3-15.5-35.9c-3.2-5-9.3-3.1-10.9,1.7c-0.3,1-0.3,1.8-0.3,3.1c5.3,36.2,9.2,65.9,0,102.1
					c-4.6,18.1-15.3,34-24,50.1c-49.3-50.4-121.3-84.5-183.7-109.7c-83.5-33.6-173.4-51.7-263.3-55.7c-87.6-4-176.4,5.8-260.9,29.4
					c-40.8,11.3-80.6,26-119.1,43.7c-30.6,14.1-71.9,29.4-94.1,56.8c-5.4-2.2-10.7-4.9-15.5-7.8c-23-14.8-37.5-34.1-42.7-55.7
					c-5.2-21.9-1-45.7,14.1-68.6c0.3-0.6-0.3-1.3-1-1c-40.1,23.3-36.6,76-15.3,111.3C2525.9,2555.7,2569.2,2593,2608.3,2596.9z"/>
			</g>
		</g>
		<g>
			<path class="st16" d="M2471.7,2547.5c-14.6-1.3-30.9-7.9-52.2-29.4c-21.2-21.4-32.7-58.5-32.7-58.5
				c-22.4,16.6-80.3,61.5-80.3,61.5s39.1,122.8,148,160.5c0,0,24.8,13.1,20.2,28.8l-26.7,3.8c0,0-76.3-22.4-118.1-80.1
				c-62.5-86.1-64.3-84.1-41.1-91.6l-23.3,7.5c0,0-16.4-11-23.9-24.9c-7.8-13.9,6.8-36.2,41.5-53.9c53.3-27.2,101.4-65.9,101.4-65.9
				s46.4-2.9,45.1,29.9l-21.2,13.9c0,0,19.6,22.7,36.6,44.8c17.1,22,45,39.1,45,39.1C2501.1,2525,2490.5,2549.1,2471.7,2547.5z"/>
		</g>
	</g>
	<g>
		<path class="st16" d="M3612.8,2604.8c-1.9,13.1,45.7-17.4,62.9-41.2c17.3-23.7,21.2-46,21.2-46c23.8,12.7,73.8,32.7,73.8,32.7
			s-24.8,117.7-131.6,188.5c-3.3,2.4-7,4.5-10.4,6.5c0,0-14.8,14.3,8.1,19.4c22.8,5,39.7-8.8,39.7-8.8s57.9-30.2,87.3-92.9
			c39-83.1,62.5-103.7,39.1-107.6l23.4,3.9c0,0,14.2-12.8,19.5-27.4c5.4-14.5,5.8-29.4-29.4-43c-16.6-6.4-123.2-39.1-123.2-39.1
			s-45,3.9-39.1,35.2c5.8,31.3,21.4,25.3,21.4,25.3l-40.9,56.8C3623,2561.7,3617.7,2573.1,3612.8,2604.8z"/>
	</g>
</g>
<g>
	<path class="st1" d="M6770.9,900.7c3.9-4.1,7.6-8.3,11.5-12.4c-0.2-0.1-0.4-0.1-0.6-0.2C6778.1,892.2,6774.4,896.5,6770.9,900.7
		C6770.8,900.7,6770.8,900.7,6770.9,900.7z"/>
	<path class="st7" d="M5951.8,932.2c-33.1-38.4-66.2-76.8-99.3-115.4c-11-13-22.5-26.3-31.5-40.7c-3.1,4.8-6.3,9.6-9.2,14.5
		c-2.9,4.8-5.8,9.6-8.7,14.4c-0.3,0.6-0.6,1.3-1,2c-4.6,9.3-9.7,18.5-14.2,28.1c-1.6,3.2-2.9,6.4-4.4,9.6
		c12.9,31.8,25.8,63.5,38.7,95.3c5.7,14.6,12.3,28.7,19.3,42.6c2.7,5.5,5.7,11,8.5,16.6c0.1,0.3,5,8.7,7.4,13.4
		c1.3,2,2.3,3.9,2.8,4.9c4,6.5,7.9,13.2,12,19.8c6.5,10.5,13.1,20.9,19.6,31.3c33.4,53.3,63.4,108.4,93.9,163.5
		c0.8,1.6,1.9,3.3,2.7,4.9c0.1,0.3,0.3,0.5,0.5,0.8c4,6.4,7.7,13.2,11.8,19.7c6.4,10.2,13,20.5,19.9,30.4
		c13.6,19.7,32.6,36.8,45.9,56.2c1.4,1.3,2.9,2.5,4.4,3.7c5.5,4.6,11.2,9.1,16.9,13.3c7.1,5.2,14.3,10.1,21.8,14.7
		c16.6,8.1,33.2,15.7,50.5,22.2c7.2,2.5,14.3,5.1,21.7,7.3c2,0.5,3.9,1.3,5.8,1.8c36.1,7,71.3,13.8,108.1,16.5
		c10.5,0.8,20.8,1.3,31.3,1.6c1.5,0,3.1,0.1,4.7,0.1c18.3-2.3,37.9-0.7,56.2-1.8c9.9-0.7,19.9-1.5,29.8-2.4
		c-13.9-13-27.2-26.3-39.9-38.2C6225.9,1242,6086.9,1088.7,5951.8,932.2z"/>
	<path class="st2" d="M6353.1,952c-0.4-0.1-0.7-0.3-1.1-0.6c0.5,0.7,0.9,1.4,1.4,2C6353.3,953,6353.2,952.4,6353.1,952z"/>
	<path class="st2" d="M5876,783.3c-0.2-0.3-0.5-0.6-0.8-0.9c0.4,0.6,0.9,1.2,1.2,1.9C5876.3,783.8,5876.1,783.6,5876,783.3z"/>
	<path class="st2" d="M6508.5,1367.3c-0.4,0.4-0.9,0.8-1.3,1.2c0.8-0.2,1.6-0.3,2.3-0.4C6509.2,1367.6,6508.9,1367.5,6508.5,1367.3z
		"/>
	<path class="st2" d="M6770.8,900.7L6770.8,900.7C6770.9,900.7,6770.9,900.7,6770.8,900.7L6770.8,900.7L6770.8,900.7z"/>
	<path class="st15" d="M5996,516.5c-34.5,23.5-69.7,46.7-99,76.7c-4.4,4.5-8.6,9.3-12.5,14.3c24.8-13.1,52.1-21.2,77.1-23.3
		c4-0.4,6.7,5.4,3,7.7c-21.9,13.1-46.1,21.4-68.7,32.7c0.6,2.5-0.2,5.3-3.5,6.5c-44.2,17.4-52.3,73.9-37.3,113.5
		c5.1,13.4,12.1,26,19.9,37.9c0.2,0.3,0.5,0.6,0.8,0.9c0.1,0.3,0.3,0.6,0.5,1c15.5,22.7,34.6,43.2,52,63.5
		c114.7,133,233,262.7,354.6,389.1c47.1,48.9,97.3,110.2,163.6,133.3c19.6,2.2,39.5,1.6,58.8-1.6c0.5,0,1-0.2,1.7-0.3
		c0.4-0.4,0.9-0.8,1.3-1.2c0.3,0.2,0.7,0.4,1.1,0.7c41.5-7.7,80.4-26.9,113-53.7c2.3-1.9,5.1,1.4,3.4,3.6
		c-21.4,27-49.5,46.5-81.1,58.4c18.6-3.2,36.6-8.4,54.7-14.3c11.3-7.2,22.8-14.2,34-21.3c4.9-4.2,10-8.4,15-12.6
		c2.5-2.1,5.3-2.6,7.9-2c18.4-11.9,31.3-139.7-4.8-123.1c-29.4,13.4-60.7,25.1-93.8,22.1c-26.7-2.4-53.2-15.1-67.3-38.6
		c-9.3-15.7-12.5-35.4-7-52.5c-7.9,0.5-15.9,0.4-23.5-0.9c-41.7-6-75.9-34.7-99.7-69.7c-1.5,0.7-2.8,1.2-4.2,1.9
		c-27.6,11.5-58.2,20.9-88.2,22.5c-28.2,1.5-56.6-3.6-81-18.5c-10.6-6.4-24.3-16.9-32.2-29.1c-21-11-25.8-28.8-20.5-44.3
		c-0.6-0.5-1.1-1-1.4-1.7c-0.3-0.6-0.5-1.2-0.8-1.7c-2.1-1.3-3.6-3.9-2.5-6.4c-5.5-18.6,1.1-40.6,11.3-58
		c6.4-15.6,16-29.9,25.9-39.2c2.6-2.4,5.4-4.8,8.4-7.1c-12.8-7.6-24.6-16.8-34.8-27.5c-9.3-9.7-7.8-47.4-10.2-52
		c-6.8-12.1,8-117.7-19.8-136.8c-6.5-2.4-22,2.5-26.6-5.7c-9.3-16.7-3.4-36.4,2.7-53c8.6-23.2,20.4-45.3,34.5-65.8
		c27.8-40.7,65.7-75.3,109.4-98.4c14.9-7.8,404.2,884.6,426.2,883.5c1.1-0.4,490.9-357.5,694.9-523.9c73-59.5,36.9-104-0.5-159.7
		s-101.5-122.7-163.1-192.9C6988.8,223.2,6913,141.1,6797.2,47.9c-39-31.4-80.6-31.8-108-25.3c-30.5,7.2-221.7,153.9-251.7,172.3
		C6380.4,230.5,6032.5,491.7,5996,516.5z M6381.3,1166.1c2,1.5,3.9,3,5.8,4.6c18.1,1.4,36.7,14.5,48.2,27
		c16.5,17.7,22,43.1,19.3,66.4c-1,9-11.7,9.3-16.2,3.8c-1.7,0.1-3.6-0.3-5.1-1.3c-0.1,1.1-0.3,2.2-0.4,3.3
		c-1.9,10.2-16.1,11.8-20,2.1c-6.9-17.4-7.7-35.4-17.7-51.9c-7.7-12.7-23.9-24.2-27.3-38.4c-0.5-2.4,0.3-5.1,2.4-6.1
		c-0.3-0.4-0.7-0.8-0.9-1C6362.4,1167.4,6376.8,1159.1,6381.3,1166.1z M6349.2,1085.8c1.9,0.4,3.7,1,5.5,1.7c0.6,0.3,1.3,0.4,2,0.7
		c1.1,0.4,1.4,0.7,0.1,0.3c3.8,1.1,7,2.9,8.4,6.8c0.9,2.5,0.9,5.7-0.2,8c-2.8,6.3-11.3,8.6-16.7,4.1c-2.1-1.8-4.6-3.1-6.6-5.1
		c-3-3.1-4.3-6.8-2.8-11C6340.7,1087.4,6345.3,1085,6349.2,1085.8z M6138.3,894.3c-0.5,5.2-2.4,10.7-3.8,15.8
		c-1.5,5.5-6.1,9.3-12,7.6c-6-1.7-7.8-7.5-6.2-12.8c1.5-5.1,2.7-10.7,5.1-15.4C6125.9,880.5,6139.3,884.5,6138.3,894.3z M6001,729.8
		c2.1-3.5,7.4-3.3,8.6,0.1c2.4,1.3,2.3,5.6-0.5,7c0,0.1-0.3,0.1-0.3,0.1c-0.3,1.3-0.5,2.7-0.8,3.9c1.3-2.1,2.9-4.2,4.7-6
		c4.1-4.2,11.7-2.7,12.4,3.7c1.6,13.4-4.6,26.5-8.6,39.1c-3.7,11.7-6.4,25.1-12.6,36c-0.3,2.2-1.4,3.8-3.1,5v0.1
		c-4.9,6.8-12.8,3.5-15.8-2.4c-26.4-25.4-21.9-75.2,15.7-85.6C6000.5,730.5,6000.7,730.1,6001,729.8z"/>
	<path class="st15" d="M6191.6,844.1c-1.5-0.4-2.9-0.9-4.4-1.3c-1.4-0.5-2.8-0.9-4.2-1.4c3.4,1.5,6.9,3,10.4,4.4
		C6192.8,845.2,6192.3,844.6,6191.6,844.1z"/>
	<path class="st15" d="M5983.9,765c-1.5,4.3-2.3,8.6-2.2,13C5982.4,773.5,5983.3,769.4,5983.9,765z"/>
	<path class="st15" d="M6302.1,443.9c-0.1,0.2-0.1,0.3-0.2,0.5c0.3-0.1,0.5-0.3,0.6-0.3C6302.5,443.9,6302.4,443.8,6302.1,443.9z"/>
	<path class="st16" d="M5995.2,820c-2.3,1.2-5.1,1.2-7.6-1c-1-0.8-2-1.8-3-2.7c3.2,5.9,10.9,9.2,15.8,2.4v-0.1
		C5999.1,819.7,5997.1,820.2,5995.2,820z"/>
	<path class="st16" d="M6003.7,811.6c0,0.9,0.1,1.5,0,2.3c6-10.9,8.8-24.3,12.6-36c4-12.6,10.1-25.6,8.6-39.1
		c-0.8-6.3-8.3-7.8-12.4-3.7c-1.8,1.9-3.3,3.9-4.7,6c-2.2,9.7-4.7,19.3-5.9,29.3C6000.5,784.5,6001.6,797.5,6003.7,811.6z"/>
	<path class="st16" d="M6429.4,1262.4c-14.6-33.7-35-59.5-59.2-86.6c-2.2,1.1-3.1,3.6-2.4,6.1c3.5,14.2,19.7,25.8,27.3,38.4
		c10,16.7,10.7,34.6,17.7,51.9c4,9.8,17.9,8,20-2.1c0.2-1.1,0.4-2.2,0.4-3.3C6431.7,1266.1,6430.3,1264.6,6429.4,1262.4z"/>
	<path class="st16" d="M6217.9,879.9c-7.6-3.1,97.1,33,89.2,30c-20.2-23-179.2-103.3-198.9-129.6c7.9,14.3,23.2,64.1,32.5,73.8
		c10.2,10.7,22.2,19.9,34.8,27.5c-3,2.3-5.9,4.7-8.4,7.1c-9.9,9.2-19.5,23.6-25.9,39.2c3-5.2,6.4-10,10-14.2
		C6168,893.5,6191.9,881.8,6217.9,879.9z"/>
	<path class="st16" d="M6897.8,1041.3c-3.7-9.5-9.3-15-16.1-17.7c-9.5,21-26.5,38-43,53.7c-22.4,21.3-47.3,40-73.7,56.1
		c-54,32.7-114.7,54.2-177.3,62.2c-24.7,3.2-56,8.2-77.2-8.5c-14.4-11.4-22.2-32.7-9.1-47.7c1.1-1.2,2.2-1.8,3.4-2.2
		c0.8-2.5,1.8-4.9,2.7-7.2c39.1-8,77.9-30.4,106.1-55.4c5-4.6,9.9-9.1,14.3-13.8c1.9-2-0.7-5.7-3.2-4.4
		c-31.9,15.2-60,37.1-94.1,48.6c-10.1,3.5-20,5.3-29.6,6.4c-6.9,0.5-13.9,0.5-21.1,0.1c-21.4-1.1-48.5-13.6-71-29.4
		s-31-27.9-31.2-28.1c-1.4-0.6-14.2-32.4-15.2-34c-10.5-16.5-8.7-12.2-17.1-29.9c-1.9-4-3.8-7.6-6-11.4c-0.1-1.1,0-2.1,0-3.2
		c-1.2-27.7-16-59-42.4-70c-0.6-0.2-1.1-0.1-1.5,0.1c-0.9,0.5-1.5,1.7-0.7,2.6c17.3,19.6,32.6,39.1,30.5,66.9
		c-0.8,10.8-3.8,21.6-8.6,31.3c-3.4,7-9,12.5-13.3,18.8c-5,4.9-9.9,10.2-14.9,15c-16.3,7.2-35.6,9.7-52.2,11
		c-25.7,1.8-56.9,0.9-80.4-10.9c-0.4-0.1-0.7-0.4-1.1-0.6c7.8,12.3,21.8,22.8,32.2,29.1c24.4,14.8,52.8,20.1,81,18.5
		c30-1.7,60.6-11,88.2-22.5c1.4-0.6,2.8-1.2,4.2-1.9c24,35.2,58.1,63.8,99.7,69.7c7.5,1.1,15.5,1.2,23.5,0.9
		c-5.5,17.1-2.4,36.8,7,52.5c14.1,23.7,40.5,36.3,67.3,38.6c33.1,3,64.2-8.5,93.8-22.1c36.1-16.6,72.2-34.1,108-51.2
		c34.5-16.4,70.5-31.4,104.1-49.5l36.5-45C6900.7,1052.2,6899.8,1046.9,6897.8,1041.3z"/>
	<path class="st16" d="M6341.4,458.6c-16.4,5.8-33.8,31.5-47.7,40.9c-19.8,13.5-40.2,24.2-54.8,43.7c-0.7,0.7,0.3,2.1,1.2,1.7
		c20.4-9.7,36.1-25.2,54.6-37.3c5.1-3.3,10.6-6.4,16.2-9.3c6.9-3.8,14-7.3,20.6-11.4c1.3-0.8,2.7-1.8,4-2.7
		c-0.1,0.2-0.2,0.5-0.2,0.8c6.2-4,339.7-172.4,346.1-176.1c2.5-1.4-22.4-19.3-20.3-20.2c0,0-90.6,25.5-147.9,61.9
		C6477.3,373.2,6342,453.9,6341.4,458.6z"/>
	<path class="st16" d="M6303.7,423l-3.3-2.7c-2.7,0.4-5.3,1.2-8,2.1C6296.2,422.1,6300,422.5,6303.7,423z"/>
	<path class="st16" d="M6116.3,905c-1.6,5.4,0.2,11.1,6.2,12.8c5.9,1.7,10.6-2.2,12-7.6c1.4-5.2,3.3-10.6,3.8-15.8
		c0.9-9.9-12.3-14.1-16.7-4.9C6119,894.3,6118,900,6116.3,905z"/>
	<path class="st16" d="M6341.9,1102.1c1.9,1.9,4.4,3.3,6.6,5.1c5.4,4.6,13.8,2.1,16.7-4.1c1.1-2.5,1.1-5.5,0.2-8
		c-1.5-3.8-4.7-5.7-8.4-6.8c1.4,0.3,1,0.2-0.1-0.3c-0.6-0.3-1.3-0.5-2-0.7c-1.8-0.7-3.7-1.3-5.6-1.7c-3.9-0.7-8.5,1.8-10,5.5
		C6337.6,1095.4,6338.9,1099,6341.9,1102.1z"/>
	<path class="st16" d="M6648.6,1328.1c-4.9,4.2-9.9,8.5-15,12.6c-11.3,7.2-22.7,14.3-34,21.3c-18.1,5.8-36.2,11-54.7,14.3
		c31.6-12,59.4-31.5,81.1-58.4c1.8-2.2-1.3-5.5-3.4-3.6c-32.6,26.8-71.4,46-113,53.7c-0.8,0.2-1.6,0.3-2.3,0.4c-0.5,0-1,0.2-1.7,0.3
		c-19.5,3.2-39.3,3.8-58.8,1.6c-66.2-23.1-116.5-84.5-163.6-133.3c-121.6-126.6-240.1-256.2-354.6-389.1
		c-17.5-20.3-36.6-40.9-52-63.5c-0.4-0.6-0.9-1.2-1.2-1.9c-8-11.9-14.9-24.5-19.9-37.9c-15.1-39.6-6.7-96,37.3-113.5
		c3.2-1.3,4-4.1,3.5-6.5c22.5-11.2,46.8-19.6,68.7-32.7c3.8-2.2,1-8-3-7.7c-25,2.1-52.3,10.2-77.1,23.3
		c-43.7,23.1-79.6,61.6-81.1,110.9c-0.6,21.5,6.8,40.5,17.6,57.8c9,14.5,20.4,27.8,31.5,40.7c33.1,38.5,66.1,76.9,99.3,115.4
		c135,156.5,273.9,310,425.8,450.5c12.7,11.8,25.9,25.2,39.9,38.2c15.3,14.3,31.4,27.9,49,37.9c1.7,1.6,3.8,2.8,6.2,3.4
		c8.1,4.2,16.5,7.7,25.2,10c14.4,3.9,29.9,4,43.7,0c2.8,0.9,15.6-6.2,18.7-8.6c1.3-0.8,2.6-1.9,3.9-2.7c6.8-4.9,13.7-9.8,20.4-14.7
		c0,0,552.8-440,662.2-527.8C7378,813.3,7376,784.3,7387,764c30.8-57.4-35.9-121.3-35.9-121.3s46.6,63.2-19.8,132.9
		c-85.5,89.9-656.2,538.6-674.7,550.5C6653.9,1325.5,6651.1,1326,6648.6,1328.1z"/>
	<path class="st17" d="M6669.7,729.5c1.3-1,2.5-1.8,3.5-2.8c-2.7,0.9-5.2,1.9-8,2.9c0.1,0.3,0.1,0.4,0.1,0.7
		C6666.9,729.9,6668.4,729.7,6669.7,729.5z"/>
	<path class="st17" d="M6335.2,484.8c0,0.1-0.1,0.2-0.1,0.3c-1.3,0.5-2.6,1.1-3.8,1.6c-6.6,4.1-13.7,7.8-20.6,11.4
		c-6.9,4.5-13.6,9-19.6,13.1c-24.9,16.7-47.9,35.9-69.4,56.8c-1.8,1.7-3.4,3.5-5.3,5.2c-18.1,13.9-35.1,29.7-50.4,46.6
		c-12.8,14-33.2,37.3-39,60c-0.9,0.3-2,0.5-2.8,0.3c-0.4,0.9-0.8,1.9-1.1,2.8c-13.2,35.1-12.3,79.1,16.8,106.2
		c26,24.2,105.3,61.8,148.2,77.7c3,1.1,5.4-2.7,3.1-4.9c-19.8-19.2-64.8-55.2-76.3-64.8c-0.5-0.4-0.6-1-0.5-1.5
		c-5.1-2-10.3-3.9-15.5-6.1c-3.2-1.4-1.7-6.2,1.7-5.9c35.4,4.4,71.6,26.4,98.3,49.1c20.6,17.5,37.5,37.6,50.7,60.5
		c12.2,13.7-13.1,50.4,3.9,60c7.1,4,56.8,137,64.4,139.8c175.8,4.7,225.6-115.5,229.3-116c1.3-0.1,204.3-114,222.4-132.1
		c238.8-140.8,162.8-163.5,170.8-193.4c21.5-80.9-17.9-182.7-57.1-208.7c-39.1-26-158-180.1-405.2-108.5
		C6484.4,361.8,6341.6,480.9,6335.2,484.8z M6504,784.1c-8.6-6.9,4.1-22.6,12.7-15.6C6527.6,777.1,6514.9,793,6504,784.1z
		 M6451.8,870.6c-4.1,1.1-8.1,2.1-12.3,3c-4.8,1-9.5-3.2-10.6-7.5c-1.2-4.8,1.4-9.6,6-11.5c2.3-0.8,4.4-1.9,6.8-2.8
		c1.2-0.5,2.3-0.7,3.5-1.1c1-0.3,2.1-0.5,3.2-0.7c2.4-0.1,3-0.1,1.8,0.2c3.3-0.2,6.3,1.2,7.9,4.2c1.3,2.3,1.4,5.6,0,7.9
		C6457.6,865.9,6455.4,869.6,6451.8,870.6z M6173.8,689.7c-9.4-24.3,8.9-46,23.5-63.7c15.4-18.5,44.1-55.6,70.7-54.5
		c1,0,2,1.4,1.8,2.4c-5.4,19.1-28.1,31.6-41.2,45.7c-12.8,13.6-43.1,41.6-35.7,62.7C6197.1,694.8,6178.5,701.9,6173.8,689.7z
		 M6190.2,728.9c-5.1-0.8-7.9-5.3-7.5-10.2c0.2-3.7,1.5-7.1,4.5-9.3c2.2-1.6,4.9-1.7,7.4-0.8c2.1,0.5,4.1,1.7,5.7,3.4
		c2.9,3.1,2.6,8.3,0.6,11.6C6198.6,727.4,6194.6,729.6,6190.2,728.9z M6305.5,715.7c-5.3,2.5-10.3-0.5-12.7-4.8
		c-0.5-0.3-1.1-0.7-1.6-1c-1.3-0.9-2.5-2.1-3.2-3.5c-1-1.6-1.5-3.3-1.9-5.2c-6.7-21.3-9-46.9-0.1-67.6c1.2-2.8,4.1-4.2,6.9-4.1
		c3.6-3.6,10.4-4.6,13.9-1c1.5,1.6,3,3.3,4.3,5c1.5-0.7,3.2-0.8,5-0.2c15.6,5,21.1,25.9,19.6,40.7
		C6334.1,692.2,6322.1,707.9,6305.5,715.7z M6395.7,698.6c-5.1,1.2-9.8-2.8-11-7.5c-2.3-5.9-0.9-12.4-0.4-18.7
		c0.5-7,0.8-14.2,4.2-20.5c1.9-3.6,6.2-5,9.5-3.8c1.1-0.4,2.3-0.3,3.4,0.3c3,1.8,5.4,4.1,7.1,6.7c6.7-7.2,20.3,0.7,16.6,11.6
		c-3.4,10.2-6.9,20.1-10.9,30C6410.4,705.8,6400.4,704.4,6395.7,698.6z M6355.5,782c0.3,2.4-0.5,5.1-2.1,7c-1.6,2-3.8,3.1-6.4,3.5
		c-3.6,0.6-6.5-1.4-8.7-3.9c-0.8-0.9-1.4-2.1-1.9-3.2c-3-5.7,3.7-13.8,9.9-12c1.2,0.3,2.4,0.6,3.5,1.1
		C6352.8,776,6355,778.4,6355.5,782z M6405.9,548.3c1.8-1.5,4-2.4,6.3-2.4c4.6,0.1,8.7,3.6,9.2,8.3c0.3,3.3,0.2,6.7,0.1,10.1
		c-0.1,2.8-0.6,5-2.1,7.2c-1.5,2.1-4.1,3.2-6.6,3.5c-5.5,0.8-10-3.6-10.7-8.8c-0.5-2.9-1-5.6-1.6-8.5
		C6399.9,553.8,6402.5,550.1,6405.9,548.3z M6343.3,552.4c4.3,3.5,4.7,9.7,1.6,14.1c-3.2,4.3-10,4.7-14.1,1.6
		c-4.3-3.5-4.7-9.7-1.6-14.1C6332.5,549.5,6339.2,549.1,6343.3,552.4z"/>
	<path class="st17" d="M6520.6,1167.4c22.8,22.6,88.8,4.1,113.2-2.1c41.6-10.7,81.6-27.3,118.8-49.2c36.8-21.6,73-48.7,101.5-80.5
		c7.4-8.4,14.6-18.5,17.9-29.1c-1-0.5-1.9-1.2-2.6-2.2c-11.9-16.5-36-15.3-60.6-7.8c-2.4,2.3-4.8,4.7-7.3,6.9
		c4.5,1.1,7.7,6,5.7,11.1l-0.3,0.9c-0.2,1.1-0.7,2.2-1.4,3.3c-1.1,1.8-2.3,3.7-3.4,5.4c-3.1,4.6-9.9,4.5-13.9,1.5
		c-2.2-1.7-3.4-4.4-3.7-7.2c-29.6,24.7-62.5,46-94.2,65c-49.8,29.6-102.6,53.4-157.8,71.1c-6.6-4.2-12.8-10.3-13.4-15.1
		c0-0.3-0.3-0.5-0.5-0.4c-0.3,0-0.5,0-0.9,0c0.2-0.2,0.3-0.2,0.6-0.5c1-1.1-0.9-2.7-1.8-1.4c-0.5,0.7-0.7,1-0.6,1.9
		c0.1,0.1,0.1,0.3,0.1,0.3c-0.3,0-0.7,0.1-1,0.1c-1.1,0.2-2.1,0.8-2.9,1.7c-0.2,0.3-0.4,0.5-0.5,0.8
		C6505.6,1155,6511.3,1163.1,6520.6,1167.4z M6661.9,1123.4c19.7-8.8,38.8-18.7,57.5-29.5c13.8-7.9,25.5-16.6,41.2-19.9
		c0.8-0.2,1.3,0.7,1,1.4c-16.4,32.1-61.9,50.7-93.4,65C6657.7,1145.2,6651.2,1128.2,6661.9,1123.4z M6640,1138.5
		c4.1,3.3,4.4,9.1,1.4,13.2s-9.4,4.5-13.2,1.4c-4.1-3.3-4.4-9.1-1.4-13.2C6629.8,1135.9,6636.2,1135.4,6640,1138.5z"/>
	<path class="st18" d="M6504.8,1137.2c2.8-0.7,0,13.9,6.4,18.2c5.9,38,129-42.8,178.7-72.4c31.6-18.9,64.5-40.3,94.2-65
		c-0.2-2.5,0.5-5,2.1-6.8c1.4-1.5,3-3.1,4.5-4.5c1-0.8,1.9-1.5,2.8-1.9c0.3-0.1,0.6-0.4,0.8-0.6c2.1-1.4,4.5-1.8,6.6-1.2
		c2.4-2.3,4.8-4.5,7.3-6.9c24.5-7.3,48.7-8.7,60.6,7.8c0.8,1,1.7,1.7,2.6,2.2c3.9-12.3,2.5-25.1-9.8-36
		c-18.7-16.6-46.1-10.7-68.9-12.5c-2.8-0.2-3.2-4-1.1-5.4c-19.4,3.4-39.1,10.7-54.7,17.9c-15.9,15.3-32.3,30-49.1,44.4
		c-19.4,16.4-40,33.1-61.8,47.8c7.3-1.7,14.6-3.8,22-6.8c33.9-13.9,62.1-38.9,93.9-56.8c4.2-2.4,8.2,3,4.4,6.2
		c-30.6,25.9-65,44.1-102.4,58.9c-9.3,3.7-19.9,7.7-30.6,10.6c-28.3,25-67.1,47.4-106.1,55.4
		C6506.6,1132.3,6505.6,1134.9,6504.8,1137.2z"/>
	<path class="st18" d="M6230.4,442.8c-43.7,23.1-81.5,57.6-109.4,98.4c-14,20.4-25.8,42.5-34.5,65.8c-6.2,16.6-12.2,36.4-2.7,53
		c4.6,8.1,32.1,20,35.1,6.8l-7.4,37.2c1.3-1.7,3.4,19.5,3,21.4c-10,33.2,21.6,78.9,55.3,100.4c20.4,13,35.9,20.2,36.5,20.8
		c18.1,12.7,41.8,19,62.8,30.3c31.5,16.8,59,41,79.7,69.9c1,1.5,2.1,3,3.2,4.5c0.4,0.1,0.7,0.4,1.1,0.6c-8-32.6-23.2-62.3-45-89.2
		c-14.3-17.6-30.2-31.9-48.7-44.8c-14.4-10-29.2-15.9-44.7-22c-0.2,0.5-0.1,1.1,0.5,1.5c8.9,7.4,28,22.7,48.8,40.8
		c4.9,4.3-35,2.9-91.9-46.8c-59.5-59.2-48.1-110.1-47.7-111.1c-3.6-0.2-6.9-2.7-5.7-6.9c1.5-5.4,3.5-10.8,5.9-16.1
		c0.2-23.9,5.5-47.7,13.3-70.1c7.1-20,17.5-51,37-62c1.9-1.1,4.5,0.2,4.1,2.6c-3.2,20-19,38.8-26.1,58.3c-2.7,7.5-4.9,15.1-6.6,22.7
		c17.8-36.5,47.1-70.2,75.4-97.7c16.2-15.8,33.5-30.9,51.4-44.9c8.4-6.6,18.5-15.6,28.9-22.1c0.1-0.2,0.1-0.3,0.2-0.5
		c0.1-0.1,0.3,0.2,0.4,0.1c6-3.6,12.6-6.7,18.5-7.1l-17.2-14c-3.7-0.5-7.3-0.9-11.4-0.6C6270.4,423.3,6245.3,434.9,6230.4,442.8z"/>
	<path class="st18" d="M6457.1,679.7c-10.8,12.8-48.7,61.4-53.9,74.5c-5.2,13-28.2,45.5-12.9,45c0.1-0.1,8.9,13.5,22.9-9.6
		c9.4-15.6,43.5-74.5,49.3-81.5c42.1-50.9,84.5-65.2,140.7-100.1c0.1,0,163.5-88.7,281.5-121.5c29.7-8.3-16.7-15.2-16.7-15.1l0,0
		c-9,5.8-143.6,51.8-216,83.2C6579.7,586,6485.7,645.6,6457.1,679.7z"/>
	<path class="st19" d="M6647,977.4c-49,34-148.1,132.9-208.4,97.4s-58.5-86.8-59.7-88.4c-0.5-5.1-1-10.2-1.7-15.3
		c-2.7-18.3-8-35.9-15.3-53c-3.7-8.4-7.7-16.7-12.3-24.5c-13.2-23-30.1-43-50.7-60.5c-26.7-22.7-62.9-44.7-98.3-49.1
		c-3.4-0.5-5,4.6-1.7,5.9c5.3,2,10.5,4,15.5,6.1c15.4,6,30.3,12,44.7,22c18.6,12.8,34.3,27.2,48.7,44.8c21.9,27,37,56.6,45,89.2
		c0.2,0.5,0.2,0.9,0.4,1.5c-0.5-0.7-0.9-1.4-1.4-2c-1.1-1.5-2.2-3-3.2-4.5c-20.8-29.1-48.2-53.3-79.7-69.9
		c-21.2-11.2-26.3-13.9-54-29.8c-27.8-15.9-112.6-63.1-100.8-121.7c0.4-2.1,5.7-60.4,4.4-58.7c-7.3,9.5-16.9,48-15.3,83.3
		c-1.4,10.7,11.2,49,31.4,72c19.9,26.2,61.9,47,83.1,57.8c7.9,3.1,29.5,6.3,33.5,6.4c25.9,1.1,26.5,4.4,44.1,19.7
		c0.5-0.3,1.1-0.4,1.5-0.1c15.3,10.7,34.4,40,42.4,70c0.1,1.1-3-0.7,10.1,31s21.6,41.6,21.7,41.8c5.1,11.2,31.9,39.9,53,51.5
		c21.1,11.5,34.3,10.6,55.9,11.7c7.1,0.3,14,0.2,21.1-0.1c9.7-1.2,19.7-3,29.6-6.4c33.9-11.4,62-33.5,94.1-48.6
		c2.5-1.2,5.2,2.5,3.2,4.4c-4.3,4.6-9.1,9.3-14.3,13.8c10.9-3.1,21.4-7.1,30.6-10.6c37.5-14.8,72-33,102.4-58.9
		c3.8-3.2-0.2-8.5-4.4-6.2c-31.7,17.7-60,42.9-93.9,56.8c-7.4,3.1-14.8,5.2-22,6.8c21.8-14.8,42.3-31.4,61.8-47.8
		c16.9-14.3,139.8-86.5,155.7-101.8c69.9-43.8,314-299.4,194-319.7l0,0c-13.7,16-3.9,117.5-125.3,204.6
		C6866.6,845.7,6701.7,939.7,6647,977.4z"/>
	<g>
		<path class="st16" d="M6954.2,826.2c50.8-28.1,45.6-61.8,82.6-75.5c32.1-11.9,28.8-93.5,51.9-97.6c18.5-3.3-51.9,97.6-51.9,97.6
			l-40.4,90.1c12,7.3-32.7,38.6-50.3,49.7c-26,16.3-49.2,42.5-121.1,56.5C6696.8,972,6812.8,904.4,6954.2,826.2z"/>
		<path class="st19" d="M6844.8,830.8c83.8,89.3,255.2-47.8,243.8-177.5c-2.8-30.8,6.1-65.1,3.2-93.3c-5-50.5-4.4-88.1-4.4-88.1
			c30.3-61.4-42-41.3-42-41.3l1.7,162.8c0,0-91.2,165.6-151.6,181.3C6824,793.2,6821.6,806,6844.8,830.8z"/>
		<path class="st18" d="M6952.7,828.9c74.6-31.4,125-103.6,109.3-171.4c-6.7-29.3,1-73.8,7.3-101.5c6.2-26.9-2.2-82.8-2.2-82.8
			c38.9-46.1-21.8-42.6-21.8-42.6s-2.2,111.1-20.8,158.8c-18.5,47.7-186.2,91.1-197.1,186.7C6819.4,849.4,6916.7,844.1,6952.7,828.9
			z"/>
	</g>
	<path class="st19" d="M6599.8,758.1c15.5,14.1,42.3,17.1,61.1,11c24.9-6.4,56.9-43.1,65.5-55.5l-39.3,20.5
		C6664.4,755.4,6631.3,764.7,6599.8,758.1z"/>
	<path class="st19" d="M6414,696.9c4-9.8,7.6-19.8,10.9-30c3.6-10.9-9.8-18.7-16.6-11.6c7.8,12.1,1.8,30.4-7.6,40.3
		c-1.6,1.8-3.3,2.7-5.1,3.1C6400.4,704.4,6410.4,705.8,6414,696.9z"/>
	<path class="st19" d="M6286.3,700.8c0.1,1.8,0.8,3.6,1.9,5.2c-0.1-0.3-0.3-0.6-0.4-1C6287.1,703.6,6286.7,702.3,6286.3,700.8z"/>
	<path class="st19" d="M6316.3,633.2c-1.8-0.6-3.6-0.4-5,0.2c17.7,23.4,14.8,57-8.5,76.4c-3.3,2.8-8.1,2.3-11.5,0
		c0.6,0.5,1,0.7,1.6,1c2.5,4.4,7.5,7.4,12.7,4.8c16.6-7.7,28.6-23.4,30.3-41.8C6337.3,659.1,6332,638.2,6316.3,633.2z"/>
	<path class="st19" d="M6623.8,838.2c0.9,2.5,2.3,4.9,3.8,7c3.4,4.4,8.8,9.1,14.6,9.5c4.4,0.4,8.6-1.5,10.4-5.8
		c1.2-2.7,1-6.2-0.5-8.8c-2.8,2.7-6.9,3.4-10.8,2c-2.2-0.7-4.5-1.4-6.7-2.4c-1.5-0.7-2.3-1.1-3.6-2.2c-0.8-0.8-1.3-1.2-2.3-1.7
		c-2.5-1.3-4.1-3.9-3.7-6.7c0.3-2.6,2.7-5.2,5.6-5.2c1.7-0.1,3.3-0.5,5-0.7c-0.4-0.1-0.8-0.4-1.2-0.6c-1-0.3-2.2-0.5-3.5-0.4
		c-3.8,0.4-6.8,3.5-7.5,7.3c-0.1,0.7-0.2,1.5-0.2,2.3C6622.9,833.6,6623.1,836.1,6623.8,838.2z"/>
	<path class="st19" d="M6557.9,886.3c-0.5,16.5-6.5,32.1-16.8,45c-1.7,2.1-3.7,3-5.7,3.2c-2.7,3.8-7.7,5.7-12.5,2
		c-1.8-1.4-3.4-2.9-4.9-4.4c2.7,6.2,10.6,11.1,18.3,6.8c21.4-11.9,36.8-42.5,32.1-67.7c-2-11-7.9-21.1-18.9-28
		c-2.9-1.8-6.6-1.7-9.3-0.4c1,0.2,2.1,0.5,3,1.1C6555.6,851.8,6558.3,872.5,6557.9,886.3z"/>
	<path class="st19" d="M6793.3,957.8c22.7,2,50.2-4.1,68.9,12.5c12.3,10.9,13.8,23.8,9.8,36c-3.3,10.5-10.5,20.7-17.9,29.1
		c-28.6,32-64.6,59-101.5,80.5c-37.2,21.7-77.1,38.5-118.8,49.2c-24.4,6.2-90.6,24.8-113.2,2.1c-9.5-4.2-14.9-12.3-9-25.8
		c0.1-0.3,0.3-0.5,0.5-0.8c-1.4-2.7-4.3-4.1-7.1-3.4c-1.2,0.4-2.3,0.9-3.4,2.2c-13.2,15-5.4,36.5,9.1,47.7
		c21.3,16.7,52.7,11.6,77.2,8.5c62.6-8.1,123.4-29.4,177.3-62.2c26.5-16.1,51.1-34.7,73.7-56.1c16.5-15.7,33.6-32.7,43-53.7
		c1.6-3.6,3-7.2,4.1-11.1c12.9-43.5-23.9-64.9-60.9-65.4c-11.1-0.1-22.2,1.4-32.1,5.1c-0.3,0.1-0.4,0.2-0.5,0.3
		C6790.2,953.7,6790.7,957.7,6793.3,957.8z"/>
	<path class="st19" d="M6302.1,444.3c-10.5,6.6-20.5,15.4-28.9,22.1c-17.9,13.9-35.2,29.1-51.4,44.9c-28.1,27.6-57.7,61.1-75.4,97.7
		c1.7-7.6,3.9-15.1,6.6-22.7c7-19.4,22.9-38.2,26.1-58.3c0.4-2.4-2.2-3.6-4.1-2.6c-19.6,11.1-29.9,41.9-37,62
		c-8,22.4-13.3,46.4-13.3,70.1c-2.4,5.3-4.3,10.7-5.9,16.1c-1.1,4.2,2.2,6.7,5.7,6.9c1,0,2-0.1,2.8-0.3c5.8-22.6,26.2-46,39-60
		c15.4-16.9,32.4-32.6,50.4-46.6c1.8-1.9,3.4-3.5,5.3-5.2c21.4-21,44.5-40.2,69.4-56.8c5.9-4.1,12.7-8.7,19.6-13.1
		c-5.6,3-11.1,6.1-16.2,9.3c-18.7,12.1-34.5,27.7-54.6,37.3c-1,0.5-1.7-0.9-1.2-1.7c14.6-19.5,35.2-30.3,54.8-43.7
		c13.9-9.5,28.3-21.5,44.5-27.1c1-8.3,0.8-16.8-2.4-23.4l-14.7-11.9c-5.8,0.4-12.4,3.7-18.5,7.1
		C6302.5,444.2,6302.2,444.2,6302.1,444.3z"/>
	<path class="st19" d="M6335.2,484.8c0.1-0.2,0.2-0.5,0.2-0.8c-1.3,0.8-2.7,1.8-4,2.7c1.2-0.5,2.5-1.1,3.8-1.6
		C6335.1,485,6335.2,484.9,6335.2,484.8z"/>
	<path class="st19" d="M6400.6,558.1c0.5,2.9,1,5.6,1.6,8.5c0.9,5.1,5.3,9.5,10.7,8.8c2.6-0.4,5-1.4,6.6-3.5
		c1.7-2.3,2.1-4.5,2.1-7.2c0.1-3.4,0.2-6.7-0.1-10.1c-0.5-4.8-4.6-8.2-9.2-8.3c-2.4,0-4.7,0.9-6.3,2.4
		C6402.5,550.1,6399.9,553.8,6400.6,558.1z"/>
	<path class="st19" d="M6722.2,572.4c0.5,2.9,1,5.6,1.6,8.5c0.9,5.1,5.3,9.5,10.7,8.8c2.6-0.4,5-1.4,6.6-3.5
		c1.7-2.3,2.1-4.5,2.1-7.2c0.1-3.4,0.2-6.7-0.1-10.1c-0.5-4.8-4.6-8.2-9.2-8.3c-2.4,0-4.7,0.9-6.3,2.4
		C6724.1,564.6,6721.4,568.3,6722.2,572.4z"/>
	<path class="st19" d="M6691.7,445.1c0.5,2.9,1,5.6,1.6,8.5c0.9,5.1,5.3,9.5,10.7,8.8c2.6-0.4,5-1.4,6.6-3.5
		c1.7-2.3,2.1-4.5,2.1-7.2c0.1-3.4,0.2-6.7-0.1-10.1c-0.5-4.8-4.6-8.2-9.2-8.3c-2.4,0-4.7,0.9-6.3,2.4
		C6693.5,437.2,6691,440.9,6691.7,445.1z"/>
	<path class="st19" d="M6457.9,854.3c-1.6-2.9-4.6-4.3-7.9-4.2c1.3-0.1,0.7-0.2-1.8-0.2c-1,0.2-2.1,0.5-3.2,0.7
		c-1.2,0.2-2.4,0.5-3.5,1.1c-2.3,0.8-4.5,1.9-6.8,2.8c-4.6,1.9-7.2,6.7-6,11.5c1.1,4.4,5.8,8.5,10.6,7.5c4.1-0.8,8.2-1.9,12.3-3
		c3.7-0.9,5.8-4.6,6.2-8.4C6459.4,859.9,6459.2,856.6,6457.9,854.3z"/>
	<path class="st19" d="M6802,1023.8c1.2-1.7,2.4-3.6,3.4-5.4c0.7-1.2,1.1-2.3,1.4-3.3l0.3-0.9c2.1-5.1-1.2-10-5.7-11.1
		c-2.1-0.6-4.5-0.3-6.6,1.2c-0.3,0.1-0.6,0.4-0.8,0.6c-1,0.5-1.9,1.2-2.8,1.9c-1.5,1.5-3.1,3-4.5,4.5c-1.6,1.8-2.3,4.3-2.1,6.8
		c0.2,2.8,1.5,5.6,3.7,7.2C6792,1028.3,6798.8,1028.5,6802,1023.8z"/>
	<path class="st11" d="M6255.6,945c17.8,3.1,40.2,13.4,53.9,27.5c-7.6-36-33.6-65.9-74-71c-25.7-3.4-51.8,5.2-69.2,24.9
		c-11.2,12.7-14.9,25.3-17.3,38.7C6178.1,944.2,6224,939.4,6255.6,945z M6241.9,918.1c0.2,0.2,0.4,0.3,0.6,0.5
		c3.2,2.2,3.2,6.9,1,9.8c-2.1,2.9-7.2,3.5-9.8,1c-0.2-0.2-0.4-0.3-0.6-0.5c-2.8-2.7-3.4-6.6-1-9.8
		C6234.4,916,6238.9,915.9,6241.9,918.1z M6208.5,930.4c-2.9-0.4-5.7-0.2-8.5,0.8c-3.8,1.4-6.7,3.1-11,2.6c-3.6-0.3-5.5-3.9-5.3-7.1
		c0.8-11.9,18.4-14.9,27.6-14.5c5,0.1,8.4,6,7.7,10.5C6218.1,927.7,6213.3,931.1,6208.5,930.4z"/>
	<path class="st10" d="M6589.6,735.4c-2.9,1.9-2.3,9.1-1.4,12.1c0.1-3.2,14.2-7,18.3-8.2c23.4-6.7,97.2-18.5,119.9-25.7
		c0,0-52.4-25.2-87.9-19.2C6602.9,700.3,6590.8,734.5,6589.6,735.4z"/>
	<path class="st9" d="M6588.2,747.4c-1.6,3.1-1.1,6.9,3.1,8.2c2.9,0.9,5.6,1.7,8.5,2.3c61,11.1,103.8-22.9,126.5-44.4l-63.6,0.7
		C6639.9,721.5,6587.8,746.4,6588.2,747.4z M6665.6,730.1c0.1-0.2-0.1-0.4-0.1-0.7C6668.1,728.5,6667,730,6665.6,730.1z"/>
	<g>
		<path class="st10" d="M6522.8,936.4c4.7,3.7,9.8,1.8,12.5-2c2.1-0.2,4.1-1.2,5.7-3.2c10.4-12.9,16.2-28.3,16.8-45
			c0.4-13.5-2.3-34.5-14.7-42.6c-1-0.6-1.9-0.9-3-1.1c-3-0.4-6,1.2-6.8,4.2c-24.6,8.2-33.9,35.6-28.4,59.8
			c2.2,9.4,6.4,18.5,13.1,25.5C6519.5,933.4,6521.1,935,6522.8,936.4z M6534,898.6c-4.6-0.5-7.3-5.1-6.9-9.3c0.6-5.8,1.1-11.4,3-17
			c1-3,4.7-4.7,7.7-4.2c3.2,0.5,5.6,3.1,6.1,6.3c0.8,5.8,0,11.6-0.4,17.3C6543,896.2,6538.2,899,6534,898.6z"/>
		<path class="st9" d="M6543.8,874.3c-0.4-3.2-2.8-5.9-6.1-6.3c-3-0.4-6.6,1.2-7.7,4.2c-1.8,5.7-2.4,11.2-3,17
			c-0.4,4.3,2.4,8.9,6.9,9.3c4.2,0.4,8.9-2.3,9.3-6.9C6544,885.9,6544.6,880.1,6543.8,874.3z"/>
	</g>
	<path class="st9" d="M5984.6,816.6c1,0.9,1.9,1.8,3,2.7c2.6,2.1,5.3,2,7.6,1c2,0.1,3.9-0.3,5.4-1.4c1.6-1.1,2.9-2.7,3.1-5
		c0-0.7,0.1-1.4,0-2.3c-2.1-14-3.2-27.1-1.6-41.3c1.1-9.9,3.7-19.5,5.9-29.3c0.3-1.3,0.5-2.7,0.8-3.9c0-0.1,0.3-0.1,0.3-0.1
		c2.9-1.5,2.9-5.7,0.5-7c-1.2-3.3-6.5-3.5-8.6-0.1c-0.1,0.4-0.3,0.7-0.6,1.1C5962.8,741.2,5958.4,790.9,5984.6,816.6z M5981.6,777.9
		c0-4.4,0.7-8.8,2.2-13C5983.3,769.4,5982.4,773.5,5981.6,777.9z"/>
	<path class="st10" d="M6369.3,1174.9c0.3,0.4,0.7,0.8,0.9,1c24.3,27,44.6,52.9,59.2,86.6c0.9,2,2.3,3.5,3.7,4.5
		c1.6,0.9,3.4,1.3,5.1,1.3c4.5,5.6,15,5.3,16.2-3.8c2.8-23.4-2.9-48.9-19.3-66.4c-11.5-12.4-30.1-25.6-48.2-27
		c-1.9-1.7-3.7-3.1-5.8-4.6C6376.8,1159.1,6362.4,1167.4,6369.3,1174.9z"/>
	<path class="st10" d="M6408.3,655.3c-1.7-2.6-4-4.9-7.1-6.7c-1.1-0.6-2.3-0.6-3.4-0.3c-3.4-1.3-7.7,0.1-9.5,3.8
		c-3.4,6.3-3.6,13.5-4.2,20.5c-0.5,6.4-2.1,12.9,0.4,18.7c1.4,4.5,6.1,8.5,11,7.5c1.7-0.4,3.4-1.3,5.1-3.1
		C6410.2,685.7,6416.2,667.2,6408.3,655.3z"/>
	<path class="st9" d="M6302.7,709.7c23.3-19.4,26-53,8.5-76.4c-1.3-1.7-2.8-3.4-4.3-5c-3.6-3.6-10.5-2.7-13.9,1
		c-2.8,0-5.7,1.3-6.9,4.1c-8.8,20.7-6.5,46.3,0.1,67.6c0.5,1.4,1,2.8,1.5,4.3c0.1,0.3,0.3,0.6,0.4,1c0.8,1.5,1.9,2.6,3.2,3.5
		C6294.6,711.9,6299.4,712.5,6302.7,709.7z"/>
	<path class="st9" d="M6630.6,823.8c-2.8,0.1-5.1,2.7-5.6,5.2c-0.4,2.9,1.2,5.3,3.7,6.7c1.1,0.7,1.6,1,2.3,1.7
		c1.3,1.2,2.1,1.5,3.6,2.2c2.2,1,4.4,1.6,6.7,2.4c3.9,1.4,8.1,0.6,10.8-2c1.2-1.1,2.1-2.6,2.7-4.4c1.5-5.4-1.9-12-8-12.6
		c-2.8-0.3-5.5-0.4-8.4-0.5c-1,0-2,0.1-2.9,0.2C6633.9,823.3,6632.3,823.8,6630.6,823.8z"/>
	<path class="st12" d="M6236.2,1051.5c16.7-1.2,36.1-3.7,52.5-10.9c5-4.9,9.9-10.2,14.9-15c4.3-6.3,9.8-11.9,13.3-18.8
		c4.8-9.7,7.8-20.5,8.6-31.3c2.1-27.8-13.1-47.3-30.5-66.9c-0.8-1-0.3-2.2,0.7-2.6c-17.5-15.3-40.1-25.1-66-26.2
		c-4-0.1-7.9,0-11.8,0.3c-25.9,1.8-49.9,13.6-66.9,33.8c-3.4,4.1-6.9,9-10,14.2c-10.1,17.4-16.7,39.5-11.3,58
		c-1.1,2.5,0.2,5.1,2.5,6.4c0.3,0.6,0.5,1.2,0.8,1.7c0.4,0.8,1,1.3,1.4,1.7c-5.3,15.4-0.6,33.3,20.5,44.3c0.4,0.1,0.7,0.4,1.1,0.6
		C6179.5,1052.4,6210.5,1053.4,6236.2,1051.5z M6148.9,965.1c2.4-13.6,6.2-26.1,17.3-38.7c17.3-19.5,43.6-28,69.2-24.9
		c40.3,5.1,66.3,35.2,74,71c-13.7-14.1-36-24.4-53.9-27.5C6224,939.4,6178.1,944.2,6148.9,965.1z M6156.7,1005.8
		c-1.4-1.4-2.7-3-4-4.6c-2.6-3.6-2-8.2,0.3-11.7c10-14.4,32.6-29.6,50.9-24.6c2.8-0.6,5.6-1.1,8.8-1.5c24.6-2.7,65.6-0.5,82,21.5
		c28.8,38.8-58.3,45.2-78.7,44.4c-14.5-0.6-30.9-2.1-44.4-7.5C6163.7,1018.7,6157,1012.7,6156.7,1005.8z"/>
	<path class="st12" d="M6219.3,993.8c9.3,7.5,20.5-6.2,11.2-13.7C6222.6,973.8,6211.5,987.6,6219.3,993.8z"/>
	<path class="st12" d="M6229.8,1015.8c8.6,6.9,19.3-6.3,10.8-13.1C6232.8,996.3,6222.1,1009.4,6229.8,1015.8z"/>
	<path class="st12" d="M6262.1,1002.9c9.3,7.5,19.6-5.1,10.3-12.7C6264.7,983.9,6254.4,996.5,6262.1,1002.9z"/>
	<path class="st16" d="M6504,784.1c10.8,8.8,23.6-6.8,12.7-15.6C6508.2,761.4,6495.5,777.3,6504,784.1z"/>
	<path class="st16" d="M6330.7,567.9c4.1,3.3,10.9,2.9,14.1-1.6c3.2-4.3,2.9-10.5-1.6-14.1c-4.1-3.3-10.9-2.9-14.1,1.6
		C6326,558.1,6326.3,564.3,6330.7,567.9z"/>
	<path class="st16" d="M6739.2,647.7c4.1,3.3,10.9,2.9,14.1-1.6c3.2-4.3,2.9-10.5-1.6-14.1c-4.1-3.3-10.9-2.9-14.1,1.6
		C6734.4,637.9,6734.8,644,6739.2,647.7z"/>
	<path class="st16" d="M6496.5,534.5c4.1,3.3,10.9,2.9,14.1-1.6c3.2-4.3,2.9-10.5-1.6-14.1c-4.1-3.3-10.9-2.9-14.1,1.6
		C6491.8,524.7,6492.1,530.9,6496.5,534.5z"/>
	<path class="st16" d="M6591.2,410.4c4.1,3.3,10.9,2.9,14.1-1.6c3.2-4.3,2.9-10.5-1.6-14.1c-4.1-3.3-10.9-2.9-14.1,1.6
		C6586.4,400.7,6586.8,406.8,6591.2,410.4z"/>
	<path class="st16" d="M6830.8,474.2c4.1,3.3,10.9,2.9,14.1-1.6c3.2-4.3,2.9-10.5-1.6-14.1c-4.1-3.3-10.9-2.9-14.1,1.6
		C6826,464.5,6826.2,470.6,6830.8,474.2z"/>
	<path class="st16" d="M6638.6,483.1c4.1,3.3,10.9,2.9,14.1-1.6c3.2-4.3,2.9-10.5-1.6-14.1c-4.1-3.3-10.9-2.9-14.1,1.6
		C6633.9,473.4,6634.2,479.5,6638.6,483.1z"/>
	<path class="st16" d="M6730.6,387.9c4.1,3.3,10.9,2.9,14.1-1.6c3.2-4.3,2.9-10.5-1.6-14.1c-4.1-3.3-10.9-2.9-14.1,1.6
		C6725.9,378.2,6726.2,384.3,6730.6,387.9z"/>
	<path class="st16" d="M6349.7,774.4c-1.1-0.6-2.3-0.9-3.5-1.1c-6.2-1.7-12.9,6.4-9.9,12c0.5,1.1,1.2,2.3,1.9,3.2
		c2.3,2.4,5.2,4.4,8.7,3.9c2.6-0.4,4.8-1.4,6.4-3.5c1.5-1.8,2.3-4.6,2.1-7C6355,778.4,6352.8,776,6349.7,774.4z"/>
	<path class="st11" d="M6216,1029.3c20.3,0.9,107.5-5.6,78.7-44.4c-16.3-22-57.4-24.2-82-21.5c-2.9,0.3-5.8,0.8-8.8,1.5
		c-18.4-5.1-40.9,10.2-50.9,24.6c-2.4,3.4-3,8.2-0.3,11.7c1.2,1.7,2.6,3.1,4,4.6c0.5,6.9,7.1,13,14.9,16
		C6185.2,1027.3,6201.5,1028.6,6216,1029.3z M6272.4,990.3c9.3,7.5-0.9,20.2-10.3,12.7C6254.4,996.5,6264.7,983.9,6272.4,990.3z
		 M6240.6,1002.6c8.6,6.9-2.2,20.1-10.8,13.1C6222.1,1009.4,6232.8,996.3,6240.6,1002.6z M6230.4,980.1c9.3,7.5-1.8,21.3-11.2,13.7
		C6211.5,987.6,6222.6,973.8,6230.4,980.1z"/>
	<path class="st7" d="M6211.2,912.4c-9.2-0.4-26.7,2.5-27.6,14.5c-0.2,3.3,1.6,6.7,5.3,7.1c4.3,0.4,7.1-1.3,11-2.6
		c2.7-1,5.6-1.4,8.5-0.8c4.9,0.6,9.6-2.8,10.4-7.7C6219.6,918.4,6216.2,912.6,6211.2,912.4z"/>
	<path class="st7" d="M6233.1,929c0.2,0.2,0.4,0.3,0.6,0.5c2.8,2.5,7.7,1.9,9.8-1c2.1-2.9,2.1-7.6-1-9.8c-0.2-0.2-0.4-0.3-0.6-0.5
		c-2.9-2.1-7.5-2.2-9.8,1C6229.7,922.4,6230.3,926.3,6233.1,929z"/>
	<path class="st7" d="M6192.8,682.4c-7.4-21.2,23-49,35.7-62.7c13.3-14.1,35.8-26.7,41.2-45.7c0.3-1-0.7-2.2-1.8-2.4
		c-26.6-1.1-55.3,35.9-70.7,54.5c-14.7,17.5-32.9,39.4-23.5,63.7C6178.5,701.9,6197.1,694.8,6192.8,682.4z"/>
	<path class="st7" d="M6200.2,712.1c-1.6-1.8-3.7-3-5.7-3.4c-2.4-1-5.1-0.8-7.4,0.8c-3.1,2.2-4.2,5.6-4.5,9.3
		c-0.3,4.8,2.4,9.4,7.5,10.2c4.3,0.7,8.4-1.5,10.6-5.1C6202.8,720.4,6203,715.2,6200.2,712.1z"/>
	<path class="st7" d="M6668.2,1140.3c31.4-14.2,77-32.7,93.4-65c0.4-0.6-0.3-1.6-1-1.4c-15.7,3.4-27.4,12-41.2,19.9
		c-18.7,10.9-37.8,20.7-57.5,29.5C6651.2,1128.2,6657.7,1145.2,6668.2,1140.3z"/>
	<path class="st7" d="M6628.3,1153c3.8,3.1,10.2,2.7,13.2-1.4s2.7-9.9-1.4-13.2c-3.8-3.1-10.2-2.7-13.2,1.4
		C6623.8,1143.9,6624.1,1149.7,6628.3,1153z"/>
</g>
<g>
	<path class="st18" d="M6578.6,957.8c7.2-11.8,9.9-17.5,12.9-21.8c1.4-2,20-16,18.1-14.6c-11,7.5-43.9,18.2-41.9,41.6
		c1.9,23.2,15.8,36.7,15.8,36.7S6571.6,969.3,6578.6,957.8z"/>
	<path class="st10" d="M6581.1,998.1c0.6,0.8,1.4,1.3,2.3,1.6c2.5,1.1,5.4,0.4,6.9-2c23.3-1.2,37.8-22.8,38.8-44.9
		c0.4-8.7-1.3-17.5-5.3-25.2c-1-1.7-2-3.5-3.2-5c-3.1-4.4-8.1-3.9-11.2-1.2c-1.8-0.3-3.8,0-5.7,1.5c-12.1,8.7-22,15.2-26.4,29.4
		C6573.8,963.9,6572.3,988.1,6581.1,998.1"/>
	<path class="st9" d="M6587.9,971.3c-0.4,2.9,1.1,5.7,3.7,6.9c2.4,1.1,6.1,0.6,7.6-1.8c2.9-4.4,4.7-9.2,6.7-14
		c1.3-3.6,0-8.2-3.8-9.8c-3.5-1.3-8.2-0.2-9.8,3.8C6590.6,961.3,6588.5,966.1,6587.9,971.3z"/>
</g>
<g>
	<path class="st19" d="M6261.5,464.1c-12.7,5.3-18.3,8.3-23.3,9.8c-2.2,0.8-25.6,1.1-23.3,1.1c13.3,0.4,46.2,11.3,58.5-8.8
		c12.2-19.9,8.9-39,8.9-39S6273.9,459,6261.5,464.1z"/>
	<path class="st10" d="M6283.2,430c0-1-0.4-1.9-0.9-2.7c-1.4-2.4-4.2-3.5-6.8-2.5c-19.4-12.7-43.9-3.9-57.9,13.3
		c-5.5,6.8-9.4,14.8-10.6,23.4c-0.2,2-0.4,4-0.4,5.9c-0.1,5.4,4.3,8,8.4,7.7c1.2,1.3,3.1,2.2,5.4,2.2c14.9,0.2,26.6,0.7,38.8-8.1
		C6268.9,461.9,6284.4,443.2,6283.2,430"/>
	<path class="st9" d="M6261.9,447.5c1.9-2,2.6-5.3,1.1-7.8c-1.3-2.3-4.5-4-7.2-3c-5.1,1.8-9.2,4.6-13.6,7.3c-3.3,2-4.9,6.6-2.7,10
		c2,3.2,6.6,5,10,2.7C6253.8,454.1,6258.4,451.4,6261.9,447.5z"/>
</g>
<g>
	<path class="st18" d="M5933.6,457.5c2.1,8.5,3.5,12.3,4,15.5c0.3,1.5-1.8,16.2-1.6,14.7c1.5-8.4,11.5-28,0.1-37.7
		c-11.3-9.5-23.6-9.3-23.6-9.3S5931.6,449.2,5933.6,457.5z"/>
	<path class="st10" d="M5914.2,440.7c-0.6,0-1.2,0.1-1.8,0.3c-1.6,0.7-2.6,2.3-2.2,4c-9.9,11-6.7,27.3,2.8,37.7
		c3.7,4,8.4,7.3,13.8,8.9c1.3,0.3,2.4,0.6,3.7,0.8c3.4,0.5,5.4-1.9,5.7-4.6c1-0.6,1.7-1.8,1.9-3.2c1.5-9.4,3.1-16.7-1.3-25.1
		C5932.9,452.7,5922.7,441.1,5914.2,440.7"/>
	<path class="st9" d="M5923.2,455.7c-1.1-1.5-3.1-2.1-4.8-1.4c-1.6,0.7-2.9,2.5-2.6,4.2c0.7,3.3,2,6.2,3.3,9.2c1,2.3,3.7,3.7,6,2.7
		c2.2-1,3.7-3.7,2.7-6C5926.7,461.4,5925.3,458.4,5923.2,455.7z"/>
</g>
<g>
	<path class="st18" d="M6169.2,400.2c-3.6,8-4.8,11.9-6.5,14.8c-0.7,1.3-11.4,11.6-10.3,10.7c6.4-5.7,26.3-14.9,23.3-29.6
		c-3-14.6-12.9-21.9-12.9-21.9S6172.8,392.4,6169.2,400.2z"/>
	<path class="st10" d="M6164.5,374.9c-0.4-0.4-1-0.7-1.6-0.9c-1.6-0.5-3.5,0.2-4.2,1.8c-14.6,2.6-22.1,17.3-21,31.4
		c0.4,5.5,2.1,11,5.3,15.4c0.7,1,1.5,2,2.4,2.9c2.3,2.5,5.4,1.8,7.2-0.1c1.2,0.1,2.4-0.3,3.5-1.4c6.9-6.5,12.6-11.2,14.5-20.7
		C6171.8,396,6170.9,380.5,6164.5,374.9"/>
	<path class="st9" d="M6162.3,392.3c0-1.8-1.2-3.5-2.9-4.1c-1.6-0.5-3.9,0.1-4.6,1.8c-1.5,3.1-2.3,6.1-3.1,9.3
		c-0.6,2.3,0.6,5.2,3.1,5.8c2.3,0.6,5.3-0.6,5.8-3.1C6161.5,398.9,6162.3,395.7,6162.3,392.3z"/>
</g>
<g>
	<path class="st19" d="M6032,405.8c5.4-59.4,133.1-149.8,213.9-99.3c28.2,17.6,58.2,23.8,86.6,26.5c27.5,2.5,81.4,28.8,81.4,28.8
		c52.4-16.9,21,19.5,21,19.5L6292.2,343c0,0-177.8,37-202.6,91.8C6060,499.7,6028.8,440,6032,405.8z"/>
	<path class="st18" d="M6067.7,380.8c0,0,70.7-84.8,187-54c30,7.9,49.4,3.6,77.7,6.2c27.5,2.5,81.4,28.8,81.4,28.8
		c59.2-40.2,63.1,44.2,63.1,44.2s-234.1-34.5-278.1-9.3c-24.3,13.9,17.1-6.9-51,45c-8.5,6.5-42.8,17.8-56,27.9
		C6020.6,477.4,6067.7,380.8,6067.7,380.8z"/>
</g>
<g>
	<path class="st11" d="M833.1,1685.1c19-9.2,47.6-15.6,71.1-13.1c-34.3-24-81.1-31.2-122.7-8.9c-26.4,14.2-44.5,38.2-45.8,65.3
		c-0.9,17.6,5.1,30.2,13.2,42.8C760.2,1735.2,799.5,1701.3,833.1,1685.1z M800,1672.3c0.3,0,0.6,0,0.9,0c4.6-0.3,8.2,3.5,8.4,7.3
		c0.3,3.7-4.1,7.6-8.4,7.3c-0.3,0-0.6,0-0.9,0c-4.6-0.3-8.2-3.1-8.4-7.3C791.4,1675.5,795.6,1672.5,800,1672.3z M778.2,1704.3
		c-3,1.6-5.5,3.6-7.3,6.2c-2.6,3.6-4,6.9-8.2,9.4c-3.6,2.1-8.1,0.4-10.2-2.3c-8.2-10.2,5.9-24,14.8-29.8c4.8-3.1,12.3-0.6,15,3.4
		C785.2,1695.7,783.3,1701.7,778.2,1704.3z"/>
	<path class="st12" d="M856.7,1627.7c-74-12-96.9,21.7-96.9,21.7c-3.9,2.5-7.5,5.1-10.8,7.9c-22.7,18.5-36.1,43.7-36.8,71.2
		c-0.1,5.6,0.4,11.8,1.4,18c3.7,20.7,14.3,42.9,33.4,54.3c0.9,2.7,4.1,4,7.1,3.5c0.8,0.3,1.3,0.6,2.1,0.9c0.9,0.3,1.8,0.4,2.7,0.4
		c6.7,15.9,24.6,27.3,52.6,22.4c0.5-0.1,0.9-0.1,1.4-0.2c30.6-6,60.1-25.5,82.8-43.9c14.7-11.9,30.9-26.6,40.6-43.2
		c1-7.3,1.4-14.7,2.6-22c-0.6-7.9,0.1-16-1.8-23.9c-2.7-11-8.2-21.7-15.6-31C921.5,1663.8,891.2,1633.3,856.7,1627.7z M748.9,1771.3
		c-8.1-12.6-14-25.3-13.2-42.8c1.3-27.2,19.4-51.2,45.8-65.3c41.4-22.3,88.4-15.1,122.7,8.9c-23.5-2.4-52.1,4-71.1,13.1
		C799.5,1701.3,760.2,1735.2,748.9,1771.3z M786.9,1799.1c-2.4-0.2-4.8-0.6-7.2-1.1c-5.1-1.1-8.1-5.3-8.5-9.7
		c-1.5-18.2,8-45.3,28.8-53.3c2.2-2.3,4.5-4.6,7.1-6.9c20.9-18.3,60.8-43.4,92.7-36.3c56.2,12.5-20.2,74.7-39.9,87.4
		c-14,9.1-30.2,18.5-47.1,23.1C803.4,1804.9,792.6,1804.4,786.9,1799.1z"/>
	<path class="st12" d="M836.3,1748.4c14.4,0,14.4-18.4,0-18.4C824.2,1730,824.2,1748.4,836.3,1748.4z"/>
	<path class="st12" d="M862.6,1759.2c13.2,0,13.2-17.7,0-17.7C850.7,1741.5,850.7,1759.2,862.6,1759.2z"/>
	<path class="st12" d="M883.1,1727.6c14.4,0,14.4-17,0-17C871,1710.6,871,1727.6,883.1,1727.6z"/>
	<path class="st11" d="M859.9,1779.2c19.7-12.7,96-74.9,39.9-87.4c-31.9-7.1-71.8,18-92.7,36.3c-2.6,2.2-4.8,4.5-7.1,6.9
		c-21,8-30.5,35.1-28.8,53.3c0.4,4.4,3.3,8.5,8.5,9.7c2.4,0.5,4.8,0.8,7.2,1.1c5.7,5.3,16.5,5.8,26.1,3.2
		C829.7,1797.7,845.9,1788.2,859.9,1779.2z M862.6,1741.5c13.2,0,13.2,17.7,0,17.7C850.7,1759.2,850.7,1741.5,862.6,1741.5z"/>
</g>
<g>
	<path class="st18" d="M6696.9,722.8c3.3,13.4,5.4,19.4,6.3,24.5c0.4,2.4-2.8,25.5-2.4,23.1c2.4-13.1,18.1-44,0.1-59.1
		c-17.8-15-37.2-14.7-37.2-14.7S6693.7,709.7,6696.9,722.8z"/>
	<path class="st10" d="M6666.5,696.1c-1-0.1-1.9,0.1-2.8,0.5c-2.5,1-4.1,3.6-3.4,6.3c-15.6,17.4-10.5,42.9,4.4,59.2
		c5.9,6.4,13.3,11.4,21.6,14c1.9,0.5,3.9,1,5.8,1.3c5.3,0.9,8.5-3,8.8-7.1c1.5-1.1,2.7-2.7,3-5.1c2.4-14.7,4.8-26.3-2.2-39.5
		C6695.9,715.1,6679.8,696.9,6666.5,696.1"/>
	<path class="st9" d="M6680.7,719.8c-1.8-2.3-4.8-3.3-7.5-2.2c-2.5,0.9-4.7,3.9-4.1,6.7c1.1,5.2,3.2,9.8,5.2,14.6
		c1.6,3.5,5.8,5.8,9.6,4.2c3.4-1.6,5.9-5.7,4.2-9.6C6685.9,728.8,6684,723.9,6680.7,719.8z"/>
</g>
</svg>
